{
.appVersion = "1172";
DisplayStrings = (
A,
"Á",
"Æ",
"Â",
"/uniE000"
);
copyright = "Copyright 2018 The Orbitron Project Authors (https://github.com/theleagueof/orbitron)";
customParameters = (
{
name = license;
value = "This Font Software is licensed under the SIL Open Font License, Version 1.1. This license is available with a FAQ at: http://scripts.sil.org/OFL";
},
{
name = licenseURL;
value = "http://scripts.sil.org/OFL";
},
{
name = fsType;
value = (
);
},
{
name = "Disable Last Change";
value = 1;
},
{
name = "Use Line Breaks";
value = 1;
},
{
name = "Use Typo Metrics";
value = 1;
},
{
name = Axes;
value = (
{
Name = Weight;
Tag = wght;
}
);
}
);
date = "2011-05-25 19:46:57 +0000";
designer = "Matt McInerney";
designerURL = "http://matt.cc/";
familyName = Orbitron;
fontMaster = (
{
ascender = 750;
capHeight = 720;
customParameters = (
{
name = typoAscender;
value = 750;
},
{
name = typoDescender;
value = -250;
},
{
name = typoLineGap;
value = 0;
},
{
name = winAscent;
value = 1054;
},
{
name = winDescent;
value = 364;
},
{
name = hheaAscender;
value = 750;
},
{
name = hheaDescender;
value = -250;
},
{
name = hheaLineGap;
value = 0;
},
{
name = "Axis Location";
value = (
{
Axis = Weight;
Location = 400;
}
);
}
);
descender = -250;
iconName = Light;
id = "17A5F7C0-AED1-4270-89BA-BFDC1003B8A5";
userData = {
GSCornerRadius = 15;
};
weightValue = 400;
widthValue = 5;
xHeight = 580;
},
{
ascender = 750;
capHeight = 720;
custom = Black;
customParameters = (
{
name = typoAscender;
value = 750;
},
{
name = typoDescender;
value = -250;
},
{
name = typoLineGap;
value = 0;
},
{
name = winAscent;
value = 1054;
},
{
name = winDescent;
value = 268;
},
{
name = hheaAscender;
value = 750;
},
{
name = hheaDescender;
value = -250;
},
{
name = hheaLineGap;
value = 0;
},
{
name = "Axis Location";
value = (
{
Axis = Weight;
Location = 900;
}
);
}
);
descender = -250;
iconName = Bold;
id = "D465923C-ABAE-4975-85A4-08C1BC9DA335";
userData = {
GSCornerRadius = 32;
};
visible = 1;

glyphs = (
{
color = 0;
glyphname = A;
layers = (
{
anchors = (
{
name = bottom;
position = "{418, 0}";
},
{
name = ogonek;
position = "{740, 0}";
},
{
name = top;
position = "{407, 750}";
}
);
layerId = "17A5F7C0-AED1-4270-89BA-BFDC1003B8A5";
paths = (
{
closed = 1;
nodes = (
"139 0 LINE",
"139 263 LINE",
"697 263 LINE",
"697 0 LINE",
"778 0 LINE",
"778 600 LINE SMOOTH",
"778 650 OFFCURVE",
"708 720 OFFCURVE",
"658 720 QCURVE SMOOTH",
"178 720 LINE SMOOTH",
"128 720 OFFCURVE",
"58 650 OFFCURVE",
"58 600 QCURVE SMOOTH",
"58 0 LINE"
);
},
{
closed = 1;
nodes = (
"139 600 LINE SMOOTH",
"139 615.672 OFFCURVE",
"162.328 639 OFFCURVE",
"178 639 QCURVE SMOOTH",
"658 639 LINE SMOOTH",
"673.672 639 OFFCURVE",
"697 615.672 OFFCURVE",
"697 600 QCURVE SMOOTH",
"697 344 LINE",
"139 344 LINE"
);
}
);
width = 836;
},
{
anchors = (
{
name = bottom;
position = "{416, 0}";
},
{
name = ogonek;
position = "{698, 0}";
},
{
name = top;
position = "{416, 720}";
}
);
layerId = "D465923C-ABAE-4975-85A4-08C1BC9DA335";
paths = (
{
closed = 1;
nodes = (
"211 0 LINE",
"211 232 LINE",
"619 232 LINE",
"619 0 LINE",
"776 0 LINE",
"776 572 LINE SMOOTH",
"776 633 OFFCURVE",
"688 720 OFFCURVE",
"627 720 QCURVE SMOOTH",
"204 720 LINE SMOOTH",
"143 720 OFFCURVE",
"56 633 OFFCURVE",
"56 572 QCURVE SMOOTH",
"56 0 LINE"
);
},
{
closed = 1;
nodes = (
"211 531 LINE SMOOTH",
"211 564 OFFCURVE",
"211 564 OFFCURVE",
"244 564 QCURVE SMOOTH",
"586 564 LINE SMOOTH",
"619 564 OFFCURVE",
"619 564 OFFCURVE",
"619 531 QCURVE SMOOTH",
"619 388 LINE",
"211 388 LINE"
);
}
);
width = 832;
}
);
unicode = 0041;
},
{
color = 0;
glyphname = Aacute;
layers = (
{
components = (
{
name = A;
}
);
layerId = "17A5F7C0-AED1-4270-89BA-BFDC1003B8A5";
paths = (
{
closed = 1;
nodes = (
"424 864 LINE",
"458 1003 LINE",
"379 1003 LINE",
"344 864 LINE"
);
}
);
width = 836;
},
{
components = (
{
name = A;
}
);
layerId = "D465923C-ABAE-4975-85A4-08C1BC9DA335";
paths = (
{
closed = 1;
nodes = (
"491 769 LINE",
"542 972 LINE",
"385 972 LINE",
"334 769 LINE"
);
}
);
width = 832;
}
);
leftKerningGroup = A;
rightKerningGroup = A;
unicode = 00C1;
},
{
color = 0;
glyphname = Acircumflex;
layers = (
{
components = (
{
name = A;
}
);
layerId = "17A5F7C0-AED1-4270-89BA-BFDC1003B8A5";
paths = (
{
closed = 1;
nodes = (
"397 949 LINE",
"455 864 LINE",
"497 864 LINE",
"426 981 LINE",
"367 981 LINE",
"296 864 LINE",
"337 864 LINE"
);
}
);
width = 836;
},
{
components = (
{
name = A;
}
);
layerId = "D465923C-ABAE-4975-85A4-08C1BC9DA335";
paths = (
{
closed = 1;
nodes = (
"424 813 LINE",
"452 769 LINE",
"586 769 LINE",
"476 953 LINE",
"376 953 LINE",
"266 769 LINE",
"399 769 LINE"
);
}
);
width = 832;
}
);
unicode = 00C2;
},
{
color = 0;
glyphname = AE;
layers = (
{
layerId = "17A5F7C0-AED1-4270-89BA-BFDC1003B8A5";
paths = (
{
closed = 1;
nodes = (
"135 0 LINE",
"135 263 LINE",
"693 263 LINE",
"693 0 LINE",
"1350 0 LINE",
"1350 81 LINE",
"774 81 LINE",
"774 319 LINE",
"1237 319 LINE",
"1237 401 LINE",
"774 401 LINE",
"774 639 LINE",
"1350 639 LINE",
"1350 720 LINE",
"174 720 LINE SMOOTH",
"124 720 OFFCURVE",
"54 650 OFFCURVE",
"54 600 QCURVE SMOOTH",
"54 0 LINE"
);
},
{
closed = 1;
nodes = (
"135 600 LINE SMOOTH",
"135 616 OFFCURVE",
"158 639 OFFCURVE",
"174 639 QCURVE SMOOTH",
"654 639 LINE SMOOTH",
"670 639 OFFCURVE",
"693 616 OFFCURVE",
"693 600 QCURVE SMOOTH",
"693 344 LINE",
"135 344 LINE"
);
}
);
width = 1375;
},
{
layerId = "D465923C-ABAE-4975-85A4-08C1BC9DA335";
paths = (
{
closed = 1;
nodes = (
"211 0 LINE",
"211 232 LINE",
"619 232 LINE",
"619 0 LINE",
"1283 0 LINE",
"1283 156 LINE",
"774 156 LINE",
"774 282 LINE",
"1183 282 LINE",
"1183 438 LINE",
"774 438 LINE",
"774 564 LINE",
"1283 564 LINE",
"1283 720 LINE",
"202 720 LINE SMOOTH",
"142 720 OFFCURVE",
"54 633 OFFCURVE",
"54 572 QCURVE SMOOTH",
"54 0 LINE"
);
},
{
closed = 1;
nodes = (
"211 531 LINE SMOOTH",
"211 564 OFFCURVE",
"211 564 OFFCURVE",
"244 564 QCURVE SMOOTH",
"586 564 LINE SMOOTH",
"619 564 OFFCURVE",
"619 564 OFFCURVE",
"619 531 QCURVE SMOOTH",
"619 388 LINE",
"211 388 LINE"
);
}
);
width = 1375;
}
);
unicode = 00C6;
},
{
color = 5;
glyphname = B;
layers = (
{
layerId = "17A5F7C0-AED1-4270-89BA-BFDC1003B8A5";
paths = (
{
closed = 1;
nodes = (
"659 0 LINE SMOOTH",
"709 0 OFFCURVE",
"779 70 OFFCURVE",
"779 120 QCURVE SMOOTH",
"779 288 LINE SMOOTH",
"779 313.373 OFFCURVE",
"757 361 OFFCURVE",
"735 394 QCURVE",
"740.97 405.94 OFFCURVE",
"748 432.821 OFFCURVE",
"748 447 QCURVE SMOOTH",
"748 600 LINE SMOOTH",
"748 650 OFFCURVE",
"678 720 OFFCURVE",
"628 720 QCURVE SMOOTH",
"59 720 LINE",
"59 0 LINE"
);
},
{
closed = 1;
nodes = (
"163.328 81 OFFCURVE",
"140 104.328 OFFCURVE",
"140 120 QCURVE SMOOTH",
"140 288 LINE SMOOTH",
"140 303.672 OFFCURVE",
"163.328 327 OFFCURVE",
"179 327 QCURVE SMOOTH",
"659 327 LINE SMOOTH",
"674.672 327 OFFCURVE",
"698 303.672 OFFCURVE",
"698 288 QCURVE SMOOTH",
"698 120 LINE SMOOTH",
"698 104.328 OFFCURVE",
"674.672 81 OFFCURVE",
"659 81 QCURVE SMOOTH",
"179 81 LINE SMOOTH"
);
},
{
closed = 1;
nodes = (
"163.328 408 OFFCURVE",
"140 431.328 OFFCURVE",
"140 447 QCURVE SMOOTH",
"140 600 LINE SMOOTH",
"140 615.672 OFFCURVE",
"163.328 639 OFFCURVE",
"179 639 QCURVE SMOOTH",
"628 639 LINE SMOOTH",
"643.672 639 OFFCURVE",
"666 615.672 OFFCURVE",
"666 600 QCURVE SMOOTH",
"666 447 LINE SMOOTH",
"666 431.328 OFFCURVE",
"643.672 408 OFFCURVE",
"628 408 QCURVE SMOOTH",
"179 408 LINE SMOOTH"
);
}
);
width = 832;
},
{
layerId = "D465923C-ABAE-4975-85A4-08C1BC9DA335";
paths = (
{
closed = 1;
nodes = (
"627 0 LINE SMOOTH",
"688 0 OFFCURVE",
"776 87 OFFCURVE",
"776 148 QCURVE SMOOTH",
"776 297 LINE SMOOTH",
"776 322 OFFCURVE",
"756 372 OFFCURVE",
"741 391 QCURVE",
"745 401 OFFCURVE",
"748 424 OFFCURVE",
"748 437 QCURVE SMOOTH",
"748 572 LINE SMOOTH",
"748 633 OFFCURVE",
"660 720 OFFCURVE",
"600 720 QCURVE SMOOTH",
"56 720 LINE",
"56 0 LINE"
);
},
{
closed = 1;
nodes = (
"211 156 OFFCURVE",
"211 156 OFFCURVE",
"211 189 QCURVE SMOOTH",
"211 255 LINE SMOOTH",
"211 288 OFFCURVE",
"211 288 OFFCURVE",
"244 288 QCURVE SMOOTH",
"586 288 LINE SMOOTH",
"619 288 OFFCURVE",
"619 288 OFFCURVE",
"619 255 QCURVE SMOOTH",
"619 189 LINE SMOOTH",
"619 156 OFFCURVE",
"619 156 OFFCURVE",
"586 156 QCURVE SMOOTH",
"244 156 LINE SMOOTH"
);
},
{
closed = 1;
nodes = (
"211 444 OFFCURVE",
"211 444 OFFCURVE",
"211 477 QCURVE SMOOTH",
"211 531 LINE SMOOTH",
"211 564 OFFCURVE",
"211 564 OFFCURVE",
"244 564 QCURVE SMOOTH",
"558 564 LINE SMOOTH",
"591 564 OFFCURVE",
"591 564 OFFCURVE",
"591 531 QCURVE SMOOTH",
"591 477 LINE SMOOTH",
"591 444 OFFCURVE",
"591 444 OFFCURVE",
"558 444 QCURVE SMOOTH",
"244 444 LINE SMOOTH"
);
}
);
width = 824;
}
);
unicode = 0042;
},
{
color = 5;
glyphname = C;
layers = (
{
layerId = "17A5F7C0-AED1-4270-89BA-BFDC1003B8A5";
paths = (
{
closed = 1;
nodes = (
"774 0 LINE",
"774 81 LINE",
"176 81 LINE SMOOTH",
"160.328 81 OFFCURVE",
"137 104.328 OFFCURVE",
"137 120 QCURVE SMOOTH",
"137 600 LINE SMOOTH",
"137 615.672 OFFCURVE",
"160.328 639 OFFCURVE",
"176 639 QCURVE SMOOTH",
"774 639 LINE",
"774 720 LINE",
"176 720 LINE SMOOTH",
"126 720 OFFCURVE",
"56 650 OFFCURVE",
"56 600 QCURVE SMOOTH",
"56 120 LINE SMOOTH",
"56 70 OFFCURVE",
"126 0 OFFCURVE",
"176 0 QCURVE SMOOTH"
);
}
);
width = 822;
},
{
layerId = "D465923C-ABAE-4975-85A4-08C1BC9DA335";
paths = (
{
closed = 1;
nodes = (
"774 0 LINE",
"774 156 LINE",
"244 156 LINE SMOOTH",
"211 156 OFFCURVE",
"211 156 OFFCURVE",
"211 189 QCURVE SMOOTH",
"211 531 LINE SMOOTH",
"211 564 OFFCURVE",
"211 564 OFFCURVE",
"244 564 QCURVE SMOOTH",
"774 564 LINE",
"774 720 LINE",
"204 720 LINE SMOOTH",
"142.806 720 OFFCURVE",
"56 633.194 OFFCURVE",
"56 572 QCURVE SMOOTH",
"56 148 LINE SMOOTH",
"56 86.806 OFFCURVE",
"142.806 0 OFFCURVE",
"204 0 QCURVE SMOOTH"
);
}
);
width = 822;
}
);
unicode = 0043;
},
{
color = 5;
glyphname = Ccedilla;
layers = (
{
layerId = "17A5F7C0-AED1-4270-89BA-BFDC1003B8A5";
paths = (
{
closed = 1;
nodes = (
"417 -139 LINE",
"451 0 LINE",
"774 0 LINE",
"774 81 LINE",
"176 81 LINE SMOOTH",
"160.328 81 OFFCURVE",
"137 104.328 OFFCURVE",
"137 120 QCURVE SMOOTH",
"137 600 LINE SMOOTH",
"137 615.672 OFFCURVE",
"160.328 639 OFFCURVE",
"176 639 QCURVE SMOOTH",
"774 639 LINE",
"774 720 LINE",
"176 720 LINE SMOOTH",
"126 720 OFFCURVE",
"56 650 OFFCURVE",
"56 600 QCURVE SMOOTH",
"56 120 LINE SMOOTH",
"56 70 OFFCURVE",
"126 0 OFFCURVE",
"176 0 QCURVE SMOOTH",
"372 0 LINE",
"337 -139 LINE"
);
}
);
width = 822;
},
{
layerId = "D465923C-ABAE-4975-85A4-08C1BC9DA335";
paths = (
{
closed = 1;
nodes = (
"484 -156 LINE",
"531 0 LINE",
"774 0 LINE",
"774 156 LINE",
"244 156 LINE SMOOTH",
"211 156 OFFCURVE",
"211 156 OFFCURVE",
"211 189 QCURVE SMOOTH",
"211 531 LINE SMOOTH",
"211 564 OFFCURVE",
"211 564 OFFCURVE",
"244 564 QCURVE SMOOTH",
"774 564 LINE",
"774 720 LINE",
"204 720 LINE SMOOTH",
"142.806 720 OFFCURVE",
"56 633.194 OFFCURVE",
"56 572 QCURVE SMOOTH",
"56 148 LINE SMOOTH",
"56 86.806 OFFCURVE",
"142.806 0 OFFCURVE",
"204 0 QCURVE SMOOTH",
"374 0 LINE",
"327 -156 LINE"
);
}
);
width = 822;
}
);
unicode = 00C7;
},
{
color = 5;
glyphname = D;
layers = (
{
layerId = "17A5F7C0-AED1-4270-89BA-BFDC1003B8A5";
paths = (
{
closed = 1;
nodes = (
"658 0 LINE SMOOTH",
"708 0 OFFCURVE",
"778 70 OFFCURVE",
"778 120 QCURVE SMOOTH",
"778 600 LINE SMOOTH",
"778 650 OFFCURVE",
"708 720 OFFCURVE",
"658 720 QCURVE SMOOTH",
"58 720 LINE",
"58 0 LINE"
);
},
{
closed = 1;
nodes = (
"162.328 81 OFFCURVE",
"139 104.328 OFFCURVE",
"139 120 QCURVE SMOOTH",
"139 600 LINE SMOOTH",
"139 615.672 OFFCURVE",
"162.328 639 OFFCURVE",
"178 639 QCURVE SMOOTH",
"658 639 LINE SMOOTH",
"673.672 639 OFFCURVE",
"697 615.672 OFFCURVE",
"697 600 QCURVE SMOOTH",
"697 120 LINE SMOOTH",
"697 104.328 OFFCURVE",
"673.672 81 OFFCURVE",
"658 81 QCURVE SMOOTH",
"178 81 LINE SMOOTH"
);
}
);
width = 834;
},
{
layerId = "D465923C-ABAE-4975-85A4-08C1BC9DA335";
paths = (
{
closed = 1;
nodes = (
"627 0 LINE SMOOTH",
"688 0 OFFCURVE",
"776 87 OFFCURVE",
"776 148 QCURVE SMOOTH",
"776 572 LINE SMOOTH",
"776 633 OFFCURVE",
"688 720 OFFCURVE",
"627 720 QCURVE SMOOTH",
"56 720 LINE",
"56 0 LINE"
);
},
{
closed = 1;
nodes = (
"211 156 OFFCURVE",
"211 156 OFFCURVE",
"211 189 QCURVE SMOOTH",
"211 531 LINE SMOOTH",
"211 564 OFFCURVE",
"211 564 OFFCURVE",
"244 564 QCURVE SMOOTH",
"586 564 LINE SMOOTH",
"619 564 OFFCURVE",
"619 564 OFFCURVE",
"619 531 QCURVE SMOOTH",
"619 189 LINE SMOOTH",
"619 156 OFFCURVE",
"619 156 OFFCURVE",
"586 156 QCURVE SMOOTH",
"244 156 LINE SMOOTH"
);
}
);
width = 824;
}
);
unicode = 0044;
},
{
color = 5;
glyphname = E;
layers = (
{
anchors = (
{
name = bottom;
position = "{400, 0}";
},
{
name = ogonek;
position = "{647, 0}";
},
{
name = top;
position = "{414, 720}";
}
);
layerId = "17A5F7C0-AED1-4270-89BA-BFDC1003B8A5";
paths = (
{
closed = 1;
nodes = (
"715 0 LINE",
"715 81 LINE",
"139 81 LINE",
"139 319 LINE",
"602 319 LINE",
"602 401 LINE",
"139 401 LINE",
"139 639 LINE",
"715 639 LINE",
"715 720 LINE",
"58 720 LINE",
"58 0 LINE"
);
}
);
width = 765;
},
{
anchors = (
{
name = bottom;
position = "{396, 0}";
},
{
name = ogonek;
position = "{653, 0}";
},
{
name = top;
position = "{393, 720}";
}
);
layerId = "D465923C-ABAE-4975-85A4-08C1BC9DA335";
paths = (
{
closed = 1;
nodes = (
"721 0 LINE",
"721 156 LINE",
"213 156 LINE",
"213 282 LINE",
"622 282 LINE",
"622 438 LINE",
"213 438 LINE",
"213 564 LINE",
"721 564 LINE",
"721 720 LINE",
"56 720 LINE",
"56 0 LINE"
);
}
);
width = 769;
}
);
unicode = 0045;
},
{
color = 5;
glyphname = F;
layers = (
{
layerId = "17A5F7C0-AED1-4270-89BA-BFDC1003B8A5";
paths = (
{
closed = 1;
nodes = (
"139 0 LINE",
"139 319 LINE",
"602 319 LINE",
"602 401 LINE",
"139 401 LINE",
"139 639 LINE",
"715 639 LINE",
"715 720 LINE",
"58 720 LINE",
"58 0 LINE"
);
}
);
width = 723;
},
{
layerId = "D465923C-ABAE-4975-85A4-08C1BC9DA335";
paths = (
{
closed = 1;
nodes = (
"213 0 LINE",
"213 282 LINE",
"622 282 LINE",
"622 438 LINE",
"213 438 LINE",
"213 564 LINE",
"721 564 LINE",
"721 720 LINE",
"56 720 LINE",
"56 0 LINE"
);
}
);
width = 737;
}
);
unicode = 0046;
},
{
color = 5;
glyphname = G;
layers = (
{
layerId = "17A5F7C0-AED1-4270-89BA-BFDC1003B8A5";
paths = (
{
closed = 1;
nodes = (
"656 0 LINE SMOOTH",
"706 0 OFFCURVE",
"776 70 OFFCURVE",
"776 120 QCURVE SMOOTH",
"776 380 LINE",
"517 380 LINE",
"517 298 LINE",
"695 298 LINE",
"695 120 LINE SMOOTH",
"695 104.328 OFFCURVE",
"671.672 81 OFFCURVE",
"656 81 QCURVE SMOOTH",
"176 81 LINE SMOOTH",
"160.328 81 OFFCURVE",
"137 104.328 OFFCURVE",
"137 120 QCURVE SMOOTH",
"137 600 LINE SMOOTH",
"137 615.672 OFFCURVE",
"160.328 639 OFFCURVE",
"176 639 QCURVE SMOOTH",
"656 639 LINE SMOOTH",
"671.672 639 OFFCURVE",
"695 615.672 OFFCURVE",
"695 600 QCURVE SMOOTH",
"695 571 LINE",
"776 571 LINE",
"776 600 LINE SMOOTH",
"776 650 OFFCURVE",
"706 720 OFFCURVE",
"656 720 QCURVE SMOOTH",
"176 720 LINE SMOOTH",
"126 720 OFFCURVE",
"56 650 OFFCURVE",
"56 600 QCURVE SMOOTH",
"56 120 LINE SMOOTH",
"56 70 OFFCURVE",
"126 0 OFFCURVE",
"176 0 QCURVE SMOOTH"
);
}
);
width = 830;
},
{
layerId = "D465923C-ABAE-4975-85A4-08C1BC9DA335";
paths = (
{
closed = 1;
nodes = (
"627 0 LINE SMOOTH",
"688.194 0 OFFCURVE",
"776 86.806 OFFCURVE",
"776 148 QCURVE SMOOTH",
"776 420 LINE",
"463 420 LINE",
"463 264 LINE",
"619 264 LINE",
"619 189 LINE SMOOTH",
"619 156 OFFCURVE",
"619 156 OFFCURVE",
"586 156 QCURVE SMOOTH",
"244 156 LINE SMOOTH",
"211 156 OFFCURVE",
"211 156 OFFCURVE",
"211 189 QCURVE SMOOTH",
"211 531 LINE SMOOTH",
"211 564 OFFCURVE",
"211 564 OFFCURVE",
"244 564 QCURVE SMOOTH",
"586 564 LINE SMOOTH",
"619 564 OFFCURVE",
"619 564 OFFCURVE",
"619 531 QCURVE SMOOTH",
"619 504 LINE",
"776 504 LINE",
"776 572 LINE SMOOTH",
"776 633.194 OFFCURVE",
"688.194 720 OFFCURVE",
"627 720 QCURVE SMOOTH",
"204 720 LINE SMOOTH",
"142.806 720 OFFCURVE",
"56 633.194 OFFCURVE",
"56 572 QCURVE SMOOTH",
"56 148 LINE SMOOTH",
"56 86.806 OFFCURVE",
"142.806 0 OFFCURVE",
"204 0 QCURVE SMOOTH"
);
}
);
width = 832;
}
);
unicode = 0047;
},
{
color = 5;
glyphname = H;
layers = (
{
layerId = "17A5F7C0-AED1-4270-89BA-BFDC1003B8A5";
paths = (
{
closed = 1;
nodes = (
"137 0 LINE",
"137 319 LINE",
"712 319 LINE",
"712 0 LINE",
"794 0 LINE",
"794 720 LINE",
"712 720 LINE",
"712 401 LINE",
"137 401 LINE",
"137 720 LINE",
"56 720 LINE",
"56 0 LINE"
);
}
);
width = 850;
},
{
layerId = "D465923C-ABAE-4975-85A4-08C1BC9DA335";
paths = (
{
closed = 1;
nodes = (
"203 0 LINE",
"203 282 LINE",
"628 282 LINE",
"628 0 LINE",
"783 0 LINE",
"783 720 LINE",
"628 720 LINE",
"628 438 LINE",
"203 438 LINE",
"203 720 LINE",
"48 720 LINE",
"48 0 LINE"
);
}
);
width = 831;
}
);
unicode = 0048;
},
{
color = 5;
glyphname = I;
layers = (
{
anchors = (
{
name = bottom;
position = "{97, 0}";
},
{
name = ogonek;
position = "{125, 0}";
},
{
name = top;
position = "{97, 720}";
}
);
layerId = "17A5F7C0-AED1-4270-89BA-BFDC1003B8A5";
paths = (
{
closed = 1;
nodes = (
"138 0 LINE",
"138 720 LINE",
"57 720 LINE",
"57 0 LINE"
);
}
);
width = 220;
},
{
anchors = (
{
name = bottom;
position = "{135, 0}";
},
{
name = ogonek;
position = "{191, 0}";
},
{
name = top;
position = "{135, 720}";
}
);
layerId = "D465923C-ABAE-4975-85A4-08C1BC9DA335";
paths = (
{
closed = 1;
nodes = (
"213 0 LINE",
"213 720 LINE",
"57 720 LINE",
"57 0 LINE"
);
}
);
width = 220;
}
);
unicode = 0049;
},
{
color = 5;
glyphname = J;
layers = (
{
layerId = "17A5F7C0-AED1-4270-89BA-BFDC1003B8A5";
paths = (
{
closed = 1;
nodes = (
"604 0 LINE SMOOTH",
"654 0 OFFCURVE",
"724 70 OFFCURVE",
"724 120 QCURVE SMOOTH",
"724 720 LINE",
"643 720 LINE",
"643 120 LINE SMOOTH",
"643 104.328 OFFCURVE",
"619.672 81 OFFCURVE",
"604 81 QCURVE SMOOTH",
"124 81 LINE SMOOTH",
"108.328 81 OFFCURVE",
"85 104.328 OFFCURVE",
"85 120 QCURVE SMOOTH",
"85 177 LINE",
"4 177 LINE",
"4 120 LINE SMOOTH",
"4 70 OFFCURVE",
"74 0 OFFCURVE",
"124 0 QCURVE SMOOTH"
);
}
);
width = 780;
},
{
layerId = "D465923C-ABAE-4975-85A4-08C1BC9DA335";
paths = (
{
closed = 1;
nodes = (
"576 0 LINE SMOOTH",
"636 0 OFFCURVE",
"724 87 OFFCURVE",
"724 148 QCURVE SMOOTH",
"724 720 LINE",
"567 720 LINE",
"567 189 LINE SMOOTH",
"567 156 OFFCURVE",
"567 156 OFFCURVE",
"534 156 QCURVE SMOOTH",
"192 156 LINE SMOOTH",
"159 156 OFFCURVE",
"159 156 OFFCURVE",
"159 189 QCURVE SMOOTH",
"159 241 LINE",
"4 241 LINE",
"4 148 LINE SMOOTH",
"4 87 OFFCURVE",
"91 0 OFFCURVE",
"152 0 QCURVE SMOOTH"
);
}
);
width = 780;
}
);
unicode = 004A;
},
{
color = 5;
glyphname = K;
layers = (
{
layerId = "17A5F7C0-AED1-4270-89BA-BFDC1003B8A5";
paths = (
{
closed = 1;
nodes = (
"139 0 LINE",
"139 319 LINE",
"371 319 LINE",
"639 0 LINE",
"744 0 LINE",
"744 1 LINE",
"442 360 LINE",
"743 719 LINE",
"743 720 LINE",
"639 720 LINE",
"371 401 LINE",
"139 401 LINE",
"139 720 LINE",
"57 720 LINE",
"57 0 LINE"
);
}
);
width = 797;
},
{
layerId = "D465923C-ABAE-4975-85A4-08C1BC9DA335";
paths = (
{
closed = 1;
nodes = (
"212 0 LINE",
"212 282 LINE",
"353 282 LINE",
"589 0 LINE",
"751 0 LINE",
"751 54 LINE",
"494 360 LINE",
"751 666 LINE",
"751 720 LINE",
"589 720 LINE",
"373 438 LINE",
"212 438 LINE",
"212 720 LINE",
"56 720 LINE",
"56 0 LINE"
);
}
);
width = 775;
}
);
unicode = 004B;
},
{
color = 5;
glyphname = L;
layers = (
{
layerId = "17A5F7C0-AED1-4270-89BA-BFDC1003B8A5";
paths = (
{
closed = 1;
nodes = (
"777 0 LINE",
"777 81 LINE",
"138 81 LINE",
"138 721 LINE",
"57 721 LINE",
"57 0 LINE"
);
}
);
width = 779;
},
{
layerId = "D465923C-ABAE-4975-85A4-08C1BC9DA335";
paths = (
{
closed = 1;
nodes = (
"777 0 LINE",
"777 156 LINE",
"212 156 LINE",
"212 721 LINE",
"57 721 LINE",
"57 0 LINE"
);
}
);
width = 779;
}
);
unicode = 004C;
},
{
color = 5;
glyphname = M;
layers = (
{
layerId = "17A5F7C0-AED1-4270-89BA-BFDC1003B8A5";
paths = (
{
closed = 1;
nodes = (
"137 0 LINE",
"137 628 LINE",
"466 237 LINE",
"795 628 LINE",
"795 0 LINE",
"876 0 LINE",
"876 720 LINE",
"765 720 LINE",
"466 364 LINE",
"167 720 LINE",
"56 720 LINE",
"56 0 LINE"
);
}
);
width = 928;
},
{
layerId = "D465923C-ABAE-4975-85A4-08C1BC9DA335";
paths = (
{
closed = 1;
nodes = (
"211 0 LINE",
"211 482 LINE",
"460 187 LINE",
"708 483 LINE",
"708 0 LINE",
"864 0 LINE",
"864 720 LINE",
"703 720 LINE",
"460 429 LINE",
"216 720 LINE",
"56 720 LINE",
"56 0 LINE"
);
}
);
width = 928;
}
);
leftMetricsKey = "=N";
unicode = 004D;
},
{
color = 5;
glyphname = N;
layers = (
{
anchors = (
{
name = bottom;
position = "{329, 0}";
},
{
name = top;
position = "{443, 720}";
}
);
layerId = "17A5F7C0-AED1-4270-89BA-BFDC1003B8A5";
paths = (
{
closed = 1;
nodes = (
"137 0 LINE",
"137 628 LINE",
"665 0 LINE",
"776 0 LINE",
"776 720 LINE",
"695 720 LINE",
"695 92 LINE",
"167 720 LINE",
"56 720 LINE",
"56 0 LINE"
);
}
);
width = 832;
},
{
anchors = (
{
name = bottom;
position = "{356, 0}";
},
{
name = top;
position = "{403, 720}";
}
);
layerId = "D465923C-ABAE-4975-85A4-08C1BC9DA335";
paths = (
{
closed = 1;
nodes = (
"211 0 LINE",
"211 482 LINE",
"616 0 LINE",
"776 0 LINE",
"776 720 LINE",
"619 720 LINE",
"619 240 LINE",
"216 720 LINE",
"56 720 LINE",
"56 0 LINE"
);
}
);
width = 832;
}
);
unicode = 004E;
},
{
color = 5;
glyphname = O;
layers = (
{
anchors = (
{
name = bottom;
position = "{414, 0}";
},
{
name = top;
position = "{414, 719}";
}
);
layerId = "17A5F7C0-AED1-4270-89BA-BFDC1003B8A5";
paths = (
{
closed = 1;
nodes = (
"654 0 LINE SMOOTH",
"704 0 OFFCURVE",
"774 70 OFFCURVE",
"774 120 QCURVE SMOOTH",
"774 600 LINE SMOOTH",
"774 650 OFFCURVE",
"704 720 OFFCURVE",
"654 720 QCURVE SMOOTH",
"174 720 LINE SMOOTH",
"124 720 OFFCURVE",
"54 650 OFFCURVE",
"54 600 QCURVE SMOOTH",
"54 120 LINE SMOOTH",
"54 70 OFFCURVE",
"124 0 OFFCURVE",
"174 0 QCURVE SMOOTH"
);
},
{
closed = 1;
nodes = (
"158.328 81 OFFCURVE",
"135 104.328 OFFCURVE",
"135 120 QCURVE SMOOTH",
"135 600 LINE SMOOTH",
"135 615.672 OFFCURVE",
"158.328 639 OFFCURVE",
"174 639 QCURVE SMOOTH",
"654 639 LINE SMOOTH",
"669.672 639 OFFCURVE",
"693 615.672 OFFCURVE",
"693 600 QCURVE SMOOTH",
"693 120 LINE SMOOTH",
"693 104.328 OFFCURVE",
"669.672 81 OFFCURVE",
"654 81 QCURVE SMOOTH",
"174 81 LINE SMOOTH"
);
}
);
width = 828;
},
{
anchors = (
{
name = bottom;
position = "{420, 0}";
},
{
name = top;
position = "{420, 720}";
}
);
layerId = "D465923C-ABAE-4975-85A4-08C1BC9DA335";
paths = (
{
closed = 1;
nodes = (
"626 0 LINE SMOOTH",
"686 0 OFFCURVE",
"774 87 OFFCURVE",
"774 148 QCURVE SMOOTH",
"774 572 LINE SMOOTH",
"774 633 OFFCURVE",
"686 720 OFFCURVE",
"626 720 QCURVE SMOOTH",
"202 720 LINE SMOOTH",
"141 720 OFFCURVE",
"54 633 OFFCURVE",
"54 572 QCURVE SMOOTH",
"54 148 LINE SMOOTH",
"54 87 OFFCURVE",
"141 0 OFFCURVE",
"202 0 QCURVE SMOOTH"
);
},
{
closed = 1;
nodes = (
"209 156 OFFCURVE",
"209 156 OFFCURVE",
"209 189 QCURVE SMOOTH",
"209 531 LINE SMOOTH",
"209 564 OFFCURVE",
"209 564 OFFCURVE",
"242 564 QCURVE SMOOTH",
"584 564 LINE SMOOTH",
"617 564 OFFCURVE",
"617 564 OFFCURVE",
"617 531 QCURVE SMOOTH",
"617 189 LINE SMOOTH",
"617 156 OFFCURVE",
"617 156 OFFCURVE",
"584 156 QCURVE SMOOTH",
"242 156 LINE SMOOTH"
);
}
);
width = 828;
}
);
unicode = 004F;
},
{
color = 5;
glyphname = OE;
layers = (
{
layerId = "17A5F7C0-AED1-4270-89BA-BFDC1003B8A5";
paths = (
{
closed = 1;
nodes = (
"1349 0 LINE",
"1349 81 LINE",
"773 81 LINE",
"773 319 LINE",
"1236 319 LINE",
"1236 401 LINE",
"773 401 LINE",
"773 639 LINE",
"1349 639 LINE",
"1349 720 LINE",
"173 720 LINE SMOOTH",
"123 720 OFFCURVE",
"53 650 OFFCURVE",
"53 600 QCURVE SMOOTH",
"53 120 LINE SMOOTH",
"53 70 OFFCURVE",
"123 0 OFFCURVE",
"173 0 QCURVE SMOOTH"
);
},
{
closed = 1;
nodes = (
"157.328 81 OFFCURVE",
"134 104.328 OFFCURVE",
"134 120 QCURVE SMOOTH",
"134 600 LINE SMOOTH",
"134 615.672 OFFCURVE",
"157.328 639 OFFCURVE",
"173 639 QCURVE SMOOTH",
"653 639 LINE SMOOTH",
"668.672 639 OFFCURVE",
"692 615.672 OFFCURVE",
"692 600 QCURVE SMOOTH",
"692 120 LINE SMOOTH",
"692 104.328 OFFCURVE",
"668.672 81 OFFCURVE",
"653 81 QCURVE SMOOTH",
"173 81 LINE SMOOTH"
);
}
);
width = 1374;
},
{
layerId = "D465923C-ABAE-4975-85A4-08C1BC9DA335";
paths = (
{
closed = 1;
nodes = (
"1282 0 LINE",
"1282 156 LINE",
"773 156 LINE",
"773 282 LINE",
"1182 282 LINE",
"1182 438 LINE",
"773 438 LINE",
"773 564 LINE",
"1282 564 LINE",
"1282 720 LINE",
"201 720 LINE SMOOTH",
"140.552 720 OFFCURVE",
"53 633.194 OFFCURVE",
"53 572 QCURVE SMOOTH",
"53 148 LINE SMOOTH",
"53 86.806 OFFCURVE",
"140.552 0 OFFCURVE",
"201 0 QCURVE SMOOTH"
);
},
{
closed = 1;
nodes = (
"210 156 OFFCURVE",
"210 156 OFFCURVE",
"210 189 QCURVE SMOOTH",
"210 531 LINE SMOOTH",
"210 564 OFFCURVE",
"210 564 OFFCURVE",
"243 564 QCURVE SMOOTH",
"585 564 LINE SMOOTH",
"618 564 OFFCURVE",
"618 564 OFFCURVE",
"618 531 QCURVE SMOOTH",
"618 189 LINE SMOOTH",
"618 156 OFFCURVE",
"618 156 OFFCURVE",
"585 156 QCURVE SMOOTH",
"243 156 LINE SMOOTH"
);
}
);
width = 1374;
}
);
unicode = 0152;
},
{
color = 5;
glyphname = P;
layers = (
{
layerId = "17A5F7C0-AED1-4270-89BA-BFDC1003B8A5";
paths = (
{
closed = 1;
nodes = (
"137 0 LINE",
"137 268 LINE",
"656 268 LINE SMOOTH",
"706 268 OFFCURVE",
"776 338.746 OFFCURVE",
"776 388 QCURVE SMOOTH",
"776 599 LINE SMOOTH",
"776 648.254 OFFCURVE",
"706 719 OFFCURVE",
"656 719 QCURVE SMOOTH",
"56 719 LINE",
"56 0 LINE"
);
},
{
closed = 1;
nodes = (
"160.328 350 OFFCURVE",
"137 372.328 OFFCURVE",
"137 388 QCURVE SMOOTH",
"137 599 LINE SMOOTH",
"137 614.672 OFFCURVE",
"160.328 638 OFFCURVE",
"176 638 QCURVE SMOOTH",
"656 638 LINE SMOOTH",
"671.672 638 OFFCURVE",
"695 614.672 OFFCURVE",
"695 599 QCURVE SMOOTH",
"695 388 LINE SMOOTH",
"695 372.328 OFFCURVE",
"671.672 350 OFFCURVE",
"656 350 QCURVE SMOOTH",
"176 350 LINE SMOOTH"
);
}
);
width = 830;
},
{
layerId = "D465923C-ABAE-4975-85A4-08C1BC9DA335";
paths = (
{
closed = 1;
nodes = (
"211 0 LINE",
"211 236 LINE",
"627 237 LINE SMOOTH",
"688.194 237 OFFCURVE",
"776 324.552 OFFCURVE",
"776 385 QCURVE SMOOTH",
"776 571 LINE SMOOTH",
"776 631.448 OFFCURVE",
"688.194 719 OFFCURVE",
"627 719 QCURVE SMOOTH",
"56 719 LINE",
"56 0 LINE"
);
},
{
closed = 1;
nodes = (
"211 393 OFFCURVE",
"211 393 OFFCURVE",
"211 426 QCURVE SMOOTH",
"211 531 LINE SMOOTH",
"211 564 OFFCURVE",
"211 564 OFFCURVE",
"244 564 QCURVE SMOOTH",
"586 564 LINE SMOOTH",
"619 564 OFFCURVE",
"619 564 OFFCURVE",
"619 531 QCURVE SMOOTH",
"619 426 LINE SMOOTH",
"619 393 OFFCURVE",
"619 393 OFFCURVE",
"586 393 QCURVE SMOOTH",
"244 393 LINE SMOOTH"
);
}
);
width = 830;
}
);
leftMetricsKey = "=N";
rightMetricsKey = "=O";
unicode = 0050;
},
{
color = 5;
glyphname = Q;
layers = (
{
layerId = "17A5F7C0-AED1-4270-89BA-BFDC1003B8A5";
paths = (
{
closed = 1;
nodes = (
"868 0 LINE",
"868 81 LINE",
"774 81 LINE",
"774 600 LINE",
"774 650 OFFCURVE",
"704 720 OFFCURVE",
"654 720 QCURVE SMOOTH",
"174 720 LINE SMOOTH",
"124 720 OFFCURVE",
"54 650 OFFCURVE",
"54 600 QCURVE SMOOTH",
"54 120 LINE SMOOTH",
"54 70 OFFCURVE",
"124 0 OFFCURVE",
"174 0 QCURVE SMOOTH"
);
},
{
closed = 1;
nodes = (
"158.328 81 OFFCURVE",
"135 104.328 OFFCURVE",
"135 120 QCURVE SMOOTH",
"135 600 LINE SMOOTH",
"135 615.672 OFFCURVE",
"158.328 639 OFFCURVE",
"174 639 QCURVE SMOOTH",
"654 639 LINE SMOOTH",
"669.672 639 OFFCURVE",
"693 615.672 OFFCURVE",
"693 600 QCURVE SMOOTH",
"693 120 LINE SMOOTH",
"693 104.328 OFFCURVE",
"669.672 81 OFFCURVE",
"654 81 QCURVE SMOOTH",
"174 81 LINE SMOOTH"
);
}
);
width = 884;
},
{
layerId = "D465923C-ABAE-4975-85A4-08C1BC9DA335";
paths = (
{
closed = 1;
nodes = (
"856 0 LINE",
"856 156 LINE",
"774 156 LINE",
"774 572 LINE SMOOTH",
"774 633 OFFCURVE",
"686 720 OFFCURVE",
"625 720 QCURVE SMOOTH",
"202 720 LINE SMOOTH",
"141 720 OFFCURVE",
"54 633 OFFCURVE",
"54 572 QCURVE SMOOTH",
"54 148 LINE SMOOTH",
"54 87 OFFCURVE",
"141 0 OFFCURVE",
"202 0 QCURVE SMOOTH"
);
},
{
closed = 1;
nodes = (
"209 156 OFFCURVE",
"209 156 OFFCURVE",
"209 189 QCURVE SMOOTH",
"209 531 LINE SMOOTH",
"209 564 OFFCURVE",
"209 564 OFFCURVE",
"242 564 QCURVE SMOOTH",
"584 564 LINE SMOOTH",
"617 564 OFFCURVE",
"617 564 OFFCURVE",
"617 531 QCURVE SMOOTH",
"617 189 LINE SMOOTH",
"617 156 OFFCURVE",
"617 156 OFFCURVE",
"584 156 QCURVE SMOOTH",
"242 156 LINE SMOOTH"
);
}
);
width = 872;
}
);
leftMetricsKey = "=O";
unicode = 0051;
},
{
color = 5;
glyphname = R;
layers = (
{
layerId = "17A5F7C0-AED1-4270-89BA-BFDC1003B8A5";
paths = (
{
closed = 1;
nodes = (
"137 0 LINE",
"137 269 LINE",
"440 268 LINE",
"665 0 LINE",
"772 0 LINE",
"772 1 LINE",
"546 268 LINE",
"656 268 LINE SMOOTH",
"706 268 OFFCURVE",
"776 339 OFFCURVE",
"776 388 QCURVE SMOOTH",
"776 599 LINE SMOOTH",
"776 648 OFFCURVE",
"706 719 OFFCURVE",
"656 719 QCURVE SMOOTH",
"56 719 LINE",
"56 0 LINE"
);
},
{
closed = 1;
nodes = (
"160 350 OFFCURVE",
"137 372 OFFCURVE",
"137 388 QCURVE SMOOTH",
"137 599 LINE SMOOTH",
"137 615 OFFCURVE",
"160 638 OFFCURVE",
"176 638 QCURVE SMOOTH",
"656 638 LINE SMOOTH",
"672 638 OFFCURVE",
"694 615 OFFCURVE",
"694 599 QCURVE SMOOTH",
"694 388 LINE SMOOTH",
"694 372 OFFCURVE",
"672 350 OFFCURVE",
"656 350 QCURVE SMOOTH",
"176 350 LINE SMOOTH"
);
}
);
width = 830;
},
{
layerId = "D465923C-ABAE-4975-85A4-08C1BC9DA335";
paths = (
{
closed = 1;
nodes = (
"211 0 LINE",
"211 236 LINE",
"417 237 LINE",
"616 0 LINE",
"776 0 LINE",
"776 53 LINE",
"620 237 LINE",
"627 237 LINE SMOOTH",
"688 237 OFFCURVE",
"776 325 OFFCURVE",
"776 385 QCURVE SMOOTH",
"776 571 LINE SMOOTH",
"776 631 OFFCURVE",
"688 719 OFFCURVE",
"627 719 QCURVE SMOOTH",
"56 719 LINE",
"56 0 LINE"
);
},
{
closed = 1;
nodes = (
"211 393 OFFCURVE",
"211 393 OFFCURVE",
"211 426 QCURVE SMOOTH",
"211 531 LINE SMOOTH",
"211 564 OFFCURVE",
"211 564 OFFCURVE",
"244 564 QCURVE SMOOTH",
"586 564 LINE SMOOTH",
"619 564 OFFCURVE",
"619 564 OFFCURVE",
"619 531 QCURVE SMOOTH",
"619 426 LINE SMOOTH",
"619 393 OFFCURVE",
"619 393 OFFCURVE",
"586 393 QCURVE SMOOTH",
"244 393 LINE SMOOTH"
);
}
);
width = 830;
}
);
leftMetricsKey = "=N";
rightMetricsKey = "=O";
unicode = 0052;
},
{
color = 5;
glyphname = S;
layers = (
{
anchors = (
{
name = bottom;
position = "{414, 0}";
},
{
name = top;
position = "{414, 720}";
}
);
layerId = "17A5F7C0-AED1-4270-89BA-BFDC1003B8A5";
paths = (
{
closed = 1;
nodes = (
"654 0 LINE SMOOTH",
"704 0 OFFCURVE",
"774 70 OFFCURVE",
"774 120 QCURVE SMOOTH",
"774 281 LINE SMOOTH",
"774 330 OFFCURVE",
"704 401 OFFCURVE",
"654 401 QCURVE SMOOTH",
"174 401 LINE SMOOTH",
"158 401 OFFCURVE",
"135 423 OFFCURVE",
"135 439 QCURVE SMOOTH",
"135 600 LINE SMOOTH",
"135 616 OFFCURVE",
"158 639 OFFCURVE",
"174 639 QCURVE SMOOTH",
"654 639 LINE SMOOTH",
"670 639 OFFCURVE",
"693 616 OFFCURVE",
"693 600 QCURVE SMOOTH",
"693 572 LINE",
"774 572 LINE",
"774 600 LINE SMOOTH",
"774 650 OFFCURVE",
"704 720 OFFCURVE",
"654 720 QCURVE SMOOTH",
"174 720 LINE SMOOTH",
"124 720 OFFCURVE",
"54 650 OFFCURVE",
"54 600 QCURVE SMOOTH",
"54 439 LINE SMOOTH",
"54 390 OFFCURVE",
"124 319 OFFCURVE",
"174 319 QCURVE SMOOTH",
"654 319 LINE SMOOTH",
"670 319 OFFCURVE",
"693 297 OFFCURVE",
"693 281 QCURVE SMOOTH",
"693 120 LINE SMOOTH",
"693 104 OFFCURVE",
"670 81 OFFCURVE",
"654 81 QCURVE SMOOTH",
"174 81 LINE SMOOTH",
"158 81 OFFCURVE",
"135 104 OFFCURVE",
"135 120 QCURVE SMOOTH",
"135 148 LINE",
"54 148 LINE",
"54 120 LINE SMOOTH",
"54 70 OFFCURVE",
"124 0 OFFCURVE",
"174 0 QCURVE SMOOTH"
);
}
);
width = 828;
},
{
anchors = (
{
name = bottom;
position = "{414, 0}";
},
{
name = top;
position = "{414, 720}";
}
);
layerId = "D465923C-ABAE-4975-85A4-08C1BC9DA335";
paths = (
{
closed = 1;
nodes = (
"626 0 LINE SMOOTH",
"686 0 OFFCURVE",
"774 87 OFFCURVE",
"774 148 QCURVE SMOOTH",
"774 290 LINE SMOOTH",
"774 351 OFFCURVE",
"686 438 OFFCURVE",
"626 438 QCURVE SMOOTH",
"242 438 LINE SMOOTH",
"209 438 OFFCURVE",
"209 438 OFFCURVE",
"209 471 QCURVE SMOOTH",
"209 531 LINE SMOOTH",
"209 564 OFFCURVE",
"209 564 OFFCURVE",
"242 564 QCURVE SMOOTH",
"584 564 LINE SMOOTH",
"617 564 OFFCURVE",
"617 564 OFFCURVE",
"617 531 QCURVE SMOOTH",
"617 505 LINE",
"774 505 LINE",
"774 572 LINE SMOOTH",
"774 633 OFFCURVE",
"686 720 OFFCURVE",
"626 720 QCURVE SMOOTH",
"202 720 LINE SMOOTH",
"141 720 OFFCURVE",
"54 633 OFFCURVE",
"54 572 QCURVE SMOOTH",
"54 430 LINE SMOOTH",
"54 369 OFFCURVE",
"141 282 OFFCURVE",
"202 282 QCURVE SMOOTH",
"584 282 LINE SMOOTH",
"617 282 OFFCURVE",
"617 282 OFFCURVE",
"617 249 QCURVE SMOOTH",
"617 189 LINE SMOOTH",
"617 156 OFFCURVE",
"617 156 OFFCURVE",
"584 156 QCURVE SMOOTH",
"242 156 LINE SMOOTH",
"209 156 OFFCURVE",
"209 156 OFFCURVE",
"209 189 QCURVE SMOOTH",
"209 215 LINE",
"54 215 LINE",
"54 148 LINE SMOOTH",
"54 87 OFFCURVE",
"141 0 OFFCURVE",
"202 0 QCURVE SMOOTH"
);
}
);
width = 828;
}
);
leftMetricsKey = "=O";
rightMetricsKey = "=O";
unicode = 0053;
},
{
color = 5;
glyphname = T;
layers = (
{
layerId = "17A5F7C0-AED1-4270-89BA-BFDC1003B8A5";
paths = (
{
closed = 1;
nodes = (
"421 0 LINE",
"421 639 LINE",
"740 639 LINE",
"740 720 LINE",
"20 720 LINE",
"20 639 LINE",
"340 639 LINE",
"340 0 LINE"
);
}
);
width = 759;
},
{
layerId = "D465923C-ABAE-4975-85A4-08C1BC9DA335";
paths = (
{
closed = 1;
nodes = (
"454 0 LINE",
"454 564 LINE",
"736 564 LINE",
"736 720 LINE",
"16 720 LINE",
"16 564 LINE",
"298 564 LINE",
"298 0 LINE"
);
}
);
width = 752;
}
);
unicode = 0054;
},
{
color = 5;
glyphname = U;
layers = (
{
anchors = (
{
name = bottom;
position = "{414, 0}";
},
{
name = top;
position = "{414, 720}";
}
);
layerId = "17A5F7C0-AED1-4270-89BA-BFDC1003B8A5";
paths = (
{
closed = 1;
nodes = (
"654 0 LINE SMOOTH",
"704 0 OFFCURVE",
"774 70 OFFCURVE",
"774 120 QCURVE SMOOTH",
"774 720 LINE",
"693 720 LINE",
"693 120 LINE SMOOTH",
"693 104 OFFCURVE",
"670 81 OFFCURVE",
"654 81 QCURVE SMOOTH",
"174 81 LINE SMOOTH",
"158 81 OFFCURVE",
"135 104 OFFCURVE",
"135 120 QCURVE SMOOTH",
"135 720 LINE",
"54 720 LINE",
"54 120 LINE SMOOTH",
"54 70 OFFCURVE",
"124 0 OFFCURVE",
"174 0 QCURVE SMOOTH"
);
}
);
width = 828;
},
{
anchors = (
{
name = bottom;
position = "{414, 0}";
},
{
name = top;
position = "{414, 720}";
}
);
layerId = "D465923C-ABAE-4975-85A4-08C1BC9DA335";
paths = (
{
closed = 1;
nodes = (
"626 0 LINE SMOOTH",
"686 0 OFFCURVE",
"774 87 OFFCURVE",
"774 148 QCURVE SMOOTH",
"774 720 LINE",
"617 720 LINE",
"617 189 LINE SMOOTH",
"617 156 OFFCURVE",
"617 156 OFFCURVE",
"584 156 QCURVE SMOOTH",
"242 156 LINE SMOOTH",
"209 156 OFFCURVE",
"209 156 OFFCURVE",
"209 189 QCURVE SMOOTH",
"209 720 LINE",
"54 720 LINE",
"54 148 LINE SMOOTH",
"54 87 OFFCURVE",
"141 0 OFFCURVE",
"202 0 QCURVE SMOOTH"
);
}
);
width = 828;
}
);
leftMetricsKey = "=O";
rightMetricsKey = "=O";
unicode = 0055;
},
{
color = 5;
glyphname = V;
layers = (
{
layerId = "17A5F7C0-AED1-4270-89BA-BFDC1003B8A5";
paths = (
{
closed = 1;
nodes = (
"527 0 LINE",
"943 719 LINE",
"943 720 LINE",
"848 720 LINE",
"480 79 LINE",
"111 720 LINE",
"16 720 LINE",
"16 719 LINE",
"433 0 LINE"
);
}
);
width = 959;
},
{
layerId = "D465923C-ABAE-4975-85A4-08C1BC9DA335";
paths = (
{
closed = 1;
nodes = (
"539 0 LINE",
"926 667 LINE",
"926 720 LINE",
"777 720 LINE",
"475 197 LINE",
"173 720 LINE",
"24 720 LINE",
"24 667 LINE",
"410 0 LINE"
);
}
);
width = 950;
}
);
leftMetricsKey = "=Y";
rightMetricsKey = "=Y";
unicode = 0056;
},
{
color = 5;
glyphname = W;
layers = (
{
layerId = "17A5F7C0-AED1-4270-89BA-BFDC1003B8A5";
paths = (
{
closed = 1;
nodes = (
"348 0 LINE",
"572 615 LINE",
"796 0 LINE",
"867 0 LINE",
"1129 719 LINE",
"1129 720 LINE",
"1041 720 LINE",
"832 142 LINE",
"621 720 LINE",
"523 720 LINE",
"313 142 LINE",
"102 720 LINE",
"16 720 LINE",
"16 719 LINE",
"278 0 LINE"
);
}
);
width = 1145;
},
{
layerId = "D465923C-ABAE-4975-85A4-08C1BC9DA335";
paths = (
{
closed = 1;
nodes = (
"387 0 LINE",
"556 463 LINE",
"726 0 LINE",
"845 0 LINE",
"1089 667 LINE",
"1089 720 LINE",
"943 720 LINE",
"786 291 LINE",
"628 720 LINE",
"485 720 LINE",
"328 291 LINE",
"171 720 LINE",
"24 720 LINE",
"24 667 LINE",
"268 0 LINE"
);
}
);
width = 1113;
}
);
leftMetricsKey = "=Y";
rightMetricsKey = "=Y";
unicode = 0057;
},
{
color = 5;
glyphname = X;
layers = (
{
layerId = "17A5F7C0-AED1-4270-89BA-BFDC1003B8A5";
paths = (
{
closed = 1;
nodes = (
"120 0 LINE",
"371 297 LINE",
"621 0 LINE",
"726 0 LINE",
"726 1 LINE",
"423 360 LINE",
"725 719 LINE",
"725 720 LINE",
"621 720 LINE",
"371 423 LINE",
"120 720 LINE",
"16 720 LINE",
"16 719 LINE",
"318 360 LINE",
"16 1 LINE",
"16 0 LINE"
);
}
);
width = 742;
},
{
layerId = "D465923C-ABAE-4975-85A4-08C1BC9DA335";
paths = (
{
closed = 1;
nodes = (
"185 0 LINE",
"383 236 LINE",
"583 0 LINE",
"744 0 LINE",
"744 54 LINE",
"486 360 LINE",
"744 667 LINE",
"744 720 LINE",
"583 720 LINE",
"385 483 LINE",
"185 720 LINE",
"24 720 LINE",
"24 667 LINE",
"281 360 LINE",
"24 53 LINE",
"24 0 LINE"
);
}
);
width = 768;
}
);
leftMetricsKey = "=Y";
rightMetricsKey = "=Y";
unicode = 0058;
},
{
color = 5;
glyphname = Y;
layers = (
{
anchors = (
{
name = top;
position = "{387, 720}";
}
);
layerId = "17A5F7C0-AED1-4270-89BA-BFDC1003B8A5";
paths = (
{
closed = 1;
nodes = (
"427 0 LINE",
"427 271 LINE",
"758 719 LINE",
"758 720 LINE",
"663 720 LINE",
"387 348 LINE",
"108 720 LINE",
"16 720 LINE",
"16 719 LINE",
"346 271 LINE",
"346 0 LINE"
);
}
);
width = 774;
},
{
anchors = (
{
name = top;
position = "{396, 720}";
}
);
layerId = "D465923C-ABAE-4975-85A4-08C1BC9DA335";
paths = (
{
closed = 1;
nodes = (
"474 0 LINE",
"474 268 LINE",
"772 667 LINE",
"772 720 LINE",
"621 720 LINE",
"396 436 LINE",
"170 720 LINE",
"24 720 LINE",
"24 667 LINE",
"318 269 LINE",
"318 0 LINE"
);
}
);
width = 796;
}
);
unicode = 0059;
},
{
color = 5;
glyphname = Z;
layers = (
{
anchors = (
{
name = top;
position = "{410, 720}";
}
);
layerId = "17A5F7C0-AED1-4270-89BA-BFDC1003B8A5";
paths = (
{
closed = 1;
nodes = (
"770 0 LINE",
"770 81 LINE",
"142 81 LINE",
"770 609 LINE",
"770 720 LINE",
"50 720 LINE",
"50 639 LINE",
"678 639 LINE",
"50 111 LINE",
"50 0 LINE"
);
}
);
width = 820;
},
{
anchors = (
{
name = top;
position = "{400, 720}";
}
);
layerId = "D465923C-ABAE-4975-85A4-08C1BC9DA335";
paths = (
{
closed = 1;
nodes = (
"760 0 LINE",
"760 156 LINE",
"278 156 LINE",
"760 561 LINE",
"760 720 LINE",
"40 720 LINE",
"40 564 LINE",
"522 564 LINE",
"40 159 LINE",
"40 0 LINE"
);
}
);
width = 800;
}
);
unicode = 005A;
},
{
color = 5;
glyphname = A.alt;
layers = (
{
layerId = "17A5F7C0-AED1-4270-89BA-BFDC1003B8A5";
paths = (
{
closed = 1;
nodes = (
"111 0 LINE",
"281 202 LINE",
"645 202 LINE",
"645 0 LINE",
"728 0 LINE",
"728 721 LINE",
"616 721 LINE",
"4 1 LINE",
"4 0 LINE"
);
},
{
closed = 1;
nodes = (
"645 629 LINE",
"645 285 LINE",
"351 285 LINE"
);
}
);
width = 774;
},
{
layerId = "D465923C-ABAE-4975-85A4-08C1BC9DA335";
paths = (
{
closed = 1;
nodes = (
"156 0 LINE",
"302 174 LINE",
"552 174 LINE",
"552 0 LINE",
"706 0 LINE",
"706 720 LINE",
"549 720 LINE",
"0 50 LINE",
"0 0 LINE"
);
},
{
closed = 1;
nodes = (
"552 471 LINE",
"552 327 LINE",
"430 327 LINE"
);
}
);
width = 774;
}
);
},
{
color = 5;
glyphname = C.alt;
layers = (
{
layerId = "17A5F7C0-AED1-4270-89BA-BFDC1003B8A5";
paths = (
{
closed = 1;
nodes = (
"652 0 LINE SMOOTH",
"692.299 0 OFFCURVE",
"758.806 61.94 OFFCURVE",
"770 100 QCURVE",
"770 194 LINE",
"692 194 LINE",
"692 81 LINE",
"172 81 LINE SMOOTH",
"156.328 81 OFFCURVE",
"133 104.328 OFFCURVE",
"133 120 QCURVE SMOOTH",
"133 600 LINE SMOOTH",
"133 615.672 OFFCURVE",
"156.328 639 OFFCURVE",
"172 639 QCURVE SMOOTH",
"692 639 LINE",
"692 526 LINE",
"773 526 LINE",
"770 620 LINE",
"758.806 658.06 OFFCURVE",
"692.299 720 OFFCURVE",
"652 720 QCURVE SMOOTH",
"172 720 LINE SMOOTH",
"122 720 OFFCURVE",
"52 650 OFFCURVE",
"52 600 QCURVE SMOOTH",
"52 120 LINE SMOOTH",
"52 70 OFFCURVE",
"122 0 OFFCURVE",
"172 0 QCURVE SMOOTH"
);
}
);
width = 822;
},
{
layerId = "D465923C-ABAE-4975-85A4-08C1BC9DA335";
paths = (
{
closed = 1;
nodes = (
"624 0 LINE SMOOTH",
"678.478 0 OFFCURVE",
"761.045 70.507 OFFCURVE",
"770 122 QCURVE",
"770 255 LINE",
"616 255 LINE",
"616 156 LINE",
"240 156 LINE SMOOTH",
"226 156 OFFCURVE",
"207 175 OFFCURVE",
"207 189 QCURVE SMOOTH",
"207 531 LINE SMOOTH",
"207 545 OFFCURVE",
"226 564 OFFCURVE",
"240 564 QCURVE SMOOTH",
"616 564 LINE",
"616 465 LINE",
"773 465 LINE",
"773 599 LINE",
"760.313 649.746 OFFCURVE",
"677.731 720 OFFCURVE",
"624 720 QCURVE SMOOTH",
"200 720 LINE SMOOTH",
"138.806 720 OFFCURVE",
"52 633.194 OFFCURVE",
"52 572 QCURVE SMOOTH",
"52 148 LINE SMOOTH",
"52 86.806 OFFCURVE",
"138.806 0 OFFCURVE",
"200 0 QCURVE SMOOTH"
);
}
);
width = 822;
}
);
},
{
color = 5;
glyphname = I.alt;
layers = (
{
layerId = "17A5F7C0-AED1-4270-89BA-BFDC1003B8A5";
paths = (
{
closed = 1;
nodes = (
"769 0 LINE",
"769 81 LINE",
"450 81 LINE",
"450 639 LINE",
"769 639 LINE",
"769 720 LINE",
"49 720 LINE",
"49 639 LINE",
"368 639 LINE",
"368 81 LINE",
"49 81 LINE",
"49 0 LINE"
);
}
);
width = 818;
},
{
layerId = "D465923C-ABAE-4975-85A4-08C1BC9DA335";
paths = (
{
closed = 1;
nodes = (
"769 0 LINE",
"769 156 LINE",
"487 156 LINE",
"487 564 LINE",
"769 564 LINE",
"769 720 LINE",
"49 720 LINE",
"49 564 LINE",
"331 564 LINE",
"331 156 LINE",
"49 156 LINE",
"49 0 LINE"
);
}
);
width = 818;
}
);
},
{
color = 5;
glyphname = J.alt;
layers = (
{
layerId = "17A5F7C0-AED1-4270-89BA-BFDC1003B8A5";
paths = (
{
closed = 1;
nodes = (
"468 0 LINE SMOOTH",
"517.254 0 OFFCURVE",
"588 70 OFFCURVE",
"588 120 QCURVE SMOOTH",
"588 720 LINE",
"506 720 LINE",
"506 120 LINE SMOOTH",
"506 104.328 OFFCURVE",
"483.672 81 OFFCURVE",
"468 81 QCURVE SMOOTH",
"3 81 LINE",
"3 0 LINE"
);
}
);
width = 645;
},
{
layerId = "D465923C-ABAE-4975-85A4-08C1BC9DA335";
paths = (
{
closed = 1;
nodes = (
"455 0 LINE SMOOTH",
"515.448 0 OFFCURVE",
"604 86.806 OFFCURVE",
"604 148 QCURVE SMOOTH",
"604 720 LINE",
"447 720 LINE",
"447 189 LINE SMOOTH",
"447 156 OFFCURVE",
"447 156 OFFCURVE",
"414 156 QCURVE SMOOTH",
"3 156 LINE",
"3 0 LINE"
);
}
);
width = 645;
}
);
},
{
color = 5;
glyphname = K.alt;
layers = (
{
layerId = "17A5F7C0-AED1-4270-89BA-BFDC1003B8A5";
paths = (
{
closed = 1;
nodes = (
"135 0 LINE",
"135 278 LINE SMOOTH",
"135 293 OFFCURVE",
"158 316 OFFCURVE",
"174 316 QCURVE SMOOTH",
"654 316 LINE SMOOTH",
"670 316 OFFCURVE",
"693 293 OFFCURVE",
"693 278 QCURVE SMOOTH",
"693 0 LINE",
"774 0 LINE",
"774 257 LINE SMOOTH",
"774 298 OFFCURVE",
"738 347 OFFCURVE",
"686 357 QCURVE",
"739 367 OFFCURVE",
"775 415 OFFCURVE",
"775 457 QCURVE SMOOTH",
"775 720 LINE",
"694 720 LINE",
"694 436 LINE SMOOTH",
"694 420 OFFCURVE",
"671 398 OFFCURVE",
"655 398 QCURVE SMOOTH",
"174 398 LINE SMOOTH",
"158 398 OFFCURVE",
"135 420 OFFCURVE",
"135 436 QCURVE SMOOTH",
"135 720 LINE",
"54 720 LINE",
"54 0 LINE"
);
}
);
width = 829;
},
{
layerId = "D465923C-ABAE-4975-85A4-08C1BC9DA335";
paths = (
{
closed = 1;
nodes = (
"209 0 LINE",
"209 246 LINE SMOOTH",
"209 279 OFFCURVE",
"209 279 OFFCURVE",
"242 279 QCURVE SMOOTH",
"584 279 LINE SMOOTH",
"617 279 OFFCURVE",
"617 279 OFFCURVE",
"617 246 QCURVE SMOOTH",
"617 0 LINE",
"774 0 LINE",
"774 269 LINE SMOOTH",
"774 294 OFFCURVE",
"744 341 OFFCURVE",
"717 357 QCURVE",
"744 373 OFFCURVE",
"775 421 OFFCURVE",
"775 445 QCURVE SMOOTH",
"775 720 LINE",
"618 720 LINE",
"618 468 LINE SMOOTH",
"618 435 OFFCURVE",
"618 435 OFFCURVE",
"585 435 QCURVE SMOOTH",
"242 435 LINE SMOOTH",
"209 435 OFFCURVE",
"209 435 OFFCURVE",
"209 468 QCURVE SMOOTH",
"209 720 LINE",
"54 720 LINE",
"54 0 LINE"
);
}
);
width = 829;
}
);
},
{
color = 5;
glyphname = M.alt;
layers = (
{
layerId = "17A5F7C0-AED1-4270-89BA-BFDC1003B8A5";
paths = (
{
closed = 1;
nodes = (
"136 0 LINE",
"136 639 LINE",
"494 639 LINE SMOOTH",
"509.672 639 OFFCURVE",
"532 615.672 OFFCURVE",
"532 600 QCURVE SMOOTH",
"532 0 LINE",
"614 0 LINE",
"614 639 LINE",
"997 639 LINE SMOOTH",
"1012.672 639 OFFCURVE",
"1035 615.672 OFFCURVE",
"1035 600 QCURVE SMOOTH",
"1035 0 LINE",
"1117 0 LINE",
"1117 600 LINE SMOOTH",
"1117 650 OFFCURVE",
"1046.254 720 OFFCURVE",
"997 720 QCURVE SMOOTH",
"54 720 LINE",
"54 0 LINE"
);
}
);
width = 1155;
},
{
layerId = "D465923C-ABAE-4975-85A4-08C1BC9DA335";
paths = (
{
closed = 1;
nodes = (
"209 0 LINE",
"209 564 LINE",
"443 564 LINE SMOOTH",
"476 564 OFFCURVE",
"476 564 OFFCURVE",
"476 531 QCURVE SMOOTH",
"476 0 LINE",
"632 0 LINE",
"632 564 LINE",
"887 564 LINE SMOOTH",
"920 564 OFFCURVE",
"920 564 OFFCURVE",
"920 531 QCURVE SMOOTH",
"920 0 LINE",
"1076 0 LINE",
"1076 572 LINE SMOOTH",
"1076 633.194 OFFCURVE",
"988.701 720 OFFCURVE",
"929 720 QCURVE SMOOTH",
"54 720 LINE",
"54 0 LINE"
);
}
);
width = 1155;
}
);
},
{
color = 5;
glyphname = N.alt;
layers = (
{
layerId = "17A5F7C0-AED1-4270-89BA-BFDC1003B8A5";
paths = (
{
closed = 1;
nodes = (
"135 0 LINE",
"135 639 LINE",
"654 639 LINE SMOOTH",
"669.672 639 OFFCURVE",
"693 615.672 OFFCURVE",
"693 600 QCURVE SMOOTH",
"693 0 LINE",
"774 0 LINE",
"774 600 LINE SMOOTH",
"774 650 OFFCURVE",
"704 720 OFFCURVE",
"654 720 QCURVE SMOOTH",
"54 720 LINE",
"54 0 LINE"
);
}
);
width = 827;
},
{
layerId = "D465923C-ABAE-4975-85A4-08C1BC9DA335";
paths = (
{
closed = 1;
nodes = (
"209 0 LINE",
"209 564 LINE",
"584 564 LINE SMOOTH",
"617 564 OFFCURVE",
"617 564 OFFCURVE",
"617 531 QCURVE SMOOTH",
"617 0 LINE",
"774 0 LINE",
"774 572 LINE SMOOTH",
"774 633.194 OFFCURVE",
"686.448 720 OFFCURVE",
"626 720 QCURVE SMOOTH",
"54 720 LINE",
"54 0 LINE"
);
}
);
width = 827;
}
);
},
{
color = 5;
glyphname = O.alt;
layers = (
{
layerId = "17A5F7C0-AED1-4270-89BA-BFDC1003B8A5";
paths = (
{
closed = 1;
nodes = (
"652 0 LINE SMOOTH",
"702 0 OFFCURVE",
"772 70 OFFCURVE",
"772 120 QCURVE SMOOTH",
"772 600 LINE SMOOTH",
"772 650 OFFCURVE",
"702 720 OFFCURVE",
"652 720 QCURVE SMOOTH",
"172 720 LINE SMOOTH",
"122 720 OFFCURVE",
"52 650 OFFCURVE",
"52 600 QCURVE SMOOTH",
"52 120 LINE SMOOTH",
"52 70 OFFCURVE",
"122 0 OFFCURVE",
"172 0 QCURVE SMOOTH"
);
},
{
closed = 1;
nodes = (
"156.328 81 OFFCURVE",
"133 104.328 OFFCURVE",
"133 120 QCURVE SMOOTH",
"133 600 LINE SMOOTH",
"133 615.672 OFFCURVE",
"156.328 639 OFFCURVE",
"172 639 QCURVE SMOOTH",
"652 639 LINE SMOOTH",
"667.672 639 OFFCURVE",
"691 615.672 OFFCURVE",
"691 600 QCURVE SMOOTH",
"691 120 LINE SMOOTH",
"691 104.328 OFFCURVE",
"667.672 81 OFFCURVE",
"652 81 QCURVE SMOOTH",
"172 81 LINE SMOOTH"
);
},
{
closed = 1;
nodes = (
"453 319 LINE",
"453 401 LINE",
"371 401 LINE",
"371 319 LINE"
);
}
);
width = 824;
},
{
layerId = "D465923C-ABAE-4975-85A4-08C1BC9DA335";
paths = (
{
closed = 1;
nodes = (
"624 0 LINE SMOOTH",
"684.448 0 OFFCURVE",
"772 86.806 OFFCURVE",
"772 148 QCURVE SMOOTH",
"772 572 LINE SMOOTH",
"772 633.194 OFFCURVE",
"684.448 720 OFFCURVE",
"624 720 QCURVE SMOOTH",
"200 720 LINE SMOOTH",
"138.806 720 OFFCURVE",
"52 633.194 OFFCURVE",
"52 572 QCURVE SMOOTH",
"52 148 LINE SMOOTH",
"52 86.806 OFFCURVE",
"138.806 0 OFFCURVE",
"200 0 QCURVE SMOOTH"
);
},
{
closed = 1;
nodes = (
"207 156 OFFCURVE",
"207 156 OFFCURVE",
"207 189 QCURVE SMOOTH",
"207 531 LINE SMOOTH",
"207 564 OFFCURVE",
"207 564 OFFCURVE",
"240 564 QCURVE SMOOTH",
"582 564 LINE SMOOTH",
"615 564 OFFCURVE",
"615 564 OFFCURVE",
"615 531 QCURVE SMOOTH",
"615 189 LINE SMOOTH",
"615 156 OFFCURVE",
"615 156 OFFCURVE",
"582 156 QCURVE SMOOTH",
"240 156 LINE SMOOTH"
);
},
{
closed = 1;
nodes = (
"490 282 LINE",
"490 438 LINE",
"334 438 LINE",
"334 282 LINE"
);
}
);
width = 824;
}
);
},
{
color = 5;
glyphname = Q.alt;
layers = (
{
layerId = "17A5F7C0-AED1-4270-89BA-BFDC1003B8A5";
paths = (
{
closed = 1;
nodes = (
"455 -113 LINE",
"455 0 LINE",
"654 0 LINE SMOOTH",
"704 0 OFFCURVE",
"774 70 OFFCURVE",
"774 120 QCURVE SMOOTH",
"774 600 LINE SMOOTH",
"774 650 OFFCURVE",
"704 720 OFFCURVE",
"654 720 QCURVE SMOOTH",
"174 720 LINE SMOOTH",
"124 720 OFFCURVE",
"54 650 OFFCURVE",
"54 600 QCURVE SMOOTH",
"54 120 LINE SMOOTH",
"54 70 OFFCURVE",
"124 0 OFFCURVE",
"174 0 QCURVE SMOOTH",
"373 0 LINE",
"373 -113 LINE"
);
},
{
closed = 1;
nodes = (
"158.328 81 OFFCURVE",
"135 104.328 OFFCURVE",
"135 120 QCURVE SMOOTH",
"135 600 LINE SMOOTH",
"135 615.672 OFFCURVE",
"158.328 639 OFFCURVE",
"174 639 QCURVE SMOOTH",
"654 639 LINE SMOOTH",
"669.672 639 OFFCURVE",
"693 615.672 OFFCURVE",
"693 600 QCURVE SMOOTH",
"693 120 LINE SMOOTH",
"693 104.328 OFFCURVE",
"669.672 81 OFFCURVE",
"654 81 QCURVE SMOOTH",
"174 81 LINE SMOOTH"
);
}
);
width = 868;
},
{
layerId = "D465923C-ABAE-4975-85A4-08C1BC9DA335";
paths = (
{
closed = 1;
nodes = (
"492 -120 LINE",
"492 0 LINE",
"626 0 LINE SMOOTH",
"686.448 0 OFFCURVE",
"774 86.806 OFFCURVE",
"774 148 QCURVE SMOOTH",
"774 572 LINE SMOOTH",
"774 633.194 OFFCURVE",
"686.448 720 OFFCURVE",
"626 720 QCURVE SMOOTH",
"202 720 LINE SMOOTH",
"140.806 720 OFFCURVE",
"54 633.194 OFFCURVE",
"54 572 QCURVE SMOOTH",
"54 148 LINE SMOOTH",
"54 86.806 OFFCURVE",
"140.806 0 OFFCURVE",
"202 0 QCURVE SMOOTH",
"335 0 LINE",
"335 -120 LINE"
);
},
{
closed = 1;
nodes = (
"209 156 OFFCURVE",
"209 156 OFFCURVE",
"209 189 QCURVE SMOOTH",
"209 531 LINE SMOOTH",
"209 564 OFFCURVE",
"209 564 OFFCURVE",
"242 564 QCURVE SMOOTH",
"584 564 LINE SMOOTH",
"617 564 OFFCURVE",
"617 564 OFFCURVE",
"617 531 QCURVE SMOOTH",
"617 189 LINE SMOOTH",
"617 156 OFFCURVE",
"617 156 OFFCURVE",
"584 156 QCURVE SMOOTH",
"242 156 LINE SMOOTH"
);
}
);
width = 868;
}
);
},
{
color = 5;
glyphname = R.alt;
layers = (
{
layerId = "17A5F7C0-AED1-4270-89BA-BFDC1003B8A5";
paths = (
{
closed = 1;
nodes = (
"135 0 LINE",
"135 230 LINE SMOOTH",
"135 244.925 OFFCURVE",
"158.328 268 OFFCURVE",
"174 268 QCURVE SMOOTH",
"654 268 LINE SMOOTH",
"669.672 268 OFFCURVE",
"693 244.925 OFFCURVE",
"693 230 QCURVE SMOOTH",
"693 0 LINE",
"774 0 LINE",
"774 230 LINE SMOOTH",
"774 272.537 OFFCURVE",
"688.642 309 OFFCURVE",
"667 309 QCURVE",
"687.896 309 OFFCURVE",
"774 345.463 OFFCURVE",
"774 388 QCURVE SMOOTH",
"774 599 LINE SMOOTH",
"774 648.254 OFFCURVE",
"704 719 OFFCURVE",
"654 719 QCURVE SMOOTH",
"54 720 LINE",
"54 0 LINE"
);
},
{
closed = 1;
nodes = (
"158.328 350 OFFCURVE",
"135 372.328 OFFCURVE",
"135 388 QCURVE SMOOTH",
"135 599 LINE SMOOTH",
"135 614.672 OFFCURVE",
"158.328 638 OFFCURVE",
"174 638 QCURVE SMOOTH",
"654 638 LINE SMOOTH",
"669.672 638 OFFCURVE",
"693 614.672 OFFCURVE",
"693 599 QCURVE SMOOTH",
"693 388 LINE SMOOTH",
"693 372.328 OFFCURVE",
"669.672 350 OFFCURVE",
"654 350 QCURVE SMOOTH",
"174 350 LINE SMOOTH"
);
}
);
width = 826;
},
{
layerId = "D465923C-ABAE-4975-85A4-08C1BC9DA335";
paths = (
{
closed = 1;
nodes = (
"209 0 LINE",
"209 204 LINE SMOOTH",
"209 237 OFFCURVE",
"209 237 OFFCURVE",
"242 237 QCURVE SMOOTH",
"584 237 LINE SMOOTH",
"617 237 OFFCURVE",
"617 237 OFFCURVE",
"617 204 QCURVE SMOOTH",
"617 0 LINE",
"774 0 LINE",
"774 245 LINE SMOOTH",
"774 269.627 OFFCURVE",
"755.672 303.806 OFFCURVE",
"740 315 QCURVE",
"754.925 326.194 OFFCURVE",
"774 361.119 OFFCURVE",
"774 385 QCURVE SMOOTH",
"774 571 LINE SMOOTH",
"774 631.448 OFFCURVE",
"686.448 720 OFFCURVE",
"626 720 QCURVE SMOOTH",
"54 721 LINE",
"54 0 LINE"
);
},
{
closed = 1;
nodes = (
"209 393 OFFCURVE",
"209 393 OFFCURVE",
"209 426 QCURVE SMOOTH",
"209 531 LINE SMOOTH",
"209 564 OFFCURVE",
"209 564 OFFCURVE",
"242 564 QCURVE SMOOTH",
"584 564 LINE SMOOTH",
"617 564 OFFCURVE",
"617 564 OFFCURVE",
"617 531 QCURVE SMOOTH",
"617 426 LINE SMOOTH",
"617 393 OFFCURVE",
"617 393 OFFCURVE",
"584 393 QCURVE SMOOTH",
"242 393 LINE SMOOTH"
);
}
);
width = 826;
}
);
},
{
color = 5;
glyphname = S.alt;
layers = (
{
layerId = "17A5F7C0-AED1-4270-89BA-BFDC1003B8A5";
paths = (
{
closed = 1;
nodes = (
"646 0 LINE SMOOTH",
"696 0 OFFCURVE",
"766 70 OFFCURVE",
"766 120 QCURVE SMOOTH",
"766 281 LINE SMOOTH",
"766 330.254 OFFCURVE",
"696 401 OFFCURVE",
"646 401 QCURVE SMOOTH",
"166 401 LINE SMOOTH",
"150.328 401 OFFCURVE",
"127 423.328 OFFCURVE",
"127 439 QCURVE SMOOTH",
"127 600 LINE SMOOTH",
"127 615.672 OFFCURVE",
"150.328 639 OFFCURVE",
"166 639 QCURVE SMOOTH",
"766 639 LINE",
"766 720 LINE",
"166 720 LINE SMOOTH",
"116 720 OFFCURVE",
"46 650 OFFCURVE",
"46 600 QCURVE SMOOTH",
"46 439 LINE SMOOTH",
"46 389.746 OFFCURVE",
"116 319 OFFCURVE",
"166 319 QCURVE SMOOTH",
"646 319 LINE SMOOTH",
"661.672 319 OFFCURVE",
"684 296.672 OFFCURVE",
"684 281 QCURVE SMOOTH",
"684 120 LINE SMOOTH",
"684 104.328 OFFCURVE",
"661.672 81 OFFCURVE",
"646 81 QCURVE SMOOTH",
"46 81 LINE",
"46 0 LINE"
);
}
);
width = 812;
},
{
layerId = "D465923C-ABAE-4975-85A4-08C1BC9DA335";
paths = (
{
closed = 1;
nodes = (
"618 0 LINE SMOOTH",
"678.448 0 OFFCURVE",
"766 86.806 OFFCURVE",
"766 148 QCURVE SMOOTH",
"766 290 LINE SMOOTH",
"766 351.194 OFFCURVE",
"678.448 438 OFFCURVE",
"618 438 QCURVE SMOOTH",
"235 438 LINE SMOOTH",
"202 438 OFFCURVE",
"202 438 OFFCURVE",
"202 471 QCURVE SMOOTH",
"202 531 LINE SMOOTH",
"202 564 OFFCURVE",
"202 564 OFFCURVE",
"235 564 QCURVE SMOOTH",
"766 564 LINE",
"766 720 LINE",
"194 720 LINE SMOOTH",
"132.806 720 OFFCURVE",
"46 633.194 OFFCURVE",
"46 572 QCURVE SMOOTH",
"46 430 LINE SMOOTH",
"46 368.806 OFFCURVE",
"132.806 282 OFFCURVE",
"194 282 QCURVE SMOOTH",
"577 282 LINE SMOOTH",
"610 282 OFFCURVE",
"610 282 OFFCURVE",
"610 249 QCURVE SMOOTH",
"610 189 LINE SMOOTH",
"610 156 OFFCURVE",
"610 156 OFFCURVE",
"577 156 QCURVE SMOOTH",
"46 156 LINE",
"46 0 LINE"
);
}
);
width = 812;
}
);
},
{
color = 5;
glyphname = V.alt;
layers = (
{
layerId = "17A5F7C0-AED1-4270-89BA-BFDC1003B8A5";
paths = (
{
closed = 1;
nodes = (
"166 0 LINE",
"777 719 LINE",
"777 720 LINE",
"670 720 LINE",
"137 93 LINE",
"137 721 LINE",
"54 721 LINE",
"54 0 LINE"
);
}
);
width = 774;
},
{
layerId = "D465923C-ABAE-4975-85A4-08C1BC9DA335";
paths = (
{
closed = 1;
nodes = (
"211 0 LINE",
"761 656 LINE",
"761 720 LINE",
"605 720 LINE",
"207 234 LINE",
"207 720 LINE",
"54 720 LINE",
"54 0 LINE"
);
}
);
width = 774;
}
);
},
{
color = 5;
glyphname = W.alt;
layers = (
{
layerId = "17A5F7C0-AED1-4270-89BA-BFDC1003B8A5";
paths = (
{
closed = 1;
nodes = (
"161 0 LINE",
"449 343 LINE",
"449 0 LINE",
"561 0 LINE",
"1171 719 LINE",
"1171 720 LINE",
"1065 720 LINE",
"531 93 LINE",
"531 442 LINE",
"770 719 LINE",
"770 720 LINE",
"665 720 LINE",
"131 93 LINE",
"131 720 LINE",
"49 720 LINE",
"49 0 LINE"
);
}
);
width = 1171;
},
{
layerId = "D465923C-ABAE-4975-85A4-08C1BC9DA335";
paths = (
{
closed = 1;
nodes = (
"240 0 LINE",
"429 225 LINE",
"429 0 LINE",
"588 0 LINE",
"1149 668 LINE",
"1149 720 LINE",
"988 720 LINE",
"585 237 LINE",
"585 413 LINE",
"800 667 LINE",
"800 720 LINE",
"640 720 LINE",
"236 237 LINE",
"236 720 LINE",
"80 720 LINE",
"80 0 LINE"
);
}
);
width = 1149;
}
);
},
{
color = 5;
glyphname = X.alt;
layers = (
{
layerId = "17A5F7C0-AED1-4270-89BA-BFDC1003B8A5";
paths = (
{
closed = 1;
nodes = (
"136 0 LINE",
"136 278 LINE SMOOTH",
"136 292.925 OFFCURVE",
"159.328 316 OFFCURVE",
"175 316 QCURVE SMOOTH",
"654 316 LINE SMOOTH",
"669.672 316 OFFCURVE",
"693 292.925 OFFCURVE",
"693 278 QCURVE SMOOTH",
"693 0 LINE",
"774 0 LINE",
"774 257 LINE SMOOTH",
"774 295.06 OFFCURVE",
"689.731 357 OFFCURVE",
"636 357 QCURVE",
"689.731 357 OFFCURVE",
"775 418.94 OFFCURVE",
"775 457 QCURVE SMOOTH",
"775 720 LINE",
"694 720 LINE",
"694 436 LINE SMOOTH",
"694 420.328 OFFCURVE",
"670.672 398 OFFCURVE",
"655 398 QCURVE SMOOTH",
"174 398 LINE SMOOTH",
"158.328 398 OFFCURVE",
"135 420.328 OFFCURVE",
"135 436 QCURVE SMOOTH",
"135 720 LINE",
"54 720 LINE",
"54 457 LINE SMOOTH",
"54 418.94 OFFCURVE",
"138.522 357 OFFCURVE",
"193 357 QCURVE",
"138.522 357 OFFCURVE",
"55 295.06 OFFCURVE",
"55 257 QCURVE SMOOTH",
"55 0 LINE"
);
}
);
width = 829;
},
{
layerId = "D465923C-ABAE-4975-85A4-08C1BC9DA335";
paths = (
{
closed = 1;
nodes = (
"210 0 LINE",
"210 246 LINE SMOOTH",
"210 279 OFFCURVE",
"210 279 OFFCURVE",
"243 279 QCURVE SMOOTH",
"584 279 LINE SMOOTH",
"617 279 OFFCURVE",
"617 279 OFFCURVE",
"617 246 QCURVE SMOOTH",
"617 0 LINE",
"774 0 LINE",
"774 269 LINE SMOOTH",
"774 297.358 OFFCURVE",
"745.866 342.075 OFFCURVE",
"719 357 QCURVE",
"744.373 371.925 OFFCURVE",
"775 417.388 OFFCURVE",
"775 445 QCURVE SMOOTH",
"775 720 LINE",
"618 720 LINE",
"618 468 LINE SMOOTH",
"618 435 OFFCURVE",
"618 435 OFFCURVE",
"585 435 QCURVE SMOOTH",
"242 435 LINE SMOOTH",
"209 435 OFFCURVE",
"209 435 OFFCURVE",
"209 468 QCURVE SMOOTH",
"209 720 LINE",
"54 720 LINE",
"54 445 LINE SMOOTH",
"54 419.627 OFFCURVE",
"87.358 371.925 OFFCURVE",
"109 357 QCURVE",
"85.119 342.075 OFFCURVE",
"55 295.866 OFFCURVE",
"55 269 QCURVE SMOOTH",
"55 0 LINE"
);
}
);
width = 829;
}
);
},
{
color = 5;
glyphname = Y.alt;
layers = (
{
layerId = "17A5F7C0-AED1-4270-89BA-BFDC1003B8A5";
paths = (
{
closed = 1;
nodes = (
"651 0 LINE SMOOTH",
"701 0 OFFCURVE",
"771 70 OFFCURVE",
"771 120 QCURVE SMOOTH",
"771 720 LINE",
"690 720 LINE",
"690 401 LINE",
"171 401 LINE SMOOTH",
"155.328 401 OFFCURVE",
"132 423.328 OFFCURVE",
"132 439 QCURVE SMOOTH",
"132 720 LINE",
"51 720 LINE",
"51 439 LINE SMOOTH",
"51 389.746 OFFCURVE",
"121 319 OFFCURVE",
"171 319 QCURVE SMOOTH",
"651 319 LINE SMOOTH",
"666.672 319 OFFCURVE",
"690 296.672 OFFCURVE",
"690 281 QCURVE SMOOTH",
"690 120 LINE SMOOTH",
"690 104.328 OFFCURVE",
"666.672 81 OFFCURVE",
"651 81 QCURVE SMOOTH",
"51 81 LINE",
"51 0 LINE"
);
}
);
width = 824;
},
{
layerId = "D465923C-ABAE-4975-85A4-08C1BC9DA335";
paths = (
{
closed = 1;
nodes = (
"623 0 LINE SMOOTH",
"683.448 0 OFFCURVE",
"771 86.806 OFFCURVE",
"771 148 QCURVE SMOOTH",
"771 720 LINE",
"614 720 LINE",
"614 438 LINE",
"239 438 LINE SMOOTH",
"206 438 OFFCURVE",
"206 438 OFFCURVE",
"206 471 QCURVE SMOOTH",
"206 720 LINE",
"51 720 LINE",
"51 430 LINE SMOOTH",
"51 368.806 OFFCURVE",
"137.806 282 OFFCURVE",
"199 282 QCURVE SMOOTH",
"581 282 LINE SMOOTH",
"614 282 OFFCURVE",
"614 282 OFFCURVE",
"614 249 QCURVE SMOOTH",
"614 189 LINE SMOOTH",
"614 156 OFFCURVE",
"614 156 OFFCURVE",
"581 156 QCURVE SMOOTH",
"51 156 LINE",
"51 0 LINE"
);
}
);
width = 824;
}
);
},
{
color = 5;
glyphname = Z.alt;
layers = (
{
layerId = "17A5F7C0-AED1-4270-89BA-BFDC1003B8A5";
paths = (
{
closed = 1;
nodes = (
"769 0 LINE",
"769 81 LINE",
"169 81 LINE SMOOTH",
"153.328 81 OFFCURVE",
"130 104.328 OFFCURVE",
"130 120 QCURVE SMOOTH",
"130 281 LINE SMOOTH",
"130 296.672 OFFCURVE",
"153.328 319 OFFCURVE",
"169 319 QCURVE SMOOTH",
"649 319 LINE SMOOTH",
"699 319 OFFCURVE",
"769 389.746 OFFCURVE",
"769 439 QCURVE SMOOTH",
"769 600 LINE SMOOTH",
"769 650 OFFCURVE",
"699 720 OFFCURVE",
"649 720 QCURVE SMOOTH",
"49 720 LINE",
"49 639 LINE",
"649 639 LINE SMOOTH",
"664.672 639 OFFCURVE",
"687 615.672 OFFCURVE",
"687 600 QCURVE SMOOTH",
"687 439 LINE SMOOTH",
"687 423.328 OFFCURVE",
"664.672 401 OFFCURVE",
"649 401 QCURVE SMOOTH",
"169 401 LINE SMOOTH",
"119 401 OFFCURVE",
"49 330.254 OFFCURVE",
"49 281 QCURVE SMOOTH",
"49 120 LINE SMOOTH",
"49 70 OFFCURVE",
"119 0 OFFCURVE",
"169 0 QCURVE SMOOTH"
);
}
);
width = 818;
},
{
layerId = "D465923C-ABAE-4975-85A4-08C1BC9DA335";
paths = (
{
closed = 1;
nodes = (
"769 0 LINE",
"769 156 LINE",
"237 156 LINE SMOOTH",
"204 156 OFFCURVE",
"204 156 OFFCURVE",
"204 189 QCURVE SMOOTH",
"204 249 LINE SMOOTH",
"204 282 OFFCURVE",
"204 282 OFFCURVE",
"237 282 QCURVE SMOOTH",
"621 282 LINE SMOOTH",
"681.448 282 OFFCURVE",
"769 368.806 OFFCURVE",
"769 430 QCURVE SMOOTH",
"769 572 LINE SMOOTH",
"769 633.194 OFFCURVE",
"681.448 720 OFFCURVE",
"621 720 QCURVE SMOOTH",
"49 720 LINE",
"49 564 LINE",
"579 564 LINE SMOOTH",
"612 564 OFFCURVE",
"612 564 OFFCURVE",
"612 531 QCURVE SMOOTH",
"612 471 LINE SMOOTH",
"612 438 OFFCURVE",
"612 438 OFFCURVE",
"579 438 QCURVE SMOOTH",
"197 438 LINE SMOOTH",
"135.806 438 OFFCURVE",
"49 351.194 OFFCURVE",
"49 290 QCURVE SMOOTH",
"49 148 LINE SMOOTH",
"49 86.806 OFFCURVE",
"135.806 0 OFFCURVE",
"197 0 QCURVE SMOOTH"
);
}
);
width = 818;
}
);
},
{
color = 5;
glyphname = A.alt2;
layers = (
{
layerId = "17A5F7C0-AED1-4270-89BA-BFDC1003B8A5";
paths = (
{
closed = 1;
nodes = (
"137 0 LINE",
"137 202 LINE",
"499 202 LINE",
"670 0 LINE",
"778 0 LINE",
"778 1 LINE",
"166 721 LINE",
"54 721 LINE",
"54 0 LINE"
);
},
{
closed = 1;
nodes = (
"137 629 LINE",
"432 285 LINE",
"137 285 LINE"
);
}
);
width = 774;
},
{
layerId = "D465923C-ABAE-4975-85A4-08C1BC9DA335";
paths = (
{
closed = 1;
nodes = (
"207 0 LINE",
"207 174 LINE",
"457 174 LINE",
"604 0 LINE",
"761 0 LINE",
"761 50 LINE",
"211 720 LINE",
"54 720 LINE",
"54 0 LINE"
);
},
{
closed = 1;
nodes = (
"207 471 LINE",
"329 327 LINE",
"207 327 LINE"
);
}
);
width = 774;
}
);
},
{
color = 5;
glyphname = V.alt2;
layers = (
{
layerId = "17A5F7C0-AED1-4270-89BA-BFDC1003B8A5";
paths = (
{
closed = 1;
nodes = (
"716 0 LINE",
"716 720 LINE",
"635 720 LINE",
"635 92 LINE",
"107 720 LINE",
"0 720 LINE",
"0 719 LINE",
"605 0 LINE"
);
}
);
width = 774;
},
{
layerId = "D465923C-ABAE-4975-85A4-08C1BC9DA335";
paths = (
{
closed = 1;
nodes = (
"720 0 LINE",
"720 720 LINE",
"563 720 LINE",
"563 240 LINE",
"160 720 LINE",
"0 720 LINE",
"0 668 LINE",
"561 0 LINE"
);
}
);
width = 774;
}
);
},
{
color = 5;
glyphname = W.alt2;
layers = (
{
layerId = "17A5F7C0-AED1-4270-89BA-BFDC1003B8A5";
paths = (
{
closed = 1;
nodes = (
"724 0 LINE",
"724 343 LINE",
"1012 0 LINE",
"1123 0 LINE",
"1123 720 LINE",
"1041 720 LINE",
"1041 93 LINE",
"507 720 LINE",
"401 720 LINE",
"401 719 LINE",
"641 442 LINE",
"641 93 LINE",
"108 720 LINE",
"0 720 LINE",
"0 719 LINE",
"612 0 LINE"
);
}
);
width = 1168;
},
{
layerId = "D465923C-ABAE-4975-85A4-08C1BC9DA335";
paths = (
{
closed = 1;
nodes = (
"719 0 LINE",
"719 225 LINE",
"909 0 LINE",
"1068 0 LINE",
"1068 720 LINE",
"912 720 LINE",
"912 238 LINE",
"507 720 LINE",
"348 720 LINE",
"348 667 LINE",
"563 413 LINE",
"563 240 LINE",
"159 720 LINE",
"-1 720 LINE",
"-1 668 LINE",
"560 0 LINE"
);
}
);
width = 1131;
}
);
},
{
color = 5;
glyphname = A.alt3;
layers = (
{
layerId = "17A5F7C0-AED1-4270-89BA-BFDC1003B8A5";
paths = (
{
closed = 1;
nodes = (
"67 0 LINE",
"173 183 LINE",
"637 183 LINE",
"742 0 LINE",
"837 0 LINE",
"452 720 LINE",
"358 720 LINE",
"-28 0 LINE"
);
},
{
closed = 1;
nodes = (
"405 644 LINE",
"588 264 LINE",
"220 264 LINE"
);
}
);
width = 827;
},
{
layerId = "D465923C-ABAE-4975-85A4-08C1BC9DA335";
paths = (
{
closed = 1;
nodes = (
"150 0 LINE",
"244 161 LINE",
"606 161 LINE",
"698 0 LINE",
"876 0 LINE",
"491 720 LINE",
"358 720 LINE",
"-28 0 LINE"
);
},
{
closed = 1;
nodes = (
"424 512 LINE",
"519 317 LINE",
"330 317 LINE"
);
}
);
width = 827;
}
);
},
{
color = 5;
glyphname = V.alt3;
layers = (
{
layerId = "17A5F7C0-AED1-4270-89BA-BFDC1003B8A5";
paths = (
{
closed = 1;
nodes = (
"773 0 LINE",
"773 720 LINE",
"692 720 LINE",
"692 81 LINE",
"173 81 LINE SMOOTH",
"157.328 81 OFFCURVE",
"134 104.328 OFFCURVE",
"134 120 QCURVE SMOOTH",
"134 720 LINE",
"53 720 LINE",
"53 120 LINE SMOOTH",
"53 70 OFFCURVE",
"123 0 OFFCURVE",
"173 0 QCURVE SMOOTH"
);
}
);
width = 827;
},
{
layerId = "D465923C-ABAE-4975-85A4-08C1BC9DA335";
paths = (
{
closed = 1;
nodes = (
"773 0 LINE",
"773 720 LINE",
"616 720 LINE",
"616 156 LINE",
"241 156 LINE SMOOTH",
"208 156 OFFCURVE",
"208 156 OFFCURVE",
"208 189 QCURVE SMOOTH",
"208 720 LINE",
"53 720 LINE",
"53 148 LINE SMOOTH",
"53 86.806 OFFCURVE",
"139.806 0 OFFCURVE",
"201 0 QCURVE SMOOTH"
);
}
);
width = 827;
}
);
},
{
color = 5;
glyphname = W.alt3;
layers = (
{
layerId = "17A5F7C0-AED1-4270-89BA-BFDC1003B8A5";
paths = (
{
closed = 1;
nodes = (
"164 0 LINE",
"518 421 LINE",
"872 0 LINE",
"983 0 LINE",
"983 720 LINE",
"901 720 LINE",
"901 92 LINE",
"518 549 LINE",
"135 92 LINE",
"135 720 LINE",
"54 720 LINE",
"54 0 LINE"
);
}
);
width = 1028;
},
{
layerId = "D465923C-ABAE-4975-85A4-08C1BC9DA335";
paths = (
{
closed = 1;
nodes = (
"213 0 LINE",
"506 349 LINE",
"799 0 LINE",
"958 0 LINE",
"958 720 LINE",
"802 720 LINE",
"802 240 LINE",
"507 591 LINE",
"209 239 LINE",
"209 720 LINE",
"54 720 LINE",
"54 0 LINE"
);
}
);
width = 1028;
}
);
},
{
color = 5;
glyphname = W.alt4;
layers = (
{
layerId = "17A5F7C0-AED1-4270-89BA-BFDC1003B8A5";
paths = (
{
closed = 1;
nodes = (
"1116 0 LINE",
"1116 720 LINE",
"1034 720 LINE",
"1034 81 LINE",
"676 81 LINE SMOOTH",
"660.328 81 OFFCURVE",
"638 104.328 OFFCURVE",
"638 120 QCURVE SMOOTH",
"638 720 LINE",
"556 720 LINE",
"556 81 LINE",
"173 81 LINE SMOOTH",
"158.075 81 OFFCURVE",
"135 104.328 OFFCURVE",
"135 120 QCURVE SMOOTH",
"135 720 LINE",
"53 720 LINE",
"53 120 LINE SMOOTH",
"53 70 OFFCURVE",
"123.746 0 OFFCURVE",
"173 0 QCURVE SMOOTH"
);
}
);
width = 1155;
},
{
layerId = "D465923C-ABAE-4975-85A4-08C1BC9DA335";
paths = (
{
closed = 1;
nodes = (
"1075 0 LINE",
"1075 720 LINE",
"919 720 LINE",
"919 156 LINE",
"686 156 LINE SMOOTH",
"653 156 OFFCURVE",
"653 156 OFFCURVE",
"653 189 QCURVE SMOOTH",
"653 720 LINE",
"497 720 LINE",
"497 156 LINE",
"241 156 LINE SMOOTH",
"208 156 OFFCURVE",
"208 156 OFFCURVE",
"208 189 QCURVE SMOOTH",
"208 720 LINE",
"53 720 LINE",
"53 148 LINE SMOOTH",
"53 86.806 OFFCURVE",
"139.806 0 OFFCURVE",
"201 0 QCURVE SMOOTH"
);
}
);
width = 1155;
}
);
},
{
color = 7;
export = 0;
glyphname = Eth;
layers = (
{
layerId = "17A5F7C0-AED1-4270-89BA-BFDC1003B8A5";
paths = (
{
closed = 1;
nodes = (
"658 0 LINE SMOOTH",
"708 0 OFFCURVE",
"778 70 OFFCURVE",
"778 120 QCURVE SMOOTH",
"778 600 LINE SMOOTH",
"778 650 OFFCURVE",
"708 720 OFFCURVE",
"658 720 QCURVE SMOOTH",
"58 720 LINE",
"58 400 LINE",
"0 400 LINE",
"0 320 LINE",
"58 320 LINE",
"58 0 LINE"
);
},
{
closed = 1;
nodes = (
"162 81 OFFCURVE",
"139 104 OFFCURVE",
"139 120 QCURVE SMOOTH",
"139 320 LINE",
"239 320 LINE",
"239 400 LINE",
"139 400 LINE",
"139 600 LINE SMOOTH",
"139 616 OFFCURVE",
"162 639 OFFCURVE",
"178 639 QCURVE SMOOTH",
"658 639 LINE SMOOTH",
"674 639 OFFCURVE",
"697 616 OFFCURVE",
"697 600 QCURVE SMOOTH",
"697 120 LINE SMOOTH",
"697 104 OFFCURVE",
"674 81 OFFCURVE",
"658 81 QCURVE SMOOTH",
"178 81 LINE SMOOTH"
);
}
);
width = 834;
},
{
layerId = "D465923C-ABAE-4975-85A4-08C1BC9DA335";
paths = (
{
closed = 1;
nodes = (
"627 0 LINE SMOOTH",
"687 0 OFFCURVE",
"776 78 OFFCURVE",
"776 148 QCURVE SMOOTH",
"776 572 LINE SMOOTH",
"776 642 OFFCURVE",
"687 720 OFFCURVE",
"627 720 QCURVE SMOOTH",
"56 720 LINE",
"56 420 LINE",
"0 420 LINE",
"0 300 LINE",
"56 300 LINE",
"56 0 LINE"
);
},
{
closed = 1;
nodes = (
"211 156 OFFCURVE",
"211 156 OFFCURVE",
"211 189 QCURVE SMOOTH",
"211 300 LINE",
"320 300 LINE",
"320 420 LINE",
"211 420 LINE",
"211 531 LINE SMOOTH",
"211 564 OFFCURVE",
"211 564 OFFCURVE",
"244 564 QCURVE SMOOTH",
"586 564 LINE SMOOTH",
"619 564 OFFCURVE",
"619 564 OFFCURVE",
"619 531 QCURVE SMOOTH",
"619 189 LINE SMOOTH",
"619 156 OFFCURVE",
"619 156 OFFCURVE",
"586 156 QCURVE SMOOTH",
"244 156 LINE SMOOTH"
);
}
);
width = 834;
}
);
unicode = 00D0;
},
{
color = 7;
export = 0;
glyphname = Oslash;
layers = (
{
anchors = (
{
name = bottom;
position = "{414, 0}";
},
{
name = top;
position = "{414, 719}";
}
);
layerId = "17A5F7C0-AED1-4270-89BA-BFDC1003B8A5";
paths = (
{
closed = 1;
nodes = (
"50 -50 LINE",
"101 0 LINE",
"654 0 LINE SMOOTH",
"704 0 OFFCURVE",
"774 70 OFFCURVE",
"774 120 QCURVE SMOOTH",
"774 667 LINE",
"828 720 LINE",
"777 770 LINE",
"727 720 LINE",
"174 720 LINE SMOOTH",
"124 720 OFFCURVE",
"54 650 OFFCURVE",
"54 600 QCURVE SMOOTH",
"54 54 LINE",
"0 0 LINE"
);
},
{
closed = 1;
nodes = (
"135 600 LINE SMOOTH",
"135 616 OFFCURVE",
"158 639 OFFCURVE",
"174 639 QCURVE SMOOTH",
"645 639 LINE",
"135 134 LINE"
);
},
{
closed = 1;
nodes = (
"693 586 LINE",
"693 120 LINE SMOOTH",
"693 104 OFFCURVE",
"670 81 OFFCURVE",
"654 81 QCURVE SMOOTH",
"182 81 LINE"
);
}
);
width = 828;
},
{
anchors = (
{
name = bottom;
position = "{414, 0}";
},
{
name = top;
position = "{414, 720}";
}
);
layerId = "D465923C-ABAE-4975-85A4-08C1BC9DA335";
paths = (
{
closed = 1;
nodes = (
"70 -60 LINE",
"135 1 LINE",
"620 0 LINE SMOOTH",
"689 0 OFFCURVE",
"768 78 OFFCURVE",
"768 148 QCURVE SMOOTH",
"768 594 LINE",
"848 670 LINE",
"747 770 LINE",
"695 720 LINE",
"196 720 LINE SMOOTH",
"126 720 OFFCURVE",
"48 642 OFFCURVE",
"48 572 QCURVE SMOOTH",
"48 113 LINE",
"-30 40 LINE"
);
},
{
closed = 1;
nodes = (
"203 531 LINE SMOOTH",
"203 542 OFFCURVE",
"223 564 OFFCURVE",
"236 564 QCURVE",
"529 564 LINE",
"203 259 LINE"
);
},
{
closed = 1;
nodes = (
"611 447 LINE",
"611 189 LINE SMOOTH",
"611 175 OFFCURVE",
"588 156 OFFCURVE",
"578 156 QCURVE SMOOTH",
"301 156 LINE"
);
}
);
width = 828;
}
);
unicode = 00D8;
},
{
color = 7;
export = 0;
glyphname = Thorn;
layers = (
{
layerId = "17A5F7C0-AED1-4270-89BA-BFDC1003B8A5";
paths = (
{
closed = 1;
nodes = (
"138 0 LINE",
"139 140 LINE",
"658 140 LINE SMOOTH",
"708 140 OFFCURVE",
"778 210 OFFCURVE",
"778 260 QCURVE SMOOTH",
"778 460 LINE SMOOTH",
"778 510 OFFCURVE",
"708 580 OFFCURVE",
"658 580 QCURVE SMOOTH",
"139 580 LINE",
"139 720 LINE",
"58 720 LINE",
"58 0 LINE"
);
},
{
closed = 1;
nodes = (
"162 221 OFFCURVE",
"139 244 OFFCURVE",
"139 260 QCURVE SMOOTH",
"139 460 LINE SMOOTH",
"139 476 OFFCURVE",
"162 499 OFFCURVE",
"178 499 QCURVE SMOOTH",
"658 499 LINE SMOOTH",
"674 499 OFFCURVE",
"697 476 OFFCURVE",
"697 460 QCURVE SMOOTH",
"697 260 LINE SMOOTH",
"697 244 OFFCURVE",
"674 221 OFFCURVE",
"658 221 QCURVE SMOOTH",
"178 221 LINE SMOOTH"
);
}
);
width = 834;
},
{
layerId = "D465923C-ABAE-4975-85A4-08C1BC9DA335";
paths = (
{
closed = 1;
nodes = (
"213 0 LINE",
"213 130 LINE",
"629 130 LINE SMOOTH",
"690 130 OFFCURVE",
"778 217 OFFCURVE",
"778 278 QCURVE SMOOTH",
"778 432 LINE SMOOTH",
"778 493 OFFCURVE",
"690 580 OFFCURVE",
"629 580 QCURVE SMOOTH",
"213 580 LINE",
"213 720 LINE",
"58 720 LINE",
"58 0 LINE"
);
},
{
closed = 1;
nodes = (
"213 286 OFFCURVE",
"213 286 OFFCURVE",
"213 319 QCURVE SMOOTH",
"213 391 LINE SMOOTH",
"213 424 OFFCURVE",
"213 424 OFFCURVE",
"246 424 QCURVE SMOOTH",
"588 424 LINE SMOOTH",
"621 424 OFFCURVE",
"621 424 OFFCURVE",
"621 391 QCURVE SMOOTH",
"621 319 LINE SMOOTH",
"621 286 OFFCURVE",
"621 286 OFFCURVE",
"588 286 QCURVE SMOOTH",
"246 286 LINE SMOOTH"
);
}
);
width = 834;
}
);
unicode = 00DE;
},
{
color = 5;
glyphname = a;
layers = (
{
anchors = (
{
name = bottom;
position = "{334, 0}";
},
{
name = ogonek;
position = "{619, 0}";
},
{
name = top;
position = "{324, 580}";
}
);
layerId = "17A5F7C0-AED1-4270-89BA-BFDC1003B8A5";
paths = (
{
closed = 1;
nodes = (
"643 0 LINE",
"643 459 LINE SMOOTH",
"643 509 OFFCURVE",
"572 580 OFFCURVE",
"521 580 QCURVE SMOOTH",
"52 580 LINE",
"52 498 LINE",
"521 498 LINE SMOOTH",
"537 498 OFFCURVE",
"560 475 OFFCURVE",
"560 459 QCURVE SMOOTH",
"560 331 LINE",
"52 331 LINE",
"52 121 LINE SMOOTH",
"52 71 OFFCURVE",
"123 0 OFFCURVE",
"173 0 QCURVE SMOOTH"
);
},
{
closed = 1;
nodes = (
"157 82 OFFCURVE",
"134 105 OFFCURVE",
"134 121 QCURVE SMOOTH",
"134 249 LINE",
"560 249 LINE",
"560 82 LINE",
"173 82 LINE SMOOTH"
);
}
);
width = 694;
},
{
anchors = (
{
name = bottom;
position = "{364, 0}";
},
{
name = ogonek;
position = "{619, 0}";
},
{
name = top;
position = "{324, 580}";
}
);
layerId = "D465923C-ABAE-4975-85A4-08C1BC9DA335";
paths = (
{
closed = 1;
nodes = (
"640 0 LINE",
"640 435 LINE SMOOTH",
"640 494 OFFCURVE",
"555 580 OFFCURVE",
"495 580 QCURVE SMOOTH",
"52 580 LINE",
"52 427 LINE",
"454 427 LINE SMOOTH",
"487 427 OFFCURVE",
"487 427 OFFCURVE",
"487 394 QCURVE SMOOTH",
"487 367 LINE",
"52 367 LINE",
"52 145 LINE SMOOTH",
"52 86 OFFCURVE",
"137 0 OFFCURVE",
"197 0 QCURVE SMOOTH"
);
},
{
closed = 1;
nodes = (
"205 153 OFFCURVE",
"205 153 OFFCURVE",
"205 186 QCURVE SMOOTH",
"205 233 LINE",
"487 233 LINE",
"487 153 LINE",
"238 153 LINE SMOOTH"
);
}
);
width = 694;
}
);
unicode = 0061;
},
{
color = 5;
glyphname = ae;
layers = (
{
layerId = "17A5F7C0-AED1-4270-89BA-BFDC1003B8A5";
paths = (
{
closed = 1;
nodes = (
"1151 0 LINE",
"1151 82 LINE",
"682 82 LINE SMOOTH",
"667.075 82 OFFCURVE",
"644.493 102.075 OFFCURVE",
"643 117 QCURVE",
"643 249 LINE",
"1151 249 LINE",
"1151 459 LINE SMOOTH",
"1151 509 OFFCURVE",
"1080.746 580 OFFCURVE",
"1030 580 QCURVE SMOOTH",
"53 580 LINE",
"53 498 LINE",
"522 498 LINE SMOOTH",
"537.672 498 OFFCURVE",
"561 474.672 OFFCURVE",
"561 459 QCURVE SMOOTH",
"561 331 LINE",
"53 331 LINE",
"53 121 LINE SMOOTH",
"53 71 OFFCURVE",
"123.254 0 OFFCURVE",
"174 0 QCURVE SMOOTH"
);
},
{
closed = 1;
nodes = (
"158.328 82 OFFCURVE",
"135 105.328 OFFCURVE",
"135 121 QCURVE SMOOTH",
"135 249 LINE",
"561 249 LINE",
"561 82 LINE",
"174 82 LINE SMOOTH"
);
},
{
closed = 1;
nodes = (
"643 459 LINE SMOOTH",
"643 474.672 OFFCURVE",
"666.328 498 OFFCURVE",
"682 498 QCURVE SMOOTH",
"1030 498 LINE SMOOTH",
"1045.672 498 OFFCURVE",
"1069 474.672 OFFCURVE",
"1069 459 QCURVE SMOOTH",
"1069 331 LINE",
"643 331 LINE"
);
}
);
width = 1178;
},
{
layerId = "D465923C-ABAE-4975-85A4-08C1BC9DA335";
paths = (
{
closed = 1;
nodes = (
"1077 0 LINE",
"1077 153 LINE",
"675 153 LINE SMOOTH",
"642 153 OFFCURVE",
"642 153 OFFCURVE",
"642 186 QCURVE SMOOTH",
"642 213 LINE",
"1077 213 LINE",
"1077 435 LINE SMOOTH",
"1077 493.955 OFFCURVE",
"992.701 580 OFFCURVE",
"933 580 QCURVE SMOOTH",
"53 580 LINE",
"53 427 LINE",
"456 427 LINE SMOOTH",
"489 427 OFFCURVE",
"489 427 OFFCURVE",
"489 394 QCURVE SMOOTH",
"489 367 LINE",
"53 367 LINE",
"53 145 LINE SMOOTH",
"53 86.045 OFFCURVE",
"138.299 0 OFFCURVE",
"198 0 QCURVE SMOOTH"
);
},
{
closed = 1;
nodes = (
"206 153 OFFCURVE",
"206 153 OFFCURVE",
"206 186 QCURVE SMOOTH",
"206 233 LINE",
"489 233 LINE",
"489 153 LINE",
"239 153 LINE SMOOTH"
);
},
{
closed = 1;
nodes = (
"642 394 LINE SMOOTH",
"642 427 OFFCURVE",
"642 427 OFFCURVE",
"675 427 QCURVE SMOOTH",
"891 427 LINE SMOOTH",
"924 427 OFFCURVE",
"924 427 OFFCURVE",
"924 394 QCURVE SMOOTH",
"924 347 LINE",
"642 347 LINE"
);
}
);
width = 1178;
}
);
unicode = 00E6;
},
{
color = 5;
glyphname = b;
layers = (
{
layerId = "17A5F7C0-AED1-4270-89BA-BFDC1003B8A5";
paths = (
{
closed = 1;
nodes = (
"527 0 LINE SMOOTH",
"577 0 OFFCURVE",
"648 71 OFFCURVE",
"648 121 QCURVE SMOOTH",
"648 459 LINE SMOOTH",
"648 509 OFFCURVE",
"577 580 OFFCURVE",
"527 580 QCURVE SMOOTH",
"136 580 LINE",
"136 770 LINE",
"54 770 LINE",
"54 0 LINE"
);
},
{
closed = 1;
nodes = (
"160 82 OFFCURVE",
"136 105 OFFCURVE",
"136 121 QCURVE SMOOTH",
"136 459 LINE SMOOTH",
"136 475 OFFCURVE",
"160 498 OFFCURVE",
"176 498 QCURVE SMOOTH",
"527 498 LINE SMOOTH",
"543 498 OFFCURVE",
"566 475 OFFCURVE",
"566 459 QCURVE SMOOTH",
"566 121 LINE SMOOTH",
"566 105 OFFCURVE",
"543 82 OFFCURVE",
"527 82 QCURVE SMOOTH",
"176 82 LINE SMOOTH"
);
}
);
width = 670;
},
{
layerId = "D465923C-ABAE-4975-85A4-08C1BC9DA335";
paths = (
{
closed = 1;
nodes = (
"497 0 LINE SMOOTH",
"557 0 OFFCURVE",
"642 86 OFFCURVE",
"642 145 QCURVE SMOOTH",
"642 435 LINE SMOOTH",
"642 494 OFFCURVE",
"557 580 OFFCURVE",
"497 580 QCURVE SMOOTH",
"207 580 LINE",
"207 770 LINE",
"54 770 LINE",
"54 0 LINE"
);
},
{
closed = 1;
nodes = (
"207 153 OFFCURVE",
"207 153 OFFCURVE",
"207 186 QCURVE SMOOTH",
"207 394 LINE SMOOTH",
"207 427 OFFCURVE",
"207 427 OFFCURVE",
"240 427 QCURVE SMOOTH",
"456 427 LINE SMOOTH",
"489 427 OFFCURVE",
"489 427 OFFCURVE",
"489 394 QCURVE SMOOTH",
"489 186 LINE SMOOTH",
"489 153 OFFCURVE",
"489 153 OFFCURVE",
"456 153 QCURVE SMOOTH",
"240 153 LINE SMOOTH"
);
}
);
width = 667;
}
);
unicode = 0062;
},
{
color = 5;
glyphname = c;
layers = (
{
layerId = "17A5F7C0-AED1-4270-89BA-BFDC1003B8A5";
paths = (
{
closed = 1;
nodes = (
"642 0 LINE",
"642 82 LINE",
"172 82 LINE SMOOTH",
"156.328 82 OFFCURVE",
"133 105.328 OFFCURVE",
"133 121 QCURVE SMOOTH",
"133 459 LINE SMOOTH",
"133 474.672 OFFCURVE",
"156.328 498 OFFCURVE",
"172 498 QCURVE SMOOTH",
"640 498 LINE",
"640 580 LINE",
"172 580 LINE SMOOTH",
"122 580 OFFCURVE",
"51 509 OFFCURVE",
"51 459 QCURVE SMOOTH",
"51 121 LINE SMOOTH",
"51 71 OFFCURVE",
"122 0 OFFCURVE",
"172 0 QCURVE SMOOTH"
);
}
);
width = 695;
},
{
layerId = "D465923C-ABAE-4975-85A4-08C1BC9DA335";
paths = (
{
closed = 1;
nodes = (
"639 0 LINE",
"639 153 LINE",
"237 153 LINE SMOOTH",
"204 153 OFFCURVE",
"204 153 OFFCURVE",
"204 186 QCURVE SMOOTH",
"204 394 LINE SMOOTH",
"204 427 OFFCURVE",
"204 427 OFFCURVE",
"237 427 QCURVE SMOOTH",
"638 427 LINE",
"638 580 LINE",
"196 580 LINE SMOOTH",
"137.045 580 OFFCURVE",
"51 493.955 OFFCURVE",
"51 435 QCURVE SMOOTH",
"51 145 LINE SMOOTH",
"51 86.045 OFFCURVE",
"137.045 0 OFFCURVE",
"196 0 QCURVE SMOOTH"
);
}
);
width = 695;
}
);
unicode = 0063;
},
{
color = 5;
glyphname = ccedilla;
layers = (
{
layerId = "17A5F7C0-AED1-4270-89BA-BFDC1003B8A5";
paths = (
{
closed = 1;
nodes = (
"352 -139 LINE",
"386 0 LINE",
"642 0 LINE",
"642 82 LINE",
"172 82 LINE SMOOTH",
"156.328 82 OFFCURVE",
"133 105.328 OFFCURVE",
"133 121 QCURVE SMOOTH",
"133 459 LINE SMOOTH",
"133 474.672 OFFCURVE",
"156.328 498 OFFCURVE",
"172 498 QCURVE SMOOTH",
"640 498 LINE",
"640 580 LINE",
"172 580 LINE SMOOTH",
"122 580 OFFCURVE",
"51 509 OFFCURVE",
"51 459 QCURVE SMOOTH",
"51 121 LINE SMOOTH",
"51 71 OFFCURVE",
"122 0 OFFCURVE",
"172 0 QCURVE SMOOTH",
"307 0 LINE",
"272 -139 LINE"
);
}
);
width = 693;
},
{
layerId = "D465923C-ABAE-4975-85A4-08C1BC9DA335";
paths = (
{
closed = 1;
nodes = (
"371 -128 LINE",
"410 0 LINE",
"639 0 LINE",
"639 153 LINE",
"237 153 LINE SMOOTH",
"204 153 OFFCURVE",
"204 153 OFFCURVE",
"204 186 QCURVE SMOOTH",
"204 394 LINE SMOOTH",
"204 427 OFFCURVE",
"204 427 OFFCURVE",
"237 427 QCURVE SMOOTH",
"638 427 LINE",
"638 580 LINE",
"196 580 LINE SMOOTH",
"137.045 580 OFFCURVE",
"51 493.955 OFFCURVE",
"51 435 QCURVE SMOOTH",
"51 145 LINE SMOOTH",
"51 86.045 OFFCURVE",
"137.045 0 OFFCURVE",
"196 0 QCURVE SMOOTH",
"313 0 LINE",
"274 -128 LINE"
);
}
);
width = 693;
}
);
unicode = 00E7;
},
{
color = 5;
glyphname = d;
layers = (
{
layerId = "17A5F7C0-AED1-4270-89BA-BFDC1003B8A5";
paths = (
{
closed = 1;
nodes = (
"614 0 LINE",
"614 770 LINE",
"532 770 LINE",
"532 580 LINE",
"145 580 LINE SMOOTH",
"94.254 580 OFFCURVE",
"23 509 OFFCURVE",
"23 459 QCURVE SMOOTH",
"23 121 LINE SMOOTH",
"23 71 OFFCURVE",
"94.254 0 OFFCURVE",
"145 0 QCURVE SMOOTH"
);
},
{
closed = 1;
nodes = (
"129.328 82 OFFCURVE",
"106 105.328 OFFCURVE",
"106 121 QCURVE SMOOTH",
"106 459 LINE SMOOTH",
"106 474.672 OFFCURVE",
"129.328 498 OFFCURVE",
"145 498 QCURVE SMOOTH",
"493 498 LINE SMOOTH",
"508.672 498 OFFCURVE",
"532 474.672 OFFCURVE",
"532 459 QCURVE SMOOTH",
"532 121 LINE SMOOTH",
"532 105.328 OFFCURVE",
"508.672 82 OFFCURVE",
"493 82 QCURVE SMOOTH",
"145 82 LINE SMOOTH"
);
}
);
width = 667;
},
{
layerId = "D465923C-ABAE-4975-85A4-08C1BC9DA335";
paths = (
{
closed = 1;
nodes = (
"612 0 LINE",
"612 770 LINE",
"459 770 LINE",
"459 580 LINE",
"168 580 LINE SMOOTH",
"108.299 580 OFFCURVE",
"23 493.955 OFFCURVE",
"23 435 QCURVE SMOOTH",
"23 145 LINE SMOOTH",
"23 86.045 OFFCURVE",
"108.299 0 OFFCURVE",
"168 0 QCURVE SMOOTH"
);
},
{
closed = 1;
nodes = (
"177 153 OFFCURVE",
"177 153 OFFCURVE",
"177 186 QCURVE SMOOTH",
"177 394 LINE SMOOTH",
"177 427 OFFCURVE",
"177 427 OFFCURVE",
"210 427 QCURVE SMOOTH",
"426 427 LINE SMOOTH",
"459 427 OFFCURVE",
"459 427 OFFCURVE",
"459 394 QCURVE SMOOTH",
"459 186 LINE SMOOTH",
"459 153 OFFCURVE",
"459 153 OFFCURVE",
"426 153 QCURVE SMOOTH",
"210 153 LINE SMOOTH"
);
}
);
width = 667;
}
);
unicode = 0064;
},
{
color = 5;
glyphname = e;
layers = (
{
anchors = (
{
name = bottom;
position = "{347, 0}";
},
{
name = top;
position = "{347, 580}";
}
);
layerId = "17A5F7C0-AED1-4270-89BA-BFDC1003B8A5";
paths = (
{
closed = 1;
nodes = (
"642 0 LINE",
"642 82 LINE",
"172 82 LINE SMOOTH",
"156 82 OFFCURVE",
"133 105 OFFCURVE",
"133 121 QCURVE SMOOTH",
"133 249 LINE",
"642 249 LINE",
"642 459 LINE SMOOTH",
"642 509 OFFCURVE",
"571 580 OFFCURVE",
"520 580 QCURVE SMOOTH",
"172 580 LINE SMOOTH",
"122 580 OFFCURVE",
"51 509 OFFCURVE",
"51 459 QCURVE SMOOTH",
"51 121 LINE SMOOTH",
"51 71 OFFCURVE",
"122 0 OFFCURVE",
"172 0 QCURVE SMOOTH"
);
},
{
closed = 1;
nodes = (
"133 459 LINE SMOOTH",
"133 475 OFFCURVE",
"156 498 OFFCURVE",
"172 498 QCURVE SMOOTH",
"520 498 LINE SMOOTH",
"536 498 OFFCURVE",
"559 475 OFFCURVE",
"559 459 QCURVE SMOOTH",
"559 331 LINE",
"133 331 LINE"
);
}
);
width = 692;
},
{
anchors = (
{
name = bottom;
position = "{345, 0}";
},
{
name = top;
position = "{345, 580}";
}
);
layerId = "D465923C-ABAE-4975-85A4-08C1BC9DA335";
paths = (
{
closed = 1;
nodes = (
"639 0 LINE",
"639 153 LINE",
"237 153 LINE SMOOTH",
"204 153 OFFCURVE",
"204 153 OFFCURVE",
"204 186 QCURVE SMOOTH",
"204 213 LINE",
"639 213 LINE",
"639 435 LINE SMOOTH",
"639 494 OFFCURVE",
"554 580 OFFCURVE",
"494 580 QCURVE SMOOTH",
"196 580 LINE SMOOTH",
"137 580 OFFCURVE",
"51 494 OFFCURVE",
"51 435 QCURVE SMOOTH",
"51 145 LINE SMOOTH",
"51 86 OFFCURVE",
"137 0 OFFCURVE",
"196 0 QCURVE SMOOTH"
);
},
{
closed = 1;
nodes = (
"204 394 LINE SMOOTH",
"204 427 OFFCURVE",
"204 427 OFFCURVE",
"237 427 QCURVE SMOOTH",
"453 427 LINE SMOOTH",
"486 427 OFFCURVE",
"486 427 OFFCURVE",
"486 394 QCURVE SMOOTH",
"486 347 LINE",
"204 347 LINE"
);
}
);
width = 692;
}
);
unicode = 0065;
},
{
color = 5;
glyphname = f;
layers = (
{
layerId = "17A5F7C0-AED1-4270-89BA-BFDC1003B8A5";
paths = (
{
closed = 1;
nodes = (
"135 0 LINE",
"135 498 LINE",
"386 498 LINE",
"386 580 LINE",
"135 580 LINE",
"135 649 LINE SMOOTH",
"135 665 OFFCURVE",
"158 688 OFFCURVE",
"174 688 QCURVE SMOOTH",
"386 688 LINE",
"386 770 LINE",
"174 770 LINE SMOOTH",
"123 770 OFFCURVE",
"53 700 OFFCURVE",
"53 649 QCURVE SMOOTH",
"53 0 LINE"
);
}
);
width = 407;
},
{
layerId = "D465923C-ABAE-4975-85A4-08C1BC9DA335";
paths = (
{
closed = 1;
nodes = (
"206 0 LINE",
"206 427 LINE",
"421 427 LINE",
"421 580 LINE",
"206 580 LINE",
"206 583 LINE SMOOTH",
"206 616 OFFCURVE",
"206 616 OFFCURVE",
"239 616 QCURVE SMOOTH",
"421 616 LINE",
"421 770 LINE",
"199 770 LINE SMOOTH",
"139 770 OFFCURVE",
"53 684 OFFCURVE",
"53 625 QCURVE SMOOTH",
"53 0 LINE"
);
}
);
width = 440;
}
);
unicode = 0066;
},
{
color = 5;
glyphname = g;
layers = (
{
layerId = "17A5F7C0-AED1-4270-89BA-BFDC1003B8A5";
paths = (
{
closed = 1;
nodes = (
"510 -229 LINE SMOOTH",
"561 -229 OFFCURVE",
"631 -158 OFFCURVE",
"631 -107 QCURVE SMOOTH",
"631 459 LINE SMOOTH",
"631 509 OFFCURVE",
"561 580 OFFCURVE",
"510 580 QCURVE SMOOTH",
"162 580 LINE SMOOTH",
"112 580 OFFCURVE",
"41 509 OFFCURVE",
"41 459 QCURVE SMOOTH",
"41 121 LINE SMOOTH",
"41 71 OFFCURVE",
"112 0 OFFCURVE",
"162 0 QCURVE SMOOTH",
"549 0 LINE",
"549 -107 LINE SMOOTH",
"549 -123 OFFCURVE",
"526 -146 OFFCURVE",
"510 -146 QCURVE SMOOTH",
"148 -146 LINE",
"148 -229 LINE"
);
},
{
closed = 1;
nodes = (
"146 82 OFFCURVE",
"123 105 OFFCURVE",
"123 121 QCURVE SMOOTH",
"123 459 LINE SMOOTH",
"123 475 OFFCURVE",
"146 498 OFFCURVE",
"162 498 QCURVE SMOOTH",
"510 498 LINE SMOOTH",
"526 498 OFFCURVE",
"549 475 OFFCURVE",
"549 459 QCURVE SMOOTH",
"549 121 LINE SMOOTH",
"549 105 OFFCURVE",
"526 82 OFFCURVE",
"510 82 QCURVE SMOOTH",
"162 82 LINE SMOOTH"
);
}
);
width = 683;
},
{
layerId = "D465923C-ABAE-4975-85A4-08C1BC9DA335";
paths = (
{
closed = 1;
nodes = (
"485 -229 LINE SMOOTH",
"545 -229 OFFCURVE",
"630 -144 OFFCURVE",
"630 -84 QCURVE SMOOTH",
"630 435 LINE SMOOTH",
"630 494 OFFCURVE",
"545 580 OFFCURVE",
"485 580 QCURVE SMOOTH",
"187 580 LINE SMOOTH",
"127 580 OFFCURVE",
"41 494 OFFCURVE",
"41 435 QCURVE SMOOTH",
"41 145 LINE SMOOTH",
"41 86 OFFCURVE",
"127 0 OFFCURVE",
"187 0 QCURVE SMOOTH",
"477 0 LINE",
"477 -42 LINE SMOOTH",
"477 -75 OFFCURVE",
"477 -75 OFFCURVE",
"444 -75 QCURVE SMOOTH",
"133 -75 LINE",
"133 -229 LINE"
);
},
{
closed = 1;
nodes = (
"194 153 OFFCURVE",
"194 153 OFFCURVE",
"194 186 QCURVE SMOOTH",
"194 394 LINE SMOOTH",
"194 427 OFFCURVE",
"194 427 OFFCURVE",
"227 427 QCURVE SMOOTH",
"444 427 LINE SMOOTH",
"477 427 OFFCURVE",
"477 427 OFFCURVE",
"477 394 QCURVE SMOOTH",
"477 186 LINE SMOOTH",
"477 153 OFFCURVE",
"477 153 OFFCURVE",
"444 153 QCURVE SMOOTH",
"227 153 LINE SMOOTH"
);
}
);
width = 683;
}
);
unicode = 0067;
},
{
color = 5;
glyphname = h;
layers = (
{
layerId = "17A5F7C0-AED1-4270-89BA-BFDC1003B8A5";
paths = (
{
closed = 1;
nodes = (
"136 0 LINE",
"136 459 LINE SMOOTH",
"136 474.672 OFFCURVE",
"159.582 498 OFFCURVE",
"176 498 QCURVE SMOOTH",
"524 498 LINE SMOOTH",
"539.672 498 OFFCURVE",
"563 474.672 OFFCURVE",
"563 459 QCURVE SMOOTH",
"563 0 LINE",
"645 0 LINE",
"645 459 LINE SMOOTH",
"645 509 OFFCURVE",
"573.254 580 OFFCURVE",
"524 580 QCURVE SMOOTH",
"136 580 LINE",
"136 770 LINE",
"54 770 LINE",
"54 0 LINE"
);
}
);
width = 668;
},
{
layerId = "D465923C-ABAE-4975-85A4-08C1BC9DA335";
paths = (
{
closed = 1;
nodes = (
"207 0 LINE",
"207 394 LINE SMOOTH",
"207 427 OFFCURVE",
"207 427 OFFCURVE",
"240 427 QCURVE SMOOTH",
"456 427 LINE SMOOTH",
"489 427 OFFCURVE",
"489 427 OFFCURVE",
"489 394 QCURVE SMOOTH",
"489 0 LINE",
"642 0 LINE",
"642 435 LINE SMOOTH",
"642 494 OFFCURVE",
"556 580 OFFCURVE",
"497 580 QCURVE SMOOTH",
"207 580 LINE",
"207 770 LINE",
"54 770 LINE",
"54 0 LINE"
);
}
);
width = 668;
}
);
unicode = 0068;
},
{
color = 5;
glyphname = i;
layers = (
{
layerId = "17A5F7C0-AED1-4270-89BA-BFDC1003B8A5";
paths = (
{
closed = 1;
nodes = (
"134 0 LINE",
"134 580 LINE",
"52 580 LINE",
"52 0 LINE"
);
},
{
closed = 1;
nodes = (
"134 688 LINE",
"134 770 LINE",
"52 770 LINE",
"52 688 LINE"
);
}
);
width = 208;
},
{
layerId = "D465923C-ABAE-4975-85A4-08C1BC9DA335";
paths = (
{
closed = 1;
nodes = (
"205 0 LINE",
"205 580 LINE",
"52 580 LINE",
"52 0 LINE"
);
},
{
closed = 1;
nodes = (
"205 616 LINE",
"205 770 LINE",
"52 770 LINE",
"52 616 LINE"
);
}
);
width = 229;
}
);
unicode = 0069;
},
{
color = 5;
glyphname = dotlessi;
layers = (
{
anchors = (
{
name = top;
position = "{93, 580}";
}
);
layerId = "17A5F7C0-AED1-4270-89BA-BFDC1003B8A5";
paths = (
{
closed = 1;
nodes = (
"134 0 LINE",
"134 580 LINE",
"52 580 LINE",
"52 0 LINE"
);
}
);
width = 214;
},
{
anchors = (
{
name = top;
position = "{128, 580}";
}
);
layerId = "D465923C-ABAE-4975-85A4-08C1BC9DA335";
paths = (
{
closed = 1;
nodes = (
"205 0 LINE",
"205 580 LINE",
"52 580 LINE",
"52 0 LINE"
);
}
);
width = 214;
}
);
unicode = 0131;
},
{
color = 5;
glyphname = j;
layers = (
{
layerId = "17A5F7C0-AED1-4270-89BA-BFDC1003B8A5";
paths = (
{
closed = 1;
nodes = (
"58 -243 LINE SMOOTH",
"109 -243 OFFCURVE",
"180 -172 OFFCURVE",
"180 -121 QCURVE SMOOTH",
"180 580 LINE",
"97 580 LINE",
"97 -121 LINE SMOOTH",
"97 -137 OFFCURVE",
"74 -160 OFFCURVE",
"58 -160 QCURVE SMOOTH",
"-187 -160 LINE",
"-187 -243 LINE"
);
},
{
closed = 1;
nodes = (
"180 688 LINE",
"180 770 LINE",
"97 770 LINE",
"97 688 LINE"
);
}
);
width = 239;
},
{
layerId = "D465923C-ABAE-4975-85A4-08C1BC9DA335";
paths = (
{
closed = 1;
nodes = (
"65 -208 LINE SMOOTH",
"125 -208 OFFCURVE",
"211 -123 OFFCURVE",
"211 -63 QCURVE SMOOTH",
"211 580 LINE",
"58 580 LINE",
"58 -21 LINE SMOOTH",
"58 -54 OFFCURVE",
"58 -54 OFFCURVE",
"25 -54 QCURVE SMOOTH",
"-187 -54 LINE",
"-187 -208 LINE"
);
},
{
closed = 1;
nodes = (
"211 616 LINE",
"211 770 LINE",
"58 770 LINE",
"58 616 LINE"
);
}
);
width = 239;
}
);
unicode = 006A;
},
{
color = 5;
glyphname = k;
layers = (
{
layerId = "17A5F7C0-AED1-4270-89BA-BFDC1003B8A5";
paths = (
{
closed = 1;
nodes = (
"136 0 LINE",
"136 249 LINE",
"296 249 LINE",
"524 0 LINE",
"631 0 LINE",
"631 1 LINE",
"369 290 LINE",
"632 579 LINE",
"632 580 LINE",
"524 580 LINE",
"296 331 LINE",
"136 331 LINE",
"136 770 LINE",
"54 770 LINE",
"54 0 LINE"
);
}
);
width = 646;
},
{
layerId = "D465923C-ABAE-4975-85A4-08C1BC9DA335";
paths = (
{
closed = 1;
nodes = (
"207 0 LINE",
"207 213 LINE",
"285 213 LINE",
"482 0 LINE",
"636 0 LINE",
"636 52 LINE",
"420 290 LINE",
"636 528 LINE",
"636 580 LINE",
"482 580 LINE",
"285 367 LINE",
"207 367 LINE",
"207 770 LINE",
"54 770 LINE",
"54 0 LINE"
);
}
);
width = 646;
}
);
unicode = 006B;
},
{
color = 5;
glyphname = l;
layers = (
{
layerId = "17A5F7C0-AED1-4270-89BA-BFDC1003B8A5";
paths = (
{
closed = 1;
nodes = (
"271 0 LINE",
"271 82 LINE",
"173 82 LINE SMOOTH",
"157 82 OFFCURVE",
"134 105 OFFCURVE",
"134 121 QCURVE SMOOTH",
"134 770 LINE",
"52 770 LINE",
"52 121 LINE SMOOTH",
"52 71 OFFCURVE",
"123 0 OFFCURVE",
"173 0 QCURVE SMOOTH"
);
}
);
width = 302;
},
{
layerId = "D465923C-ABAE-4975-85A4-08C1BC9DA335";
paths = (
{
closed = 1;
nodes = (
"323 0 LINE",
"323 153 LINE",
"239 153 LINE SMOOTH",
"206 153 OFFCURVE",
"206 153 OFFCURVE",
"206 186 QCURVE SMOOTH",
"206 771 LINE",
"52 771 LINE",
"52 145 LINE SMOOTH",
"52 86 OFFCURVE",
"138 0 OFFCURVE",
"197 0 QCURVE SMOOTH"
);
}
);
width = 337;
}
);
unicode = 006C;
},
{
color = 5;
glyphname = m;
layers = (
{
layerId = "17A5F7C0-AED1-4270-89BA-BFDC1003B8A5";
paths = (
{
closed = 1;
nodes = (
"137 0 LINE",
"137 459 LINE SMOOTH",
"137 475 OFFCURVE",
"160 498 OFFCURVE",
"176 498 QCURVE SMOOTH",
"418 498 LINE SMOOTH",
"434 498 OFFCURVE",
"457 475 OFFCURVE",
"457 459 QCURVE SMOOTH",
"457 0 LINE",
"540 0 LINE",
"540 459 LINE SMOOTH",
"540 475 OFFCURVE",
"563 498 OFFCURVE",
"579 498 QCURVE SMOOTH",
"820 498 LINE SMOOTH",
"836 498 OFFCURVE",
"860 475 OFFCURVE",
"860 459 QCURVE SMOOTH",
"860 0 LINE",
"941 0 LINE",
"941 459 LINE SMOOTH",
"941 509 OFFCURVE",
"871 580 OFFCURVE",
"820 580 QCURVE SMOOTH",
"54 580 LINE",
"54 0 LINE"
);
}
);
width = 978;
},
{
layerId = "D465923C-ABAE-4975-85A4-08C1BC9DA335";
paths = (
{
closed = 1;
nodes = (
"207 0 LINE",
"207 394 LINE SMOOTH",
"207 427 OFFCURVE",
"207 427 OFFCURVE",
"240 427 QCURVE SMOOTH",
"366 427 LINE SMOOTH",
"399 427 OFFCURVE",
"399 427 OFFCURVE",
"399 394 QCURVE SMOOTH",
"399 0 LINE",
"553 0 LINE",
"553 394 LINE SMOOTH",
"553 427 OFFCURVE",
"553 427 OFFCURVE",
"586 427 QCURVE SMOOTH",
"712 427 LINE SMOOTH",
"745 427 OFFCURVE",
"745 427 OFFCURVE",
"745 394 QCURVE SMOOTH",
"745 0 LINE",
"897 0 LINE",
"897 435 LINE SMOOTH",
"897 494 OFFCURVE",
"812 580 OFFCURVE",
"752 580 QCURVE SMOOTH",
"54 580 LINE",
"54 0 LINE"
);
}
);
width = 978;
}
);
unicode = 006D;
},
{
color = 5;
glyphname = n;
layers = (
{
anchors = (
{
name = bottom;
position = "{346, 0}";
},
{
name = top;
position = "{346, 580}";
}
);
layerId = "17A5F7C0-AED1-4270-89BA-BFDC1003B8A5";
paths = (
{
closed = 1;
nodes = (
"136 0 LINE",
"136 459 LINE SMOOTH",
"136 475 OFFCURVE",
"160 498 OFFCURVE",
"176 498 QCURVE SMOOTH",
"524 498 LINE SMOOTH",
"540 498 OFFCURVE",
"563 475 OFFCURVE",
"563 459 QCURVE SMOOTH",
"563 0 LINE",
"645 0 LINE",
"645 459 LINE SMOOTH",
"645 509 OFFCURVE",
"574 580 OFFCURVE",
"524 580 QCURVE SMOOTH",
"54 580 LINE",
"54 0 LINE"
);
}
);
width = 696;
},
{
anchors = (
{
name = bottom;
position = "{348, 0}";
},
{
name = top;
position = "{336, 580}";
}
);
layerId = "D465923C-ABAE-4975-85A4-08C1BC9DA335";
paths = (
{
closed = 1;
nodes = (
"207 0 LINE",
"207 394 LINE SMOOTH",
"207 427 OFFCURVE",
"207 427 OFFCURVE",
"240 427 QCURVE SMOOTH",
"456 427 LINE SMOOTH",
"489 427 OFFCURVE",
"489 427 OFFCURVE",
"489 394 QCURVE SMOOTH",
"489 0 LINE",
"642 0 LINE",
"642 435 LINE SMOOTH",
"642 494 OFFCURVE",
"557 580 OFFCURVE",
"497 580 QCURVE SMOOTH",
"54 580 LINE",
"54 0 LINE"
);
}
);
width = 696;
}
);
unicode = 006E;
},
{
color = 5;
glyphname = o;
layers = (
{
anchors = (
{
name = bottom;
position = "{348, 0}";
},
{
name = top;
position = "{348, 580}";
}
);
layerId = "17A5F7C0-AED1-4270-89BA-BFDC1003B8A5";
paths = (
{
closed = 1;
nodes = (
"520 0 LINE SMOOTH",
"571 0 OFFCURVE",
"642 71 OFFCURVE",
"642 121 QCURVE SMOOTH",
"642 459 LINE SMOOTH",
"642 509 OFFCURVE",
"571 580 OFFCURVE",
"520 580 QCURVE SMOOTH",
"172 580 LINE SMOOTH",
"122 580 OFFCURVE",
"51 509 OFFCURVE",
"51 459 QCURVE SMOOTH",
"51 121 LINE SMOOTH",
"51 71 OFFCURVE",
"122 0 OFFCURVE",
"172 0 QCURVE SMOOTH"
);
},
{
closed = 1;
nodes = (
"156 82 OFFCURVE",
"133 105 OFFCURVE",
"133 121 QCURVE SMOOTH",
"133 459 LINE SMOOTH",
"133 475 OFFCURVE",
"156 498 OFFCURVE",
"172 498 QCURVE SMOOTH",
"520 498 LINE SMOOTH",
"536 498 OFFCURVE",
"559 475 OFFCURVE",
"559 459 QCURVE SMOOTH",
"559 121 LINE SMOOTH",
"559 105 OFFCURVE",
"536 82 OFFCURVE",
"520 82 QCURVE SMOOTH",
"172 82 LINE SMOOTH"
);
}
);
width = 692;
},
{
anchors = (
{
name = bottom;
position = "{345, -2}";
},
{
name = top;
position = "{345, 578}";
}
);
layerId = "D465923C-ABAE-4975-85A4-08C1BC9DA335";
paths = (
{
closed = 1;
nodes = (
"494 0 LINE SMOOTH",
"554 0 OFFCURVE",
"639 86 OFFCURVE",
"639 145 QCURVE SMOOTH",
"639 435 LINE SMOOTH",
"639 494 OFFCURVE",
"554 580 OFFCURVE",
"494 580 QCURVE SMOOTH",
"196 580 LINE SMOOTH",
"137 580 OFFCURVE",
"51 494 OFFCURVE",
"51 435 QCURVE SMOOTH",
"51 145 LINE SMOOTH",
"51 86 OFFCURVE",
"137 0 OFFCURVE",
"196 0 QCURVE SMOOTH"
);
},
{
closed = 1;
nodes = (
"204 153 OFFCURVE",
"204 153 OFFCURVE",
"204 186 QCURVE SMOOTH",
"204 394 LINE SMOOTH",
"204 427 OFFCURVE",
"204 427 OFFCURVE",
"237 427 QCURVE SMOOTH",
"453 427 LINE SMOOTH",
"486 427 OFFCURVE",
"486 427 OFFCURVE",
"486 394 QCURVE SMOOTH",
"486 186 LINE SMOOTH",
"486 153 OFFCURVE",
"486 153 OFFCURVE",
"453 153 QCURVE SMOOTH",
"237 153 LINE SMOOTH"
);
}
);
width = 692;
}
);
unicode = 006F;
},
{
color = 5;
glyphname = oe;
layers = (
{
layerId = "17A5F7C0-AED1-4270-89BA-BFDC1003B8A5";
paths = (
{
closed = 1;
nodes = (
"1150 0 LINE",
"1150 82 LINE",
"681 82 LINE SMOOTH",
"665.328 82 OFFCURVE",
"642 105.328 OFFCURVE",
"642 121 QCURVE SMOOTH",
"642 249 LINE",
"1150 249 LINE",
"1150 459 LINE SMOOTH",
"1150 509 OFFCURVE",
"1079.746 580 OFFCURVE",
"1029 580 QCURVE SMOOTH",
"173 580 LINE SMOOTH",
"122.254 580 OFFCURVE",
"52 509 OFFCURVE",
"52 459 QCURVE SMOOTH",
"52 121 LINE SMOOTH",
"52 71 OFFCURVE",
"122.254 0 OFFCURVE",
"173 0 QCURVE SMOOTH"
);
},
{
closed = 1;
nodes = (
"157.328 82 OFFCURVE",
"134 105.328 OFFCURVE",
"134 121 QCURVE SMOOTH",
"134 459 LINE SMOOTH",
"134 474.672 OFFCURVE",
"157.328 498 OFFCURVE",
"173 498 QCURVE SMOOTH",
"521 498 LINE SMOOTH",
"536.672 498 OFFCURVE",
"560 474.672 OFFCURVE",
"560 459 QCURVE SMOOTH",
"560 121 LINE SMOOTH",
"560 105.328 OFFCURVE",
"536.672 82 OFFCURVE",
"521 82 QCURVE SMOOTH",
"173 82 LINE SMOOTH"
);
},
{
closed = 1;
nodes = (
"642 459 LINE SMOOTH",
"642 474.672 OFFCURVE",
"665.328 498 OFFCURVE",
"681 498 QCURVE SMOOTH",
"1029 498 LINE SMOOTH",
"1044.672 498 OFFCURVE",
"1068 474.672 OFFCURVE",
"1068 459 QCURVE SMOOTH",
"1068 331 LINE",
"642 331 LINE"
);
}
);
width = 1177;
},
{
layerId = "D465923C-ABAE-4975-85A4-08C1BC9DA335";
paths = (
{
closed = 1;
nodes = (
"1076 0 LINE",
"1076 153 LINE",
"674 153 LINE SMOOTH",
"641 153 OFFCURVE",
"641 153 OFFCURVE",
"641 186 QCURVE SMOOTH",
"641 213 LINE",
"1076 213 LINE",
"1076 435 LINE SMOOTH",
"1076 493.955 OFFCURVE",
"991.701 580 OFFCURVE",
"932 580 QCURVE SMOOTH",
"198 580 LINE SMOOTH",
"137.552 580 OFFCURVE",
"52 493.955 OFFCURVE",
"52 435 QCURVE SMOOTH",
"52 145 LINE SMOOTH",
"52 86.045 OFFCURVE",
"137.552 0 OFFCURVE",
"198 0 QCURVE SMOOTH"
);
},
{
closed = 1;
nodes = (
"205 153 OFFCURVE",
"205 153 OFFCURVE",
"205 186 QCURVE SMOOTH",
"205 394 LINE SMOOTH",
"205 427 OFFCURVE",
"205 427 OFFCURVE",
"238 427 QCURVE SMOOTH",
"455 427 LINE SMOOTH",
"488 427 OFFCURVE",
"488 427 OFFCURVE",
"488 394 QCURVE SMOOTH",
"488 186 LINE SMOOTH",
"488 153 OFFCURVE",
"488 153 OFFCURVE",
"455 153 QCURVE SMOOTH",
"238 153 LINE SMOOTH"
);
},
{
closed = 1;
nodes = (
"641 394 LINE SMOOTH",
"641 427 OFFCURVE",
"641 427 OFFCURVE",
"674 427 QCURVE SMOOTH",
"890 427 LINE SMOOTH",
"923 427 OFFCURVE",
"923 427 OFFCURVE",
"923 394 QCURVE SMOOTH",
"923 347 LINE",
"641 347 LINE"
);
}
);
width = 1177;
}
);
unicode = 0153;
},
{
color = 5;
glyphname = p;
layers = (
{
layerId = "17A5F7C0-AED1-4270-89BA-BFDC1003B8A5";
paths = (
{
closed = 1;
nodes = (
"136 -230 LINE",
"136 0 LINE",
"524 0 LINE SMOOTH",
"574 0 OFFCURVE",
"645 71 OFFCURVE",
"645 121 QCURVE SMOOTH",
"645 459 LINE SMOOTH",
"645 509 OFFCURVE",
"574 580 OFFCURVE",
"524 580 QCURVE SMOOTH",
"54 580 LINE",
"54 -230 LINE"
);
},
{
closed = 1;
nodes = (
"160 82 OFFCURVE",
"136 105 OFFCURVE",
"136 121 QCURVE SMOOTH",
"136 459 LINE SMOOTH",
"136 475 OFFCURVE",
"160 498 OFFCURVE",
"176 498 QCURVE SMOOTH",
"524 498 LINE SMOOTH",
"540 498 OFFCURVE",
"563 475 OFFCURVE",
"563 459 QCURVE SMOOTH",
"563 121 LINE SMOOTH",
"563 105 OFFCURVE",
"540 82 OFFCURVE",
"524 82 QCURVE SMOOTH",
"176 82 LINE SMOOTH"
);
}
);
width = 664;
},
{
layerId = "D465923C-ABAE-4975-85A4-08C1BC9DA335";
paths = (
{
closed = 1;
nodes = (
"207 -230 LINE",
"207 0 LINE",
"497 0 LINE SMOOTH",
"557 0 OFFCURVE",
"642 86 OFFCURVE",
"642 145 QCURVE SMOOTH",
"642 435 LINE SMOOTH",
"642 494 OFFCURVE",
"557 580 OFFCURVE",
"497 580 QCURVE SMOOTH",
"54 580 LINE",
"54 -230 LINE"
);
},
{
closed = 1;
nodes = (
"207 153 OFFCURVE",
"207 153 OFFCURVE",
"207 186 QCURVE SMOOTH",
"207 394 LINE SMOOTH",
"207 427 OFFCURVE",
"207 427 OFFCURVE",
"240 427 QCURVE SMOOTH",
"456 427 LINE SMOOTH",
"489 427 OFFCURVE",
"489 427 OFFCURVE",
"489 394 QCURVE SMOOTH",
"489 186 LINE SMOOTH",
"489 153 OFFCURVE",
"489 153 OFFCURVE",
"456 153 QCURVE SMOOTH",
"240 153 LINE SMOOTH"
);
}
);
width = 664;
}
);
unicode = 0070;
},
{
color = 5;
glyphname = q;
layers = (
{
layerId = "17A5F7C0-AED1-4270-89BA-BFDC1003B8A5";
paths = (
{
closed = 1;
nodes = (
"611 -230 LINE",
"611 580 LINE",
"142 580 LINE SMOOTH",
"91 580 OFFCURVE",
"20 509 OFFCURVE",
"20 459 QCURVE SMOOTH",
"20 121 LINE SMOOTH",
"20 71 OFFCURVE",
"91 0 OFFCURVE",
"142 0 QCURVE SMOOTH",
"529 0 LINE",
"529 -230 LINE"
);
},
{
closed = 1;
nodes = (
"126 82 OFFCURVE",
"103 105 OFFCURVE",
"103 121 QCURVE SMOOTH",
"103 459 LINE SMOOTH",
"103 475 OFFCURVE",
"126 498 OFFCURVE",
"142 498 QCURVE SMOOTH",
"490 498 LINE SMOOTH",
"506 498 OFFCURVE",
"529 475 OFFCURVE",
"529 459 QCURVE SMOOTH",
"529 121 LINE SMOOTH",
"529 105 OFFCURVE",
"506 82 OFFCURVE",
"490 82 QCURVE SMOOTH",
"142 82 LINE SMOOTH"
);
}
);
width = 664;
},
{
layerId = "D465923C-ABAE-4975-85A4-08C1BC9DA335";
paths = (
{
closed = 1;
nodes = (
"609 -230 LINE",
"609 580 LINE",
"165 580 LINE SMOOTH",
"105 580 OFFCURVE",
"20 494 OFFCURVE",
"20 435 QCURVE SMOOTH",
"20 145 LINE SMOOTH",
"20 86 OFFCURVE",
"105 0 OFFCURVE",
"165 0 QCURVE SMOOTH",
"456 0 LINE",
"456 -230 LINE"
);
},
{
closed = 1;
nodes = (
"174 153 OFFCURVE",
"174 153 OFFCURVE",
"174 186 QCURVE SMOOTH",
"174 394 LINE SMOOTH",
"174 427 OFFCURVE",
"174 427 OFFCURVE",
"207 427 QCURVE SMOOTH",
"423 427 LINE SMOOTH",
"456 427 OFFCURVE",
"456 427 OFFCURVE",
"456 394 QCURVE SMOOTH",
"456 186 LINE SMOOTH",
"456 153 OFFCURVE",
"456 153 OFFCURVE",
"423 153 QCURVE SMOOTH",
"207 153 LINE SMOOTH"
);
}
);
width = 664;
}
);
unicode = 0071;
},
{
color = 5;
glyphname = r;
layers = (
{
layerId = "17A5F7C0-AED1-4270-89BA-BFDC1003B8A5";
paths = (
{
closed = 1;
nodes = (
"134 0 LINE",
"134 459 LINE SMOOTH",
"134 475 OFFCURVE",
"157 498 OFFCURVE",
"173 498 QCURVE SMOOTH",
"499 498 LINE",
"499 580 LINE",
"173 580 LINE SMOOTH",
"123 580 OFFCURVE",
"52 509 OFFCURVE",
"52 459 QCURVE SMOOTH",
"52 0 LINE"
);
}
);
width = 512;
},
{
layerId = "D465923C-ABAE-4975-85A4-08C1BC9DA335";
paths = (
{
closed = 1;
nodes = (
"205 0 LINE",
"205 394 LINE SMOOTH",
"205 427 OFFCURVE",
"205 427 OFFCURVE",
"238 427 QCURVE SMOOTH",
"518 427 LINE",
"518 580 LINE",
"198 580 LINE SMOOTH",
"138 580 OFFCURVE",
"52 494 OFFCURVE",
"52 435 QCURVE SMOOTH",
"52 0 LINE"
);
}
);
width = 526;
}
);
unicode = 0072;
},
{
color = 5;
glyphname = s;
layers = (
{
anchors = (
{
name = bottom;
position = "{354, 0}";
},
{
name = top;
position = "{341, 579}";
}
);
layerId = "17A5F7C0-AED1-4270-89BA-BFDC1003B8A5";
paths = (
{
closed = 1;
nodes = (
"517 0 LINE SMOOTH",
"567.746 0 OFFCURVE",
"639 71 OFFCURVE",
"639 121 QCURVE SMOOTH",
"639 210 LINE SMOOTH",
"639 260 OFFCURVE",
"567.746 331 OFFCURVE",
"517 331 QCURVE SMOOTH",
"169 331 LINE SMOOTH",
"153.328 331 OFFCURVE",
"130 354.328 OFFCURVE",
"130 370 QCURVE SMOOTH",
"130 459 LINE SMOOTH",
"130 474.672 OFFCURVE",
"153.328 498 OFFCURVE",
"169 498 QCURVE SMOOTH",
"517 498 LINE SMOOTH",
"532.672 498 OFFCURVE",
"556 474.672 OFFCURVE",
"556 459 QCURVE SMOOTH",
"556 451 LINE",
"639 451 LINE",
"639 459 LINE SMOOTH",
"639 509 OFFCURVE",
"567.746 580 OFFCURVE",
"517 580 QCURVE SMOOTH",
"169 580 LINE SMOOTH",
"119 580 OFFCURVE",
"48 509 OFFCURVE",
"48 459 QCURVE SMOOTH",
"48 370 LINE SMOOTH",
"48 320 OFFCURVE",
"119 249 OFFCURVE",
"169 249 QCURVE SMOOTH",
"517 249 LINE SMOOTH",
"532.672 249 OFFCURVE",
"556 225.672 OFFCURVE",
"556 210 QCURVE SMOOTH",
"556 121 LINE SMOOTH",
"556 105.328 OFFCURVE",
"532.672 82 OFFCURVE",
"517 82 QCURVE SMOOTH",
"169 82 LINE SMOOTH",
"153.328 82 OFFCURVE",
"130 105.328 OFFCURVE",
"130 121 QCURVE SMOOTH",
"130 129 LINE",
"48 129 LINE",
"48 121 LINE SMOOTH",
"48 71 OFFCURVE",
"119 0 OFFCURVE",
"169 0 QCURVE SMOOTH"
);
}
);
width = 686;
},
{
anchors = (
{
name = bottom;
position = "{345, 0}";
},
{
name = top;
position = "{340, 580}";
}
);
layerId = "D465923C-ABAE-4975-85A4-08C1BC9DA335";
paths = (
{
closed = 1;
nodes = (
"491 0 LINE SMOOTH",
"551 0 OFFCURVE",
"637 86 OFFCURVE",
"637 145 QCURVE SMOOTH",
"637 222 LINE SMOOTH",
"637 281 OFFCURVE",
"551 367 OFFCURVE",
"491 367 QCURVE SMOOTH",
"217 367 LINE SMOOTH",
"201 367 OFFCURVE",
"201 367 OFFCURVE",
"201 383 QCURVE SMOOTH",
"201 411 LINE SMOOTH",
"201 427 OFFCURVE",
"201 427 OFFCURVE",
"217 427 QCURVE SMOOTH",
"467 427 LINE SMOOTH",
"483 427 OFFCURVE",
"483 427 OFFCURVE",
"483 411 QCURVE SMOOTH",
"483 406 LINE",
"637 406 LINE",
"637 435 LINE SMOOTH",
"637 494 OFFCURVE",
"551 580 OFFCURVE",
"491 580 QCURVE SMOOTH",
"193 580 LINE SMOOTH",
"134 580 OFFCURVE",
"48 494 OFFCURVE",
"48 435 QCURVE SMOOTH",
"48 358 LINE SMOOTH",
"48 299 OFFCURVE",
"134 213 OFFCURVE",
"193 213 QCURVE SMOOTH",
"467 213 LINE SMOOTH",
"483 213 OFFCURVE",
"483 213 OFFCURVE",
"483 197 QCURVE SMOOTH",
"483 169 LINE SMOOTH",
"483 153 OFFCURVE",
"483 153 OFFCURVE",
"467 153 QCURVE SMOOTH",
"217 153 LINE SMOOTH",
"201 153 OFFCURVE",
"201 153 OFFCURVE",
"201 169 QCURVE SMOOTH",
"201 174 LINE",
"48 174 LINE",
"48 145 LINE SMOOTH",
"48 86 OFFCURVE",
"134 0 OFFCURVE",
"193 0 QCURVE SMOOTH"
);
}
);
width = 686;
}
);
unicode = 0073;
},
{
color = 5;
glyphname = germandbls;
layers = (
{
layerId = "17A5F7C0-AED1-4270-89BA-BFDC1003B8A5";
paths = (
{
closed = 1;
nodes = (
"139 0 LINE",
"139 597 LINE SMOOTH",
"139 613 OFFCURVE",
"162 636 OFFCURVE",
"178 636 QCURVE SMOOTH",
"663 636 LINE SMOOTH",
"679 636 OFFCURVE",
"702 613 OFFCURVE",
"702 597 QCURVE SMOOTH",
"702 443 LINE SMOOTH",
"702 427.328 OFFCURVE",
"678.672 404 OFFCURVE",
"663 404 QCURVE SMOOTH",
"284 404 LINE",
"284 333 LINE",
"663 333 LINE SMOOTH",
"678.672 333 OFFCURVE",
"702 309.672 OFFCURVE",
"702 294 QCURVE SMOOTH",
"702 121 LINE SMOOTH",
"702 105.328 OFFCURVE",
"678.672 82 OFFCURVE",
"663 82 QCURVE SMOOTH",
"284 82 LINE",
"284 0 LINE",
"663 0 LINE SMOOTH",
"713 0 OFFCURVE",
"784 71 OFFCURVE",
"784 121 QCURVE SMOOTH",
"784 294 LINE SMOOTH",
"784 314.149 OFFCURVE",
"768.179 355.343 OFFCURVE",
"754 374 QCURVE",
"768.179 393.403 OFFCURVE",
"784 434.851 OFFCURVE",
"784 455 QCURVE SMOOTH",
"784 618 LINE",
"773 657 OFFCURVE",
"705 720 OFFCURVE",
"663 720 QCURVE SMOOTH",
"178 720 LINE SMOOTH",
"127 720 OFFCURVE",
"57 649 OFFCURVE",
"57 598 QCURVE SMOOTH",
"57 0 LINE"
);
}
);
width = 833;
},
{
layerId = "D465923C-ABAE-4975-85A4-08C1BC9DA335";
paths = (
{
closed = 1;
nodes = (
"210 0 LINE",
"210 533 LINE SMOOTH",
"210 566 OFFCURVE",
"210 566 OFFCURVE",
"243 566 QCURVE SMOOTH",
"578 566 LINE SMOOTH",
"611 566 OFFCURVE",
"611 566 OFFCURVE",
"611 533 QCURVE SMOOTH",
"611 462 LINE SMOOTH",
"611 429 OFFCURVE",
"611 429 OFFCURVE",
"578 429 QCURVE SMOOTH",
"273 429 LINE",
"273 285 LINE",
"578 285 LINE SMOOTH",
"611 285 OFFCURVE",
"611 285 OFFCURVE",
"611 252 QCURVE SMOOTH",
"611 186 LINE SMOOTH",
"611 153 OFFCURVE",
"611 153 OFFCURVE",
"578 153 QCURVE SMOOTH",
"273 153 LINE",
"273 0 LINE",
"618 0 LINE SMOOTH",
"677.701 0 OFFCURVE",
"764 86.045 OFFCURVE",
"764 145 QCURVE SMOOTH",
"764 294 LINE SMOOTH",
"764 311.91 OFFCURVE",
"755.955 345.582 OFFCURVE",
"747 362 QCURVE",
"755.209 377.672 OFFCURVE",
"764 414.582 OFFCURVE",
"764 431 QCURVE SMOOTH",
"764 601 LINE",
"755 652 OFFCURVE",
"672 720 OFFCURVE",
"618 720 QCURVE SMOOTH",
"203 720 LINE SMOOTH",
"143 720 OFFCURVE",
"57 635 OFFCURVE",
"57 575 QCURVE SMOOTH",
"57 0 LINE"
);
}
);
width = 833;
}
);
unicode = 00DF;
},
{
color = 5;
glyphname = t;
layers = (
{
layerId = "17A5F7C0-AED1-4270-89BA-BFDC1003B8A5";
paths = (
{
closed = 1;
nodes = (
"386 0 LINE",
"386 82 LINE",
"174 82 LINE SMOOTH",
"158 82 OFFCURVE",
"135 105 OFFCURVE",
"135 121 QCURVE SMOOTH",
"135 498 LINE",
"386 498 LINE",
"386 580 LINE",
"135 580 LINE",
"135 770 LINE",
"53 770 LINE",
"53 121 LINE SMOOTH",
"53 71 OFFCURVE",
"123 0 OFFCURVE",
"174 0 QCURVE SMOOTH"
);
}
);
width = 410;
},
{
layerId = "D465923C-ABAE-4975-85A4-08C1BC9DA335";
paths = (
{
closed = 1;
nodes = (
"421 0 LINE",
"421 153 LINE",
"239 153 LINE SMOOTH",
"206 153 OFFCURVE",
"206 153 OFFCURVE",
"206 186 QCURVE SMOOTH",
"206 427 LINE",
"421 427 LINE",
"421 580 LINE",
"206 580 LINE",
"206 752 LINE",
"53 752 LINE",
"53 145 LINE SMOOTH",
"53 86 OFFCURVE",
"139 0 OFFCURVE",
"199 0 QCURVE SMOOTH"
);
}
);
width = 451;
}
);
unicode = 0074;
},
{
color = 5;
glyphname = u;
layers = (
{
anchors = (
{
name = top;
position = "{349, 580}";
}
);
layerId = "17A5F7C0-AED1-4270-89BA-BFDC1003B8A5";
paths = (
{
closed = 1;
nodes = (
"522 0 LINE SMOOTH",
"573 0 OFFCURVE",
"644 71 OFFCURVE",
"644 121 QCURVE SMOOTH",
"644 580 LINE",
"562 580 LINE",
"562 121 LINE SMOOTH",
"562 105 OFFCURVE",
"538 82 OFFCURVE",
"522 82 QCURVE SMOOTH",
"174 82 LINE SMOOTH",
"158 82 OFFCURVE",
"135 105 OFFCURVE",
"135 121 QCURVE SMOOTH",
"135 580 LINE",
"53 580 LINE",
"53 121 LINE SMOOTH",
"53 71 OFFCURVE",
"124 0 OFFCURVE",
"174 0 QCURVE SMOOTH"
);
}
);
width = 695;
},
{
anchors = (
{
name = top;
position = "{347, 579}";
}
);
layerId = "D465923C-ABAE-4975-85A4-08C1BC9DA335";
paths = (
{
closed = 1;
nodes = (
"496 0 LINE SMOOTH",
"556 0 OFFCURVE",
"641 86 OFFCURVE",
"641 145 QCURVE SMOOTH",
"641 580 LINE",
"488 580 LINE",
"488 186 LINE SMOOTH",
"488 153 OFFCURVE",
"488 153 OFFCURVE",
"455 153 QCURVE SMOOTH",
"239 153 LINE SMOOTH",
"206 153 OFFCURVE",
"206 153 OFFCURVE",
"206 186 QCURVE SMOOTH",
"206 580 LINE",
"53 580 LINE",
"53 145 LINE SMOOTH",
"53 86 OFFCURVE",
"138 0 OFFCURVE",
"198 0 QCURVE SMOOTH"
);
}
);
width = 695;
}
);
unicode = 0075;
},
{
color = 5;
glyphname = v;
layers = (
{
layerId = "17A5F7C0-AED1-4270-89BA-BFDC1003B8A5";
paths = (
{
closed = 1;
nodes = (
"436 0 LINE",
"757 579 LINE",
"757 580 LINE",
"661 580 LINE",
"389 80 LINE",
"117 580 LINE",
"21 580 LINE",
"21 579 LINE",
"341 0 LINE"
);
}
);
width = 790;
},
{
layerId = "D465923C-ABAE-4975-85A4-08C1BC9DA335";
paths = (
{
closed = 1;
nodes = (
"445 0 LINE",
"738 530 LINE",
"738 580 LINE",
"589 580 LINE",
"380 195 LINE",
"171 580 LINE",
"24 580 LINE",
"24 530 LINE",
"314 0 LINE"
);
}
);
width = 762;
}
);
unicode = 0076;
},
{
color = 5;
glyphname = w;
layers = (
{
layerId = "17A5F7C0-AED1-4270-89BA-BFDC1003B8A5";
paths = (
{
closed = 1;
nodes = (
"335 0 LINE",
"540 479 LINE",
"756 0 LINE",
"827 0 LINE",
"1046 579 LINE",
"1046 580 LINE",
"957 580 LINE",
"793 149 LINE",
"594 580 LINE",
"486 580 LINE",
"299 148 LINE",
"123 580 LINE",
"35 580 LINE",
"35 579 LINE",
"263 0 LINE"
);
}
);
width = 1071;
},
{
layerId = "D465923C-ABAE-4975-85A4-08C1BC9DA335";
paths = (
{
closed = 1;
nodes = (
"346 0 LINE",
"496 346 LINE",
"653 0 LINE",
"769 0 LINE",
"970 530 LINE",
"970 580 LINE",
"825 580 LINE",
"709 275 LINE",
"569 580 LINE",
"421 580 LINE",
"290 279 LINE",
"165 580 LINE",
"24 580 LINE",
"24 530 LINE",
"231 0 LINE"
);
}
);
width = 994;
}
);
unicode = 0077;
},
{
color = 5;
glyphname = x;
layers = (
{
layerId = "17A5F7C0-AED1-4270-89BA-BFDC1003B8A5";
paths = (
{
closed = 1;
nodes = (
"154 0 LINE",
"342 232 LINE",
"531 0 LINE",
"639 0 LINE",
"639 1 LINE",
"396 295 LINE",
"638 579 LINE",
"638 580 LINE",
"531 580 LINE",
"342 360 LINE",
"154 580 LINE",
"46 580 LINE",
"46 579 LINE",
"288 295 LINE",
"46 1 LINE",
"46 0 LINE"
);
}
);
width = 692;
},
{
layerId = "D465923C-ABAE-4975-85A4-08C1BC9DA335";
paths = (
{
closed = 1;
nodes = (
"203 0 LINE",
"345 174 LINE",
"487 0 LINE",
"644 0 LINE",
"644 50 LINE",
"444 295 LINE",
"644 530 LINE",
"644 580 LINE",
"486 580 LINE",
"345 412 LINE",
"203 580 LINE",
"46 580 LINE",
"46 530 LINE",
"246 295 LINE",
"46 50 LINE",
"46 0 LINE"
);
}
);
width = 692;
}
);
unicode = 0078;
},
{
color = 5;
glyphname = y;
layers = (
{
anchors = (
{
name = top;
position = "{337, 580}";
}
);
layerId = "17A5F7C0-AED1-4270-89BA-BFDC1003B8A5";
paths = (
{
closed = 1;
nodes = (
"511 -230 LINE SMOOTH",
"562 -230 OFFCURVE",
"632 -159 OFFCURVE",
"632 -108 QCURVE SMOOTH",
"632 578 LINE",
"550 578 LINE",
"550 121 LINE SMOOTH",
"550 105 OFFCURVE",
"527 82 OFFCURVE",
"511 82 QCURVE SMOOTH",
"163 82 LINE SMOOTH",
"147 82 OFFCURVE",
"124 105 OFFCURVE",
"124 121 QCURVE SMOOTH",
"124 578 LINE",
"42 578 LINE",
"42 121 LINE SMOOTH",
"42 71 OFFCURVE",
"113 0 OFFCURVE",
"163 0 QCURVE SMOOTH",
"550 0 LINE",
"550 -108 LINE SMOOTH",
"550 -124 OFFCURVE",
"527 -147 OFFCURVE",
"511 -147 QCURVE SMOOTH",
"149 -147 LINE",
"149 -230 LINE"
);
}
);
width = 685;
},
{
anchors = (
{
name = top;
position = "{336, 580}";
}
);
layerId = "D465923C-ABAE-4975-85A4-08C1BC9DA335";
paths = (
{
closed = 1;
nodes = (
"486 -208 LINE SMOOTH",
"546 -208 OFFCURVE",
"631 -123 OFFCURVE",
"631 -63 QCURVE SMOOTH",
"631 578 LINE",
"478 578 LINE",
"478 186 LINE SMOOTH",
"478 153 OFFCURVE",
"478 153 OFFCURVE",
"445 153 QCURVE SMOOTH",
"228 153 LINE SMOOTH",
"195 153 OFFCURVE",
"195 153 OFFCURVE",
"195 186 QCURVE SMOOTH",
"195 578 LINE",
"42 578 LINE",
"42 145 LINE SMOOTH",
"42 86 OFFCURVE",
"128 0 OFFCURVE",
"188 0 QCURVE SMOOTH",
"478 0 LINE",
"478 -21 LINE SMOOTH",
"478 -54 OFFCURVE",
"478 -54 OFFCURVE",
"445 -54 QCURVE SMOOTH",
"134 -54 LINE",
"134 -208 LINE"
);
}
);
width = 685;
}
);
unicode = 0079;
},
{
color = 5;
glyphname = z;
layers = (
{
anchors = (
{
name = top;
position = "{342, 580}";
}
);
layerId = "17A5F7C0-AED1-4270-89BA-BFDC1003B8A5";
paths = (
{
closed = 1;
nodes = (
"645 0 LINE",
"645 82 LINE",
"144 82 LINE",
"645 468 LINE",
"645 580 LINE",
"54 580 LINE",
"54 498 LINE",
"555 498 LINE",
"54 112 LINE",
"54 0 LINE"
);
}
);
width = 698;
},
{
anchors = (
{
name = top;
position = "{348, 580}";
}
);
layerId = "D465923C-ABAE-4975-85A4-08C1BC9DA335";
paths = (
{
closed = 1;
nodes = (
"642 0 LINE",
"642 153 LINE",
"293 153 LINE",
"642 423 LINE",
"642 580 LINE",
"54 580 LINE",
"54 427 LINE",
"403 427 LINE",
"54 157 LINE",
"54 0 LINE"
);
}
);
width = 698;
}
);
unicode = 007A;
},
{
color = 5;
glyphname = a.alt;
layers = (
{
layerId = "17A5F7C0-AED1-4270-89BA-BFDC1003B8A5";
paths = (
{
closed = 1;
nodes = (
"642 0 LINE",
"642 459 LINE SMOOTH",
"642 509 OFFCURVE",
"570.746 580 OFFCURVE",
"520 580 QCURVE SMOOTH",
"172 580 LINE SMOOTH",
"122 580 OFFCURVE",
"51 509 OFFCURVE",
"51 459 QCURVE SMOOTH",
"51 121 LINE SMOOTH",
"51 71 OFFCURVE",
"122 0 OFFCURVE",
"172 0 QCURVE SMOOTH"
);
},
{
closed = 1;
nodes = (
"156.328 82 OFFCURVE",
"133 105.328 OFFCURVE",
"133 121 QCURVE SMOOTH",
"133 459 LINE SMOOTH",
"133 474.672 OFFCURVE",
"156.328 498 OFFCURVE",
"172 498 QCURVE SMOOTH",
"520 498 LINE SMOOTH",
"536.418 498 OFFCURVE",
"559 474.672 OFFCURVE",
"559 459 QCURVE SMOOTH",
"559 82 LINE",
"172 82 LINE SMOOTH"
);
}
);
width = 693;
},
{
layerId = "D465923C-ABAE-4975-85A4-08C1BC9DA335";
paths = (
{
closed = 1;
nodes = (
"639 0 LINE",
"639 435 LINE SMOOTH",
"639 493.955 OFFCURVE",
"554 580 OFFCURVE",
"494 580 QCURVE SMOOTH",
"196 580 LINE SMOOTH",
"137 580 OFFCURVE",
"51 493.955 OFFCURVE",
"51 435 QCURVE SMOOTH",
"51 145 LINE SMOOTH",
"51 86.045 OFFCURVE",
"137.045 0 OFFCURVE",
"196 0 QCURVE SMOOTH"
);
},
{
closed = 1;
nodes = (
"204 153 OFFCURVE",
"204 153 OFFCURVE",
"204 186 QCURVE SMOOTH",
"204 394 LINE SMOOTH",
"204 427 OFFCURVE",
"204 427 OFFCURVE",
"237 427 QCURVE SMOOTH",
"453 427 LINE SMOOTH",
"486 427 OFFCURVE",
"486 427 OFFCURVE",
"486 394 QCURVE SMOOTH",
"486 153 LINE",
"237 153 LINE SMOOTH"
);
}
);
width = 693;
}
);
},
{
color = 5;
glyphname = k.alt;
layers = (
{
layerId = "17A5F7C0-AED1-4270-89BA-BFDC1003B8A5";
paths = (
{
closed = 1;
nodes = (
"136 0 LINE",
"136 249 LINE",
"524 249 LINE SMOOTH",
"539.672 249 OFFCURVE",
"563 225.672 OFFCURVE",
"563 210 QCURVE SMOOTH",
"563 0 LINE",
"645 0 LINE",
"645 210 LINE SMOOTH",
"645 229.403 OFFCURVE",
"629.433 271.343 OFFCURVE",
"616 290 QCURVE",
"629.433 308.657 OFFCURVE",
"645 350.597 OFFCURVE",
"645 370 QCURVE SMOOTH",
"645 580 LINE",
"563 580 LINE",
"563 370 LINE SMOOTH",
"563 354.328 OFFCURVE",
"539.672 331 OFFCURVE",
"524 331 QCURVE SMOOTH",
"136 331 LINE",
"136 770 LINE",
"54 770 LINE",
"54 0 LINE"
);
}
);
width = 669;
},
{
layerId = "D465923C-ABAE-4975-85A4-08C1BC9DA335";
paths = (
{
closed = 1;
nodes = (
"207 0 LINE",
"207 213 LINE",
"456 213 LINE SMOOTH",
"489 213 OFFCURVE",
"489 213 OFFCURVE",
"489 180 QCURVE SMOOTH",
"489 0 LINE",
"642 0 LINE",
"642 222 LINE SMOOTH",
"642 238.418 OFFCURVE",
"623.209 274.328 OFFCURVE",
"615 290 QCURVE",
"623.209 305.672 OFFCURVE",
"642 340.836 OFFCURVE",
"642 358 QCURVE SMOOTH",
"642 580 LINE",
"489 580 LINE",
"489 400 LINE SMOOTH",
"489 367 OFFCURVE",
"489 367 OFFCURVE",
"456 367 QCURVE SMOOTH",
"207 367 LINE",
"207 752 LINE",
"54 752 LINE",
"54 0 LINE"
);
}
);
width = 669;
}
);
},
{
color = 5;
glyphname = v.alt;
layers = (
{
layerId = "17A5F7C0-AED1-4270-89BA-BFDC1003B8A5";
paths = (
{
closed = 1;
nodes = (
"644 0 LINE",
"644 580 LINE",
"562 580 LINE",
"562 82 LINE",
"174 82 LINE SMOOTH",
"158.328 82 OFFCURVE",
"135 105.328 OFFCURVE",
"135 121 QCURVE SMOOTH",
"135 580 LINE",
"53 580 LINE",
"53 121 LINE SMOOTH",
"53 71 OFFCURVE",
"124 0 OFFCURVE",
"174 0 QCURVE SMOOTH"
);
}
);
width = 697;
},
{
layerId = "D465923C-ABAE-4975-85A4-08C1BC9DA335";
paths = (
{
closed = 1;
nodes = (
"641 0 LINE",
"641 580 LINE",
"488 580 LINE",
"488 153 LINE",
"239 153 LINE SMOOTH",
"206 153 OFFCURVE",
"206 153 OFFCURVE",
"206 186 QCURVE SMOOTH",
"206 580 LINE",
"53 580 LINE",
"53 145 LINE SMOOTH",
"53 86.045 OFFCURVE",
"138.299 0 OFFCURVE",
"198 0 QCURVE SMOOTH"
);
}
);
width = 697;
}
);
},
{
color = 5;
glyphname = w.alt;
layers = (
{
layerId = "17A5F7C0-AED1-4270-89BA-BFDC1003B8A5";
paths = (
{
closed = 1;
nodes = (
"940 0 LINE",
"940 580 LINE",
"858 580 LINE",
"858 121 LINE SMOOTH",
"858 105.328 OFFCURVE",
"834.672 82 OFFCURVE",
"819 82 QCURVE SMOOTH",
"576 82 LINE SMOOTH",
"560.328 82 OFFCURVE",
"537 105.328 OFFCURVE",
"537 121 QCURVE SMOOTH",
"537 580 LINE",
"455 580 LINE",
"455 121 LINE SMOOTH",
"455 105.328 OFFCURVE",
"431.672 82 OFFCURVE",
"416 82 QCURVE SMOOTH",
"175 82 LINE SMOOTH",
"158.582 82 OFFCURVE",
"135 105.328 OFFCURVE",
"135 121 QCURVE SMOOTH",
"135 580 LINE",
"53 580 LINE",
"53 121 LINE SMOOTH",
"53 71 OFFCURVE",
"124.254 0 OFFCURVE",
"175 0 QCURVE SMOOTH"
);
}
);
width = 978;
},
{
layerId = "D465923C-ABAE-4975-85A4-08C1BC9DA335";
paths = (
{
closed = 1;
nodes = (
"896 0 LINE",
"896 580 LINE",
"743 580 LINE",
"743 186 LINE SMOOTH",
"743 153 OFFCURVE",
"743 153 OFFCURVE",
"710 153 QCURVE SMOOTH",
"584 153 LINE SMOOTH",
"551 153 OFFCURVE",
"551 153 OFFCURVE",
"551 186 QCURVE SMOOTH",
"551 580 LINE",
"397 580 LINE",
"397 186 LINE SMOOTH",
"397 153 OFFCURVE",
"397 153 OFFCURVE",
"364 153 QCURVE SMOOTH",
"238 153 LINE SMOOTH",
"205 153 OFFCURVE",
"205 153 OFFCURVE",
"205 186 QCURVE SMOOTH",
"205 580 LINE",
"53 580 LINE",
"53 145 LINE SMOOTH",
"53 86.045 OFFCURVE",
"139.299 0 OFFCURVE",
"199 0 QCURVE SMOOTH"
);
}
);
width = 978;
}
);
},
{
color = 5;
glyphname = x.alt;
layers = (
{
layerId = "17A5F7C0-AED1-4270-89BA-BFDC1003B8A5";
paths = (
{
closed = 1;
nodes = (
"136 0 LINE",
"136 210 LINE SMOOTH",
"136 225.672 OFFCURVE",
"159.582 249 OFFCURVE",
"176 249 QCURVE SMOOTH",
"524 249 LINE SMOOTH",
"539.672 249 OFFCURVE",
"563 225.672 OFFCURVE",
"563 210 QCURVE SMOOTH",
"563 0 LINE",
"645 0 LINE",
"645 210 LINE SMOOTH",
"645 229.403 OFFCURVE",
"629.433 271.343 OFFCURVE",
"616 290 QCURVE",
"629.433 308.657 OFFCURVE",
"645 350.597 OFFCURVE",
"645 370 QCURVE SMOOTH",
"645 580 LINE",
"563 580 LINE",
"563 370 LINE SMOOTH",
"563 354.328 OFFCURVE",
"539.672 331 OFFCURVE",
"524 331 QCURVE SMOOTH",
"176 331 LINE SMOOTH",
"159.582 331 OFFCURVE",
"136 354.328 OFFCURVE",
"136 370 QCURVE SMOOTH",
"136 580 LINE",
"54 580 LINE",
"54 370 LINE SMOOTH",
"54 350.597 OFFCURVE",
"69.567 308.657 OFFCURVE",
"83 290 QCURVE",
"69.567 271.343 OFFCURVE",
"54 229.403 OFFCURVE",
"54 210 QCURVE SMOOTH",
"54 0 LINE"
);
}
);
width = 698;
},
{
layerId = "D465923C-ABAE-4975-85A4-08C1BC9DA335";
paths = (
{
closed = 1;
nodes = (
"207 0 LINE",
"207 180 LINE SMOOTH",
"207 213 OFFCURVE",
"207 213 OFFCURVE",
"240 213 QCURVE SMOOTH",
"456 213 LINE SMOOTH",
"489 213 OFFCURVE",
"489 213 OFFCURVE",
"489 180 QCURVE SMOOTH",
"489 0 LINE",
"642 0 LINE",
"642 222 LINE SMOOTH",
"642 238.418 OFFCURVE",
"623.209 274.328 OFFCURVE",
"615 290 QCURVE",
"623.209 305.672 OFFCURVE",
"642 340.836 OFFCURVE",
"642 358 QCURVE SMOOTH",
"642 580 LINE",
"489 580 LINE",
"489 400 LINE SMOOTH",
"489 367 OFFCURVE",
"489 367 OFFCURVE",
"456 367 QCURVE SMOOTH",
"240 367 LINE SMOOTH",
"207 367 OFFCURVE",
"207 367 OFFCURVE",
"207 400 QCURVE SMOOTH",
"207 580 LINE",
"54 580 LINE",
"54 358 LINE SMOOTH",
"54 340.836 OFFCURVE",
"72.791 305.672 OFFCURVE",
"81 290 QCURVE",
"72.791 274.328 OFFCURVE",
"54 238.418 OFFCURVE",
"54 222 QCURVE SMOOTH",
"54 0 LINE"
);
}
);
width = 698;
}
);
},
{
color = 5;
glyphname = z.alt;
layers = (
{
layerId = "17A5F7C0-AED1-4270-89BA-BFDC1003B8A5";
paths = (
{
closed = 1;
nodes = (
"642 0 LINE",
"642 82 LINE",
"172 82 LINE SMOOTH",
"156.328 82 OFFCURVE",
"133 105.328 OFFCURVE",
"133 121 QCURVE SMOOTH",
"133 210 LINE SMOOTH",
"133 225.672 OFFCURVE",
"156.328 249 OFFCURVE",
"172 249 QCURVE SMOOTH",
"520 249 LINE SMOOTH",
"570.746 249 OFFCURVE",
"642 320 OFFCURVE",
"642 370 QCURVE SMOOTH",
"642 459 LINE SMOOTH",
"642 509 OFFCURVE",
"570.746 580 OFFCURVE",
"520 580 QCURVE SMOOTH",
"51 580 LINE",
"51 498 LINE",
"520 498 LINE SMOOTH",
"536.418 498 OFFCURVE",
"559 474.672 OFFCURVE",
"559 459 QCURVE SMOOTH",
"559 370 LINE SMOOTH",
"559 354.328 OFFCURVE",
"536.418 331 OFFCURVE",
"520 331 QCURVE SMOOTH",
"172 331 LINE SMOOTH",
"122 331 OFFCURVE",
"51 260 OFFCURVE",
"51 210 QCURVE SMOOTH",
"51 121 LINE SMOOTH",
"51 71 OFFCURVE",
"122 0 OFFCURVE",
"172 0 QCURVE SMOOTH"
);
}
);
width = 692;
},
{
layerId = "D465923C-ABAE-4975-85A4-08C1BC9DA335";
paths = (
{
closed = 1;
nodes = (
"639 0 LINE",
"639 153 LINE",
"220 153 LINE SMOOTH",
"204 153 OFFCURVE",
"204 153 OFFCURVE",
"204 169 QCURVE SMOOTH",
"204 197 LINE SMOOTH",
"204 213 OFFCURVE",
"204 213 OFFCURVE",
"220 213 QCURVE SMOOTH",
"494 213 LINE SMOOTH",
"553.701 213 OFFCURVE",
"639 299.045 OFFCURVE",
"639 358 QCURVE SMOOTH",
"639 435 LINE SMOOTH",
"639 493.955 OFFCURVE",
"553.701 580 OFFCURVE",
"494 580 QCURVE SMOOTH",
"51 580 LINE",
"51 427 LINE",
"470 427 LINE SMOOTH",
"486 427 OFFCURVE",
"486 427 OFFCURVE",
"486 411 QCURVE SMOOTH",
"486 383 LINE SMOOTH",
"486 367 OFFCURVE",
"486 367 OFFCURVE",
"470 367 QCURVE SMOOTH",
"196 367 LINE SMOOTH",
"137.045 367 OFFCURVE",
"51 280.955 OFFCURVE",
"51 222 QCURVE SMOOTH",
"51 145 LINE SMOOTH",
"51 86.045 OFFCURVE",
"137.045 0 OFFCURVE",
"196 0 QCURVE SMOOTH"
);
}
);
width = 692;
}
);
},
{
color = 7;
export = 0;
glyphname = eth;
layers = (
{
layerId = "17A5F7C0-AED1-4270-89BA-BFDC1003B8A5";
paths = (
{
closed = 1;
nodes = (
"614 0 LINE",
"614 647 LINE",
"667 647 LINE",
"667 710 LINE",
"614 710 LINE",
"614 770 LINE",
"532 770 LINE",
"532 710 LINE",
"382 710 LINE",
"382 647 LINE",
"532 647 LINE",
"532 580 LINE",
"145 580 LINE SMOOTH",
"96 580 OFFCURVE",
"23 514 OFFCURVE",
"23 459 QCURVE SMOOTH",
"23 121 LINE SMOOTH",
"23 66 OFFCURVE",
"96 0 OFFCURVE",
"145 0 QCURVE SMOOTH"
);
},
{
closed = 1;
nodes = (
"128 82 OFFCURVE",
"106 99 OFFCURVE",
"106 121 QCURVE SMOOTH",
"106 459 LINE SMOOTH",
"106 481 OFFCURVE",
"128 498 OFFCURVE",
"145 498 QCURVE SMOOTH",
"493 498 LINE SMOOTH",
"513 498 OFFCURVE",
"532 471 OFFCURVE",
"532 459 QCURVE SMOOTH",
"532 121 LINE SMOOTH",
"532 109 OFFCURVE",
"513 82 OFFCURVE",
"493 82 QCURVE SMOOTH",
"145 82 LINE SMOOTH"
);
}
);
width = 667;
},
{
layerId = "D465923C-ABAE-4975-85A4-08C1BC9DA335";
paths = (
{
closed = 1;
nodes = (
"612 0 LINE",
"612 647 LINE",
"667 647 LINE",
"667 710 LINE",
"612 710 LINE",
"612 770 LINE",
"459 770 LINE",
"459 710 LINE",
"322 710 LINE",
"322 647 LINE",
"459 647 LINE",
"459 580 LINE",
"168 580 LINE SMOOTH",
"99 580 OFFCURVE",
"23 494 OFFCURVE",
"23 435 QCURVE SMOOTH",
"23 145 LINE SMOOTH",
"23 76 OFFCURVE",
"109 0 OFFCURVE",
"168 0 QCURVE SMOOTH"
);
},
{
closed = 1;
nodes = (
"177 153 OFFCURVE",
"177 153 OFFCURVE",
"177 186 QCURVE SMOOTH",
"177 394 LINE SMOOTH",
"177 427 OFFCURVE",
"177 427 OFFCURVE",
"210 427 QCURVE SMOOTH",
"426 427 LINE SMOOTH",
"459 427 OFFCURVE",
"459 427 OFFCURVE",
"459 394 QCURVE SMOOTH",
"459 186 LINE SMOOTH",
"459 153 OFFCURVE",
"459 153 OFFCURVE",
"426 153 QCURVE SMOOTH",
"210 153 LINE SMOOTH"
);
}
);
width = 667;
}
);
unicode = 00F0;
},
{
color = 7;
export = 0;
glyphname = oslash;
layers = (
{
anchors = (
{
name = bottom;
position = "{345, 0}";
},
{
name = top;
position = "{345, 580}";
}
);
layerId = "17A5F7C0-AED1-4270-89BA-BFDC1003B8A5";
paths = (
{
closed = 1;
nodes = (
"58 -66 LINE",
"124 0 LINE",
"517 0 LINE SMOOTH",
"568 0 OFFCURVE",
"639 71 OFFCURVE",
"639 121 QCURVE SMOOTH",
"639 515 LINE",
"692 568 LINE",
"634 626 LINE",
"588 580 LINE",
"169 580 LINE SMOOTH",
"119 580 OFFCURVE",
"48 509 OFFCURVE",
"48 459 QCURVE SMOOTH",
"48 40 LINE",
"0 -8 LINE"
);
},
{
closed = 1;
nodes = (
"130 459 LINE SMOOTH",
"130 475 OFFCURVE",
"153 498 OFFCURVE",
"169 498 QCURVE SMOOTH",
"506 498 LINE",
"130 122 LINE"
);
},
{
closed = 1;
nodes = (
"556 432 LINE",
"556 121 LINE SMOOTH",
"556 105 OFFCURVE",
"533 82 OFFCURVE",
"517 82 QCURVE SMOOTH",
"206 82 LINE"
);
}
);
width = 692;
},
{
anchors = (
{
name = bottom;
position = "{342, -2}";
},
{
name = top;
position = "{342, 578}";
}
);
layerId = "D465923C-ABAE-4975-85A4-08C1BC9DA335";
paths = (
{
closed = 1;
nodes = (
"73 -90 LINE",
"163 0 LINE",
"491 0 LINE SMOOTH",
"560 0 OFFCURVE",
"636 76 OFFCURVE",
"636 145 QCURVE SMOOTH",
"636 473 LINE",
"715 552 LINE",
"606 662 LINE",
"524 580 LINE",
"193 580 LINE SMOOTH",
"124 580 OFFCURVE",
"48 504 OFFCURVE",
"48 435 QCURVE SMOOTH",
"48 104 LINE",
"-36 20 LINE"
);
},
{
closed = 1;
nodes = (
"201 394 LINE SMOOTH",
"201 427 OFFCURVE",
"201 427 OFFCURVE",
"234 427 QCURVE SMOOTH",
"371 427 LINE",
"201 257 LINE"
);
},
{
closed = 1;
nodes = (
"483 320 LINE",
"483 186 LINE SMOOTH",
"483 153 OFFCURVE",
"483 153 OFFCURVE",
"450 153 QCURVE SMOOTH",
"316 153 LINE"
);
}
);
width = 692;
}
);
unicode = 00F8;
},
{
color = 7;
export = 0;
glyphname = thorn;
layers = (
{
layerId = "17A5F7C0-AED1-4270-89BA-BFDC1003B8A5";
paths = (
{
closed = 1;
nodes = (
"136 -230 LINE",
"136 0 LINE",
"524 0 LINE SMOOTH",
"574 0 OFFCURVE",
"645 71 OFFCURVE",
"645 121 QCURVE SMOOTH",
"645 349 LINE SMOOTH",
"645 399 OFFCURVE",
"574 470 OFFCURVE",
"524 470 QCURVE SMOOTH",
"136 470 LINE",
"136 720 LINE",
"54 720 LINE",
"54 -230 LINE"
);
},
{
closed = 1;
nodes = (
"159.582 82 OFFCURVE",
"136 105.328 OFFCURVE",
"136 121 QCURVE SMOOTH",
"136 349 LINE SMOOTH",
"136 365 OFFCURVE",
"160 388 OFFCURVE",
"176 388 QCURVE SMOOTH",
"524 388 LINE SMOOTH",
"540 388 OFFCURVE",
"563 365 OFFCURVE",
"563 349 QCURVE SMOOTH",
"563 121 LINE SMOOTH",
"563 105.328 OFFCURVE",
"539.672 82 OFFCURVE",
"524 82 QCURVE SMOOTH",
"176 82 LINE SMOOTH"
);
}
);
width = 664;
},
{
layerId = "D465923C-ABAE-4975-85A4-08C1BC9DA335";
paths = (
{
closed = 1;
nodes = (
"207 -230 LINE",
"207 0 LINE",
"497 0 LINE SMOOTH",
"556.701 0 OFFCURVE",
"642 86.045 OFFCURVE",
"642 145 QCURVE SMOOTH",
"642 365 LINE SMOOTH",
"642 424 OFFCURVE",
"557 510 OFFCURVE",
"497 510 QCURVE SMOOTH",
"212 510 LINE",
"212 720 LINE",
"54 720 LINE",
"54 -230 LINE"
);
},
{
closed = 1;
nodes = (
"207 153 OFFCURVE",
"207 153 OFFCURVE",
"207 186 QCURVE SMOOTH",
"207 324 LINE SMOOTH",
"207 357 OFFCURVE",
"207 357 OFFCURVE",
"240 357 QCURVE SMOOTH",
"456 357 LINE SMOOTH",
"489 357 OFFCURVE",
"489 357 OFFCURVE",
"489 324 QCURVE SMOOTH",
"489 186 LINE SMOOTH",
"489 153 OFFCURVE",
"489 153 OFFCURVE",
"456 153 QCURVE SMOOTH",
"240 153 LINE SMOOTH"
);
}
);
width = 664;
}
);
unicode = 00FE;
},
{
color = 5;
glyphname = a.sc;
layers = (
{
layerId = "17A5F7C0-AED1-4270-89BA-BFDC1003B8A5";
paths = (
{
closed = 1;
nodes = (
"135 0 LINE",
"135 160 LINE",
"593 160 LINE",
"593 0 LINE",
"675 0 LINE",
"675 459 LINE SMOOTH",
"675 509 OFFCURVE",
"604 580 OFFCURVE",
"554 580 QCURVE SMOOTH",
"174 580 LINE SMOOTH",
"124 580 OFFCURVE",
"53 509 OFFCURVE",
"53 459 QCURVE SMOOTH",
"53 0 LINE"
);
},
{
closed = 1;
nodes = (
"135 459 LINE SMOOTH",
"135 474.672 OFFCURVE",
"158.328 498 OFFCURVE",
"174 498 QCURVE SMOOTH",
"554 498 LINE SMOOTH",
"569.672 498 OFFCURVE",
"593 474.672 OFFCURVE",
"593 459 QCURVE SMOOTH",
"593 243 LINE",
"135 243 LINE"
);
}
);
width = 725;
},
{
layerId = "D465923C-ABAE-4975-85A4-08C1BC9DA335";
paths = (
{
closed = 1;
nodes = (
"206 0 LINE",
"206 138 LINE",
"516 138 LINE",
"516 0 LINE",
"669 0 LINE",
"669 435 LINE SMOOTH",
"669 493.955 OFFCURVE",
"583.701 580 OFFCURVE",
"524 580 QCURVE SMOOTH",
"199 580 LINE SMOOTH",
"139.299 580 OFFCURVE",
"53 493.955 OFFCURVE",
"53 435 QCURVE SMOOTH",
"53 0 LINE"
);
},
{
closed = 1;
nodes = (
"206 394 LINE SMOOTH",
"206 427 OFFCURVE",
"206 427 OFFCURVE",
"239 427 QCURVE SMOOTH",
"483 427 LINE SMOOTH",
"516 427 OFFCURVE",
"516 427 OFFCURVE",
"516 394 QCURVE SMOOTH",
"516 291 LINE",
"206 291 LINE"
);
}
);
width = 725;
}
);
},
{
color = 5;
glyphname = b.sc;
layers = (
{
layerId = "17A5F7C0-AED1-4270-89BA-BFDC1003B8A5";
paths = (
{
closed = 1;
nodes = (
"534 0 LINE SMOOTH",
"584 0 OFFCURVE",
"655 71 OFFCURVE",
"655 121 QCURVE SMOOTH",
"655 207 LINE SMOOTH",
"655 232.373 OFFCURVE",
"632.91 279.582 OFFCURVE",
"611 314 QCURVE",
"616.224 325.94 OFFCURVE",
"624 352.821 OFFCURVE",
"624 367 QCURVE SMOOTH",
"624 460 LINE SMOOTH",
"624 510 OFFCURVE",
"552.746 581 OFFCURVE",
"502 581 QCURVE SMOOTH",
"54 581 LINE",
"54 0 LINE"
);
},
{
closed = 1;
nodes = (
"159.328 82 OFFCURVE",
"136 105.328 OFFCURVE",
"136 121 QCURVE SMOOTH",
"136 207 LINE SMOOTH",
"136 222.672 OFFCURVE",
"159.328 246 OFFCURVE",
"175 246 QCURVE SMOOTH",
"534 246 LINE SMOOTH",
"549.672 246 OFFCURVE",
"573 222.672 OFFCURVE",
"573 207 QCURVE SMOOTH",
"573 121 LINE SMOOTH",
"573 105.328 OFFCURVE",
"549.672 82 OFFCURVE",
"534 82 QCURVE SMOOTH",
"175 82 LINE SMOOTH"
);
},
{
closed = 1;
nodes = (
"159.328 328 OFFCURVE",
"136 351.328 OFFCURVE",
"136 367 QCURVE SMOOTH",
"136 460 LINE SMOOTH",
"136 475.672 OFFCURVE",
"159.328 499 OFFCURVE",
"175 499 QCURVE SMOOTH",
"502 499 LINE SMOOTH",
"517.672 499 OFFCURVE",
"541 475.672 OFFCURVE",
"541 460 QCURVE SMOOTH",
"541 367 LINE SMOOTH",
"541 351.328 OFFCURVE",
"517.672 328 OFFCURVE",
"502 328 QCURVE SMOOTH",
"175 328 LINE SMOOTH"
);
}
);
width = 700;
},
{
layerId = "D465923C-ABAE-4975-85A4-08C1BC9DA335";
paths = (
{
closed = 1;
nodes = (
"507 0 LINE SMOOTH",
"565.955 0 OFFCURVE",
"652 86.045 OFFCURVE",
"652 145 QCURVE SMOOTH",
"652 219 LINE SMOOTH",
"652 245.119 OFFCURVE",
"634.672 292.343 OFFCURVE",
"619 311 QCURVE",
"621.985 321.448 OFFCURVE",
"624 343.313 OFFCURVE",
"624 356 QCURVE SMOOTH",
"624 435 LINE SMOOTH",
"624 494.702 OFFCURVE",
"538.701 581 OFFCURVE",
"479 581 QCURVE SMOOTH",
"54 581 LINE",
"54 0 LINE"
);
},
{
closed = 1;
nodes = (
"207 153 OFFCURVE",
"207 153 OFFCURVE",
"207 169 QCURVE SMOOTH",
"207 205 LINE SMOOTH",
"207 221 OFFCURVE",
"207 221 OFFCURVE",
"223 221 QCURVE SMOOTH",
"483 221 LINE SMOOTH",
"499 221 OFFCURVE",
"499 221 OFFCURVE",
"499 205 QCURVE SMOOTH",
"499 169 LINE SMOOTH",
"499 153 OFFCURVE",
"499 153 OFFCURVE",
"483 153 QCURVE SMOOTH",
"223 153 LINE SMOOTH"
);
},
{
closed = 1;
nodes = (
"207 364 OFFCURVE",
"207 364 OFFCURVE",
"207 380 QCURVE SMOOTH",
"207 422 LINE SMOOTH",
"207 438 OFFCURVE",
"207 438 OFFCURVE",
"223 438 QCURVE SMOOTH",
"455 438 LINE SMOOTH",
"471 438 OFFCURVE",
"471 438 OFFCURVE",
"471 422 QCURVE SMOOTH",
"471 380 LINE SMOOTH",
"471 364 OFFCURVE",
"471 364 OFFCURVE",
"455 364 QCURVE SMOOTH",
"223 364 LINE SMOOTH"
);
}
);
width = 700;
}
);
},
{
color = 5;
glyphname = c.sc;
layers = (
{
layerId = "17A5F7C0-AED1-4270-89BA-BFDC1003B8A5";
paths = (
{
closed = 1;
nodes = (
"640 0 LINE",
"640 82 LINE",
"172 82 LINE SMOOTH",
"156.328 82 OFFCURVE",
"133 105.328 OFFCURVE",
"133 121 QCURVE SMOOTH",
"133 460 LINE SMOOTH",
"133 475.672 OFFCURVE",
"156.328 499 OFFCURVE",
"172 499 QCURVE SMOOTH",
"640 499 LINE",
"640 581 LINE",
"172 581 LINE SMOOTH",
"122 581 OFFCURVE",
"51 510 OFFCURVE",
"51 460 QCURVE SMOOTH",
"51 121 LINE SMOOTH",
"51 71 OFFCURVE",
"122 0 OFFCURVE",
"172 0 QCURVE SMOOTH"
);
}
);
width = 693;
},
{
layerId = "D465923C-ABAE-4975-85A4-08C1BC9DA335";
paths = (
{
closed = 1;
nodes = (
"638 0 LINE",
"638 153 LINE",
"237 153 LINE SMOOTH",
"204 153 OFFCURVE",
"204 153 OFFCURVE",
"204 186 QCURVE SMOOTH",
"204 395 LINE SMOOTH",
"204 428 OFFCURVE",
"204 428 OFFCURVE",
"237 428 QCURVE SMOOTH",
"638 428 LINE",
"638 581 LINE",
"196 581 LINE SMOOTH",
"136.299 581 OFFCURVE",
"51 494.702 OFFCURVE",
"51 435 QCURVE SMOOTH",
"51 145 LINE SMOOTH",
"51 86.045 OFFCURVE",
"136.299 0 OFFCURVE",
"196 0 QCURVE SMOOTH"
);
}
);
width = 693;
}
);
},
{
color = 5;
glyphname = d.sc;
layers = (
{
layerId = "17A5F7C0-AED1-4270-89BA-BFDC1003B8A5";
paths = (
{
closed = 1;
nodes = (
"534 0 LINE SMOOTH",
"584 0 OFFCURVE",
"655 71 OFFCURVE",
"655 121 QCURVE SMOOTH",
"655 460 LINE SMOOTH",
"655 510 OFFCURVE",
"584 581 OFFCURVE",
"534 581 QCURVE SMOOTH",
"54 581 LINE",
"54 0 LINE"
);
},
{
closed = 1;
nodes = (
"159.328 82 OFFCURVE",
"136 105.328 OFFCURVE",
"136 121 QCURVE SMOOTH",
"136 460 LINE SMOOTH",
"136 475.672 OFFCURVE",
"159.328 499 OFFCURVE",
"175 499 QCURVE SMOOTH",
"534 499 LINE SMOOTH",
"549.672 499 OFFCURVE",
"573 475.672 OFFCURVE",
"573 460 QCURVE SMOOTH",
"573 121 LINE SMOOTH",
"573 105.328 OFFCURVE",
"549.672 82 OFFCURVE",
"534 82 QCURVE SMOOTH",
"175 82 LINE SMOOTH"
);
}
);
width = 705;
},
{
layerId = "D465923C-ABAE-4975-85A4-08C1BC9DA335";
paths = (
{
closed = 1;
nodes = (
"507 0 LINE SMOOTH",
"565.955 0 OFFCURVE",
"652 86.045 OFFCURVE",
"652 145 QCURVE SMOOTH",
"652 435 LINE SMOOTH",
"652 494.702 OFFCURVE",
"565.955 581 OFFCURVE",
"507 581 QCURVE SMOOTH",
"54 581 LINE",
"54 0 LINE"
);
},
{
closed = 1;
nodes = (
"207 153 OFFCURVE",
"207 153 OFFCURVE",
"207 186 QCURVE SMOOTH",
"207 395 LINE SMOOTH",
"207 428 OFFCURVE",
"207 428 OFFCURVE",
"240 428 QCURVE SMOOTH",
"466 428 LINE SMOOTH",
"499 428 OFFCURVE",
"499 428 OFFCURVE",
"499 395 QCURVE SMOOTH",
"499 186 LINE SMOOTH",
"499 153 OFFCURVE",
"499 153 OFFCURVE",
"466 153 QCURVE SMOOTH",
"240 153 LINE SMOOTH"
);
}
);
width = 705;
}
);
},
{
color = 5;
glyphname = e.sc;
layers = (
{
layerId = "17A5F7C0-AED1-4270-89BA-BFDC1003B8A5";
paths = (
{
closed = 1;
nodes = (
"581 0 LINE",
"581 82 LINE",
"136 82 LINE",
"136 249 LINE",
"467 249 LINE",
"467 331 LINE",
"136 331 LINE",
"136 499 LINE",
"581 499 LINE",
"581 581 LINE",
"54 581 LINE",
"54 0 LINE"
);
}
);
width = 638;
},
{
layerId = "D465923C-ABAE-4975-85A4-08C1BC9DA335";
paths = (
{
closed = 1;
nodes = (
"589 0 LINE",
"589 153 LINE",
"207 153 LINE",
"207 213 LINE",
"492 213 LINE",
"492 367 LINE",
"207 367 LINE",
"207 428 LINE",
"589 428 LINE",
"589 581 LINE",
"54 581 LINE",
"54 0 LINE"
);
}
);
width = 638;
}
);
},
{
color = 5;
glyphname = f.sc;
layers = (
{
layerId = "17A5F7C0-AED1-4270-89BA-BFDC1003B8A5";
paths = (
{
closed = 1;
nodes = (
"136 0 LINE",
"136 249 LINE",
"467 249 LINE",
"467 331 LINE",
"136 331 LINE",
"136 499 LINE",
"581 499 LINE",
"581 581 LINE",
"54 581 LINE",
"54 0 LINE"
);
}
);
width = 591;
},
{
layerId = "D465923C-ABAE-4975-85A4-08C1BC9DA335";
paths = (
{
closed = 1;
nodes = (
"207 0 LINE",
"207 213 LINE",
"492 213 LINE",
"492 367 LINE",
"207 367 LINE",
"207 428 LINE",
"589 428 LINE",
"589 581 LINE",
"54 581 LINE",
"54 0 LINE"
);
}
);
width = 591;
}
);
},
{
color = 5;
glyphname = g.sc;
layers = (
{
layerId = "17A5F7C0-AED1-4270-89BA-BFDC1003B8A5";
paths = (
{
closed = 1;
nodes = (
"520 0 LINE SMOOTH",
"570.746 0 OFFCURVE",
"642 71 OFFCURVE",
"642 121 QCURVE SMOOTH",
"642 299 LINE",
"380 299 LINE",
"380 217 LINE",
"559 217 LINE",
"559 121 LINE SMOOTH",
"559 105.328 OFFCURVE",
"536.418 82 OFFCURVE",
"520 82 QCURVE SMOOTH",
"172 82 LINE SMOOTH",
"156.328 82 OFFCURVE",
"133 105.328 OFFCURVE",
"133 121 QCURVE SMOOTH",
"133 460 LINE SMOOTH",
"133 475.672 OFFCURVE",
"156.328 499 OFFCURVE",
"172 499 QCURVE SMOOTH",
"520 499 LINE SMOOTH",
"536.418 499 OFFCURVE",
"559 475.672 OFFCURVE",
"559 460 QCURVE SMOOTH",
"559 446 LINE",
"642 446 LINE",
"642 460 LINE SMOOTH",
"642 510 OFFCURVE",
"570.746 581 OFFCURVE",
"520 581 QCURVE SMOOTH",
"172 581 LINE SMOOTH",
"122 581 OFFCURVE",
"51 510 OFFCURVE",
"51 460 QCURVE SMOOTH",
"51 121 LINE SMOOTH",
"51 71 OFFCURVE",
"122 0 OFFCURVE",
"172 0 QCURVE SMOOTH"
);
}
);
width = 690;
},
{
layerId = "D465923C-ABAE-4975-85A4-08C1BC9DA335";
paths = (
{
closed = 1;
nodes = (
"494 0 LINE SMOOTH",
"553.701 0 OFFCURVE",
"639 86.045 OFFCURVE",
"639 145 QCURVE SMOOTH",
"639 339 LINE",
"342 339 LINE",
"342 196 LINE",
"486 196 LINE",
"486 169 LINE SMOOTH",
"486 153 OFFCURVE",
"486 153 OFFCURVE",
"470 153 QCURVE SMOOTH",
"237 153 LINE SMOOTH",
"204 153 OFFCURVE",
"204 153 OFFCURVE",
"204 186 QCURVE SMOOTH",
"204 395 LINE SMOOTH",
"204 428 OFFCURVE",
"204 428 OFFCURVE",
"237 428 QCURVE SMOOTH",
"470 428 LINE SMOOTH",
"486 428 OFFCURVE",
"486 428 OFFCURVE",
"486 412 QCURVE SMOOTH",
"486 402 LINE",
"639 402 LINE",
"639 435 LINE SMOOTH",
"639 494.702 OFFCURVE",
"553.701 581 OFFCURVE",
"494 581 QCURVE SMOOTH",
"196 581 LINE SMOOTH",
"137.045 581 OFFCURVE",
"51 494.702 OFFCURVE",
"51 435 QCURVE SMOOTH",
"51 145 LINE SMOOTH",
"51 86.045 OFFCURVE",
"137.045 0 OFFCURVE",
"196 0 QCURVE SMOOTH"
);
}
);
width = 690;
}
);
},
{
color = 5;
glyphname = h.sc;
layers = (
{
layerId = "17A5F7C0-AED1-4270-89BA-BFDC1003B8A5";
paths = (
{
closed = 1;
nodes = (
"136 0 LINE",
"136 249 LINE",
"580 249 LINE",
"580 0 LINE",
"662 0 LINE",
"662 580 LINE",
"580 580 LINE",
"580 331 LINE",
"136 331 LINE",
"136 580 LINE",
"54 580 LINE",
"54 0 LINE"
);
}
);
width = 715;
},
{
layerId = "D465923C-ABAE-4975-85A4-08C1BC9DA335";
paths = (
{
closed = 1;
nodes = (
"209 0 LINE",
"209 213 LINE",
"507 213 LINE",
"507 0 LINE",
"661 0 LINE",
"661 580 LINE",
"507 580 LINE",
"507 367 LINE",
"209 367 LINE",
"209 580 LINE",
"56 580 LINE",
"56 0 LINE"
);
}
);
width = 717;
}
);
},
{
color = 5;
glyphname = i.sc;
layers = (
{
layerId = "17A5F7C0-AED1-4270-89BA-BFDC1003B8A5";
paths = (
{
closed = 1;
nodes = (
"138 0 LINE",
"138 580 LINE",
"56 580 LINE",
"56 0 LINE"
);
}
);
width = 194;
},
{
layerId = "D465923C-ABAE-4975-85A4-08C1BC9DA335";
paths = (
{
closed = 1;
nodes = (
"209 0 LINE",
"209 580 LINE",
"56 580 LINE",
"56 0 LINE"
);
}
);
width = 265;
}
);
},
{
color = 5;
glyphname = j.sc;
layers = (
{
layerId = "17A5F7C0-AED1-4270-89BA-BFDC1003B8A5";
paths = (
{
closed = 1;
nodes = (
"485 0 LINE SMOOTH",
"535 0 OFFCURVE",
"606 71 OFFCURVE",
"606 121 QCURVE SMOOTH",
"606 580 LINE",
"524 580 LINE",
"524 121 LINE SMOOTH",
"524 105.328 OFFCURVE",
"500.672 82 OFFCURVE",
"485 82 QCURVE SMOOTH",
"126 82 LINE SMOOTH",
"110.328 82 OFFCURVE",
"87 105.328 OFFCURVE",
"87 121 QCURVE SMOOTH",
"87 169 LINE",
"5 169 LINE",
"5 121 LINE SMOOTH",
"5 71 OFFCURVE",
"76 0 OFFCURVE",
"126 0 QCURVE SMOOTH"
);
}
);
width = 657;
},
{
layerId = "D465923C-ABAE-4975-85A4-08C1BC9DA335";
paths = (
{
closed = 1;
nodes = (
"458 0 LINE SMOOTH",
"517.701 0 OFFCURVE",
"603 86.045 OFFCURVE",
"603 145 QCURVE SMOOTH",
"603 580 LINE",
"450 580 LINE",
"450 186 LINE SMOOTH",
"450 153 OFFCURVE",
"450 153 OFFCURVE",
"417 153 QCURVE SMOOTH",
"191 153 LINE SMOOTH",
"158 153 OFFCURVE",
"158 153 OFFCURVE",
"158 186 QCURVE SMOOTH",
"158 227 LINE",
"5 227 LINE",
"5 145 LINE SMOOTH",
"5 86.045 OFFCURVE",
"91.299 0 OFFCURVE",
"151 0 QCURVE SMOOTH"
);
}
);
width = 657;
}
);
},
{
color = 5;
glyphname = k.sc;
layers = (
{
layerId = "17A5F7C0-AED1-4270-89BA-BFDC1003B8A5";
paths = (
{
closed = 1;
nodes = (
"136 0 LINE",
"136 249 LINE",
"296 249 LINE",
"524 0 LINE",
"631 0 LINE",
"631 1 LINE",
"369 290 LINE",
"632 579 LINE",
"632 580 LINE",
"524 580 LINE",
"296 331 LINE",
"136 331 LINE",
"136 580 LINE",
"54 580 LINE",
"54 0 LINE"
);
}
);
width = 682;
},
{
layerId = "D465923C-ABAE-4975-85A4-08C1BC9DA335";
paths = (
{
closed = 1;
nodes = (
"207 0 LINE",
"207 213 LINE",
"285 213 LINE",
"482 0 LINE",
"636 0 LINE",
"636 52 LINE",
"420 290 LINE",
"636 528 LINE",
"636 580 LINE",
"482 580 LINE",
"285 367 LINE",
"207 367 LINE",
"207 580 LINE",
"54 580 LINE",
"54 0 LINE"
);
}
);
width = 682;
}
);
},
{
color = 5;
glyphname = l.sc;
layers = (
{
layerId = "17A5F7C0-AED1-4270-89BA-BFDC1003B8A5";
paths = (
{
closed = 1;
nodes = (
"655 0 LINE",
"655 82 LINE",
"136 82 LINE",
"136 580 LINE",
"54 580 LINE",
"54 0 LINE"
);
}
);
width = 659;
},
{
layerId = "D465923C-ABAE-4975-85A4-08C1BC9DA335";
paths = (
{
closed = 1;
nodes = (
"652 0 LINE",
"652 153 LINE",
"207 153 LINE",
"207 580 LINE",
"54 580 LINE",
"54 0 LINE"
);
}
);
width = 659;
}
);
},
{
color = 5;
glyphname = m.sc;
layers = (
{
layerId = "17A5F7C0-AED1-4270-89BA-BFDC1003B8A5";
paths = (
{
closed = 1;
nodes = (
"136 0 LINE",
"136 505 LINE",
"415 107 LINE",
"695 505 LINE",
"695 0 LINE",
"777 0 LINE",
"777 581 LINE",
"664 581 LINE",
"415 223 LINE",
"164 581 LINE",
"54 581 LINE",
"54 0 LINE"
);
}
);
width = 824;
},
{
layerId = "D465923C-ABAE-4975-85A4-08C1BC9DA335";
paths = (
{
closed = 1;
nodes = (
"207 0 LINE",
"207 341 LINE",
"406 60 LINE",
"604 341 LINE",
"604 0 LINE",
"758 0 LINE",
"758 581 LINE",
"598 581 LINE",
"406 304 LINE",
"213 581 LINE",
"54 581 LINE",
"54 0 LINE"
);
}
);
width = 824;
}
);
},
{
color = 5;
glyphname = n.sc;
layers = (
{
layerId = "17A5F7C0-AED1-4270-89BA-BFDC1003B8A5";
paths = (
{
closed = 1;
nodes = (
"136 0 LINE",
"136 489 LINE",
"544 0 LINE",
"655 0 LINE",
"655 580 LINE",
"573 580 LINE",
"573 92 LINE",
"165 580 LINE",
"54 580 LINE",
"54 0 LINE"
);
}
);
width = 709;
},
{
layerId = "D465923C-ABAE-4975-85A4-08C1BC9DA335";
paths = (
{
closed = 1;
nodes = (
"207 0 LINE",
"207 344 LINE",
"493 0 LINE",
"652 0 LINE",
"652 580 LINE",
"499 580 LINE",
"499 238 LINE",
"212 580 LINE",
"54 580 LINE",
"54 0 LINE"
);
}
);
width = 708;
}
);
},
{
color = 5;
glyphname = o.sc;
layers = (
{
layerId = "17A5F7C0-AED1-4270-89BA-BFDC1003B8A5";
paths = (
{
closed = 1;
nodes = (
"520 0 LINE SMOOTH",
"570.746 0 OFFCURVE",
"642 71 OFFCURVE",
"642 121 QCURVE SMOOTH",
"642 459 LINE SMOOTH",
"642 509 OFFCURVE",
"570.746 580 OFFCURVE",
"520 580 QCURVE SMOOTH",
"172 580 LINE SMOOTH",
"122 580 OFFCURVE",
"51 509 OFFCURVE",
"51 459 QCURVE SMOOTH",
"51 121 LINE SMOOTH",
"51 71 OFFCURVE",
"122 0 OFFCURVE",
"172 0 QCURVE SMOOTH"
);
},
{
closed = 1;
nodes = (
"156.328 82 OFFCURVE",
"133 105.328 OFFCURVE",
"133 121 QCURVE SMOOTH",
"133 459 LINE SMOOTH",
"133 474.672 OFFCURVE",
"156.328 498 OFFCURVE",
"172 498 QCURVE SMOOTH",
"520 498 LINE SMOOTH",
"536.418 498 OFFCURVE",
"559 474.672 OFFCURVE",
"559 459 QCURVE SMOOTH",
"559 121 LINE SMOOTH",
"559 105.328 OFFCURVE",
"536.418 82 OFFCURVE",
"520 82 QCURVE SMOOTH",
"172 82 LINE SMOOTH"
);
}
);
width = 692;
},
{
layerId = "D465923C-ABAE-4975-85A4-08C1BC9DA335";
paths = (
{
closed = 1;
nodes = (
"494 0 LINE SMOOTH",
"553.701 0 OFFCURVE",
"639 86.045 OFFCURVE",
"639 145 QCURVE SMOOTH",
"639 435 LINE SMOOTH",
"639 493.955 OFFCURVE",
"553.701 580 OFFCURVE",
"494 580 QCURVE SMOOTH",
"196 580 LINE SMOOTH",
"137.045 580 OFFCURVE",
"51 493.955 OFFCURVE",
"51 435 QCURVE SMOOTH",
"51 145 LINE SMOOTH",
"51 86.045 OFFCURVE",
"137.045 0 OFFCURVE",
"196 0 QCURVE SMOOTH"
);
},
{
closed = 1;
nodes = (
"204 153 OFFCURVE",
"204 153 OFFCURVE",
"204 186 QCURVE SMOOTH",
"204 394 LINE SMOOTH",
"204 427 OFFCURVE",
"204 427 OFFCURVE",
"237 427 QCURVE SMOOTH",
"453 427 LINE SMOOTH",
"486 427 OFFCURVE",
"486 427 OFFCURVE",
"486 394 QCURVE SMOOTH",
"486 186 LINE SMOOTH",
"486 153 OFFCURVE",
"486 153 OFFCURVE",
"453 153 QCURVE SMOOTH",
"237 153 LINE SMOOTH"
);
}
);
width = 692;
}
);
},
{
color = 5;
glyphname = p.sc;
layers = (
{
layerId = "17A5F7C0-AED1-4270-89BA-BFDC1003B8A5";
paths = (
{
closed = 1;
nodes = (
"136 0 LINE",
"136 208 LINE",
"524 208 LINE",
"574 208 OFFCURVE",
"645 280 OFFCURVE",
"645 329 QCURVE SMOOTH",
"645 459 LINE SMOOTH",
"645 508 OFFCURVE",
"574 580 OFFCURVE",
"524 580 QCURVE SMOOTH",
"54 580 LINE",
"54 0 LINE"
);
},
{
closed = 1;
nodes = (
"159.582 290 OFFCURVE",
"136 313.328 OFFCURVE",
"136 329 QCURVE SMOOTH",
"136 459 LINE SMOOTH",
"136 474.672 OFFCURVE",
"159.582 498 OFFCURVE",
"176 498 QCURVE SMOOTH",
"524 498 LINE SMOOTH",
"539.672 498 OFFCURVE",
"563 474.672 OFFCURVE",
"563 459 QCURVE SMOOTH",
"563 329 LINE SMOOTH",
"563 313.328 OFFCURVE",
"539.672 290 OFFCURVE",
"524 290 QCURVE SMOOTH",
"176 290 LINE SMOOTH"
);
}
);
width = 660;
},
{
layerId = "D465923C-ABAE-4975-85A4-08C1BC9DA335";
paths = (
{
closed = 1;
nodes = (
"207 0 LINE",
"207 177 LINE",
"497 178 LINE SMOOTH",
"556.701 178 OFFCURVE",
"642 264.045 OFFCURVE",
"642 323 QCURVE SMOOTH",
"642 435 LINE SMOOTH",
"642 493.209 OFFCURVE",
"556.701 580 OFFCURVE",
"497 580 QCURVE SMOOTH",
"54 580 LINE",
"54 0 LINE"
);
},
{
closed = 1;
nodes = (
"207 332 OFFCURVE",
"207 332 OFFCURVE",
"207 365 QCURVE SMOOTH",
"207 394 LINE SMOOTH",
"207 427 OFFCURVE",
"207 427 OFFCURVE",
"240 427 QCURVE SMOOTH",
"456 427 LINE SMOOTH",
"490 427 OFFCURVE",
"489 427 OFFCURVE",
"489 394 QCURVE SMOOTH",
"489 365 LINE SMOOTH",
"489 332 OFFCURVE",
"490 332 OFFCURVE",
"456 332 QCURVE SMOOTH",
"240 332 LINE SMOOTH"
);
}
);
width = 660;
}
);
},
{
color = 5;
glyphname = q.sc;
layers = (
{
layerId = "17A5F7C0-AED1-4270-89BA-BFDC1003B8A5";
paths = (
{
closed = 1;
nodes = (
"737 0 LINE",
"737 82 LINE",
"638 82 LINE",
"639.493 93.194 OFFCURVE",
"643 114.284 OFFCURVE",
"643 121 QCURVE SMOOTH",
"643 459 LINE SMOOTH",
"643 509 OFFCURVE",
"571.746 580 OFFCURVE",
"521 580 QCURVE SMOOTH",
"173 580 LINE SMOOTH",
"123 580 OFFCURVE",
"52 509 OFFCURVE",
"52 459 QCURVE SMOOTH",
"52 121 LINE SMOOTH",
"52 71 OFFCURVE",
"123 0 OFFCURVE",
"173 0 QCURVE SMOOTH"
);
},
{
closed = 1;
nodes = (
"157.328 82 OFFCURVE",
"134 105.328 OFFCURVE",
"134 121 QCURVE SMOOTH",
"134 459 LINE SMOOTH",
"134 474.672 OFFCURVE",
"157.328 498 OFFCURVE",
"173 498 QCURVE SMOOTH",
"521 498 LINE SMOOTH",
"536.672 498 OFFCURVE",
"560 474.672 OFFCURVE",
"560 459 QCURVE SMOOTH",
"560 121 LINE SMOOTH",
"560 105.328 OFFCURVE",
"536.672 82 OFFCURVE",
"521 82 QCURVE SMOOTH",
"173 82 LINE SMOOTH"
);
}
);
width = 770;
},
{
layerId = "D465923C-ABAE-4975-85A4-08C1BC9DA335";
paths = (
{
closed = 1;
nodes = (
"722 0 LINE",
"722 153 LINE",
"637 153 LINE",
"639 163 OFFCURVE",
"640 174 OFFCURVE",
"640 179 QCURVE SMOOTH",
"640 435 LINE SMOOTH",
"640 494 OFFCURVE",
"555.448 580 OFFCURVE",
"495 580 QCURVE SMOOTH",
"197 580 LINE SMOOTH",
"138.045 580 OFFCURVE",
"52 493.955 OFFCURVE",
"52 435 QCURVE SMOOTH",
"52 145 LINE SMOOTH",
"52 86.045 OFFCURVE",
"138.045 0 OFFCURVE",
"197 0 QCURVE SMOOTH"
);
},
{
closed = 1;
nodes = (
"205 153 OFFCURVE",
"205 153 OFFCURVE",
"205 186 QCURVE SMOOTH",
"205 394 LINE SMOOTH",
"205 427 OFFCURVE",
"205 427 OFFCURVE",
"238 427 QCURVE SMOOTH",
"454 427 LINE SMOOTH",
"487 427 OFFCURVE",
"487 427 OFFCURVE",
"487 394 QCURVE SMOOTH",
"487 186 LINE SMOOTH",
"487 153 OFFCURVE",
"487 153 OFFCURVE",
"454 153 QCURVE SMOOTH",
"238 153 LINE SMOOTH"
);
}
);
width = 770;
}
);
},
{
color = 5;
glyphname = r.sc;
layers = (
{
layerId = "17A5F7C0-AED1-4270-89BA-BFDC1003B8A5";
paths = (
{
closed = 1;
nodes = (
"136 0 LINE",
"136 208 LINE",
"314 208 LINE",
"542 0 LINE",
"647 0 LINE",
"416 208 LINE",
"523 208 LINE SMOOTH",
"574 208 OFFCURVE",
"644 279 OFFCURVE",
"644 329 QCURVE SMOOTH",
"644 459 LINE SMOOTH",
"644 509 OFFCURVE",
"574 580 OFFCURVE",
"523 580 QCURVE SMOOTH",
"54 580 LINE",
"54 0 LINE"
);
},
{
closed = 1;
nodes = (
"159 290 OFFCURVE",
"136 313 OFFCURVE",
"136 329 QCURVE SMOOTH",
"136 459 LINE SMOOTH",
"136 475 OFFCURVE",
"159 498 OFFCURVE",
"175 498 QCURVE SMOOTH",
"523 498 LINE SMOOTH",
"539 498 OFFCURVE",
"562 475 OFFCURVE",
"562 459 QCURVE SMOOTH",
"562 329 LINE SMOOTH",
"562 313 OFFCURVE",
"539 290 OFFCURVE",
"523 290 QCURVE SMOOTH",
"175 290 LINE SMOOTH"
);
}
);
width = 700;
},
{
layerId = "D465923C-ABAE-4975-85A4-08C1BC9DA335";
paths = (
{
closed = 1;
nodes = (
"207 0 LINE",
"207 178 LINE",
"302 178 LINE",
"497 0 LINE",
"652 0 LINE",
"652 54 LINE",
"511 178 LINE",
"566.224 183.224 OFFCURVE",
"643 267.776 OFFCURVE",
"643 323 QCURVE SMOOTH",
"643 435 LINE SMOOTH",
"643 493.209 OFFCURVE",
"556.701 580 OFFCURVE",
"497 580 QCURVE SMOOTH",
"54 580 LINE",
"54 0 LINE"
);
},
{
closed = 1;
nodes = (
"207 332 OFFCURVE",
"207 332 OFFCURVE",
"207 365 QCURVE SMOOTH",
"207 394 LINE SMOOTH",
"207 427 OFFCURVE",
"207 427 OFFCURVE",
"240 427 QCURVE SMOOTH",
"456 427 LINE SMOOTH",
"489 427 OFFCURVE",
"489 427 OFFCURVE",
"489 394 QCURVE SMOOTH",
"489 365 LINE SMOOTH",
"489 332 OFFCURVE",
"489 332 OFFCURVE",
"456 332 QCURVE SMOOTH",
"240 332 LINE SMOOTH"
);
}
);
width = 700;
}
);
},
{
color = 5;
glyphname = s.sc;
layers = (
{
layerId = "17A5F7C0-AED1-4270-89BA-BFDC1003B8A5";
paths = (
{
closed = 1;
nodes = (
"518 0 LINE SMOOTH",
"568.746 0 OFFCURVE",
"640 71 OFFCURVE",
"640 121 QCURVE SMOOTH",
"640 210 LINE SMOOTH",
"640 260 OFFCURVE",
"568.746 331 OFFCURVE",
"518 331 QCURVE SMOOTH",
"170 331 LINE SMOOTH",
"154.328 331 OFFCURVE",
"131 354.328 OFFCURVE",
"131 370 QCURVE SMOOTH",
"131 459 LINE SMOOTH",
"131 474.672 OFFCURVE",
"154.328 498 OFFCURVE",
"170 498 QCURVE SMOOTH",
"518 498 LINE SMOOTH",
"533.672 498 OFFCURVE",
"557 474.672 OFFCURVE",
"557 459 QCURVE SMOOTH",
"557 441 LINE",
"640 441 LINE",
"640 459 LINE SMOOTH",
"640 509 OFFCURVE",
"568.746 580 OFFCURVE",
"518 580 QCURVE SMOOTH",
"170 580 LINE SMOOTH",
"120 580 OFFCURVE",
"49 509 OFFCURVE",
"49 459 QCURVE SMOOTH",
"49 370 LINE SMOOTH",
"49 320 OFFCURVE",
"120 249 OFFCURVE",
"170 249 QCURVE SMOOTH",
"518 249 LINE SMOOTH",
"533.672 249 OFFCURVE",
"557 225.672 OFFCURVE",
"557 210 QCURVE SMOOTH",
"557 121 LINE SMOOTH",
"557 105.328 OFFCURVE",
"533.672 82 OFFCURVE",
"518 82 QCURVE SMOOTH",
"170 82 LINE SMOOTH",
"154.328 82 OFFCURVE",
"131 105.328 OFFCURVE",
"131 121 QCURVE SMOOTH",
"131 139 LINE",
"49 139 LINE",
"49 121 LINE SMOOTH",
"49 71 OFFCURVE",
"120 0 OFFCURVE",
"170 0 QCURVE SMOOTH"
);
}
);
width = 687;
},
{
layerId = "D465923C-ABAE-4975-85A4-08C1BC9DA335";
paths = (
{
closed = 1;
nodes = (
"492 0 LINE SMOOTH",
"551.701 0 OFFCURVE",
"638 86.045 OFFCURVE",
"638 145 QCURVE SMOOTH",
"638 222 LINE SMOOTH",
"638 280.955 OFFCURVE",
"551.701 367 OFFCURVE",
"492 367 QCURVE SMOOTH",
"218 367 LINE SMOOTH",
"202 367 OFFCURVE",
"202 367 OFFCURVE",
"202 383 QCURVE SMOOTH",
"202 411 LINE SMOOTH",
"202 427 OFFCURVE",
"202 427 OFFCURVE",
"218 427 QCURVE SMOOTH",
"468 427 LINE SMOOTH",
"484 427 OFFCURVE",
"484 427 OFFCURVE",
"484 411 QCURVE SMOOTH",
"484 407 LINE",
"638 407 LINE",
"638 435 LINE SMOOTH",
"638 493.955 OFFCURVE",
"551.701 580 OFFCURVE",
"492 580 QCURVE SMOOTH",
"194 580 LINE SMOOTH",
"135.045 580 OFFCURVE",
"49 493.955 OFFCURVE",
"49 435 QCURVE SMOOTH",
"49 358 LINE SMOOTH",
"49 299.045 OFFCURVE",
"135.045 213 OFFCURVE",
"194 213 QCURVE SMOOTH",
"468 213 LINE SMOOTH",
"484 213 OFFCURVE",
"484 213 OFFCURVE",
"484 197 QCURVE SMOOTH",
"484 169 LINE SMOOTH",
"484 153 OFFCURVE",
"484 153 OFFCURVE",
"468 153 QCURVE SMOOTH",
"218 153 LINE SMOOTH",
"202 153 OFFCURVE",
"202 153 OFFCURVE",
"202 169 QCURVE SMOOTH",
"202 173 LINE",
"49 173 LINE",
"49 145 LINE SMOOTH",
"49 86.045 OFFCURVE",
"135.045 0 OFFCURVE",
"194 0 QCURVE SMOOTH"
);
}
);
width = 687;
}
);
},
{
color = 5;
glyphname = t.sc;
layers = (
{
layerId = "17A5F7C0-AED1-4270-89BA-BFDC1003B8A5";
paths = (
{
closed = 1;
nodes = (
"364 0 LINE",
"364 498 LINE",
"623 498 LINE",
"623 580 LINE",
"22 580 LINE",
"22 498 LINE",
"282 498 LINE",
"282 0 LINE"
);
}
);
width = 644;
},
{
layerId = "D465923C-ABAE-4975-85A4-08C1BC9DA335";
paths = (
{
closed = 1;
nodes = (
"397 0 LINE",
"397 427 LINE",
"620 427 LINE",
"620 580 LINE",
"22 580 LINE",
"22 427 LINE",
"243 427 LINE",
"243 0 LINE"
);
}
);
width = 644;
}
);
},
{
color = 5;
glyphname = u.sc;
layers = (
{
layerId = "17A5F7C0-AED1-4270-89BA-BFDC1003B8A5";
paths = (
{
closed = 1;
nodes = (
"522 0 LINE SMOOTH",
"572.746 0 OFFCURVE",
"644 71 OFFCURVE",
"644 121 QCURVE SMOOTH",
"644 580 LINE",
"562 580 LINE",
"562 121 LINE SMOOTH",
"562 105.328 OFFCURVE",
"538.418 82 OFFCURVE",
"522 82 QCURVE SMOOTH",
"174 82 LINE SMOOTH",
"158.328 82 OFFCURVE",
"135 105.328 OFFCURVE",
"135 121 QCURVE SMOOTH",
"135 580 LINE",
"53 580 LINE",
"53 121 LINE SMOOTH",
"53 71 OFFCURVE",
"124 0 OFFCURVE",
"174 0 QCURVE SMOOTH"
);
}
);
width = 695;
},
{
layerId = "D465923C-ABAE-4975-85A4-08C1BC9DA335";
paths = (
{
closed = 1;
nodes = (
"496 0 LINE SMOOTH",
"555.701 0 OFFCURVE",
"641 86.045 OFFCURVE",
"641 145 QCURVE SMOOTH",
"641 580 LINE",
"488 580 LINE",
"488 186 LINE SMOOTH",
"488 153 OFFCURVE",
"488 153 OFFCURVE",
"455 153 QCURVE SMOOTH",
"239 153 LINE SMOOTH",
"206 153 OFFCURVE",
"206 153 OFFCURVE",
"206 186 QCURVE SMOOTH",
"206 580 LINE",
"53 580 LINE",
"53 145 LINE SMOOTH",
"53 86.045 OFFCURVE",
"138.299 0 OFFCURVE",
"198 0 QCURVE SMOOTH"
);
}
);
width = 695;
}
);
},
{
color = 5;
glyphname = v.sc;
layers = (
{
layerId = "17A5F7C0-AED1-4270-89BA-BFDC1003B8A5";
paths = (
{
closed = 1;
nodes = (
"442 0 LINE",
"768 579 LINE",
"768 580 LINE",
"672 580 LINE",
"395 81 LINE",
"118 580 LINE",
"21 580 LINE",
"21 579 LINE",
"348 0 LINE"
);
}
);
width = 801;
},
{
layerId = "D465923C-ABAE-4975-85A4-08C1BC9DA335";
paths = (
{
closed = 1;
nodes = (
"449 0 LINE",
"742 530 LINE",
"742 580 LINE",
"597 580 LINE",
"383 194 LINE",
"169 580 LINE",
"20 580 LINE",
"20 530 LINE",
"318 0 LINE"
);
}
);
width = 762;
}
);
},
{
color = 5;
glyphname = w.sc;
layers = (
{
layerId = "17A5F7C0-AED1-4270-89BA-BFDC1003B8A5";
paths = (
{
closed = 1;
nodes = (
"338 0 LINE",
"543 467 LINE",
"759 0 LINE",
"831 0 LINE",
"1052 579 LINE",
"1052 580 LINE",
"964 580 LINE",
"796 150 LINE",
"593 580 LINE",
"493 580 LINE",
"301 149 LINE",
"122 580 LINE",
"34 580 LINE",
"34 579 LINE",
"266 0 LINE"
);
}
);
width = 1078;
},
{
layerId = "D465923C-ABAE-4975-85A4-08C1BC9DA335";
paths = (
{
closed = 1;
nodes = (
"374 0 LINE",
"524 339 LINE",
"681 0 LINE",
"797 0 LINE",
"1003 530 LINE",
"1003 580 LINE",
"857 580 LINE",
"737 275 LINE",
"593 580 LINE",
"453 580 LINE",
"318 276 LINE",
"189 580 LINE",
"46 580 LINE",
"46 530 LINE",
"259 0 LINE"
);
}
);
width = 1049;
}
);
},
{
color = 5;
glyphname = x.sc;
layers = (
{
layerId = "17A5F7C0-AED1-4270-89BA-BFDC1003B8A5";
paths = (
{
closed = 1;
nodes = (
"154 0 LINE",
"342 233 LINE",
"531 0 LINE",
"639 0 LINE",
"639 1 LINE",
"396 296 LINE",
"638 579 LINE",
"638 580 LINE",
"530 580 LINE",
"342 361 LINE",
"154 580 LINE",
"46 580 LINE",
"46 579 LINE",
"288 296 LINE",
"46 1 LINE",
"46 0 LINE"
);
}
);
width = 692;
},
{
layerId = "D465923C-ABAE-4975-85A4-08C1BC9DA335";
paths = (
{
closed = 1;
nodes = (
"203 0 LINE",
"345 175 LINE",
"487 0 LINE",
"644 0 LINE",
"644 50 LINE",
"444 296 LINE",
"644 530 LINE",
"644 580 LINE",
"487 580 LINE",
"345 412 LINE",
"203 580 LINE",
"46 580 LINE",
"46 530 LINE",
"244 296 LINE",
"46 50 LINE",
"46 0 LINE"
);
}
);
width = 692;
}
);
},
{
color = 5;
glyphname = y.sc;
layers = (
{
layerId = "17A5F7C0-AED1-4270-89BA-BFDC1003B8A5";
paths = (
{
closed = 1;
nodes = (
"373 0 LINE",
"373 200 LINE",
"645 580 LINE",
"548 580 LINE",
"331 297 LINE",
"114 580 LINE",
"18 580 LINE",
"290 200 LINE",
"290 0 LINE"
);
}
);
width = 688;
},
{
layerId = "D465923C-ABAE-4975-85A4-08C1BC9DA335";
paths = (
{
closed = 1;
nodes = (
"443 0 LINE",
"443 200 LINE",
"715 580 LINE",
"532 580 LINE",
"367 364 LINE",
"199 580 LINE",
"18 580 LINE",
"290 200 LINE",
"290 0 LINE"
);
}
);
width = 733;
}
);
},
{
color = 5;
glyphname = z.sc;
layers = (
{
layerId = "17A5F7C0-AED1-4270-89BA-BFDC1003B8A5";
paths = (
{
closed = 1;
nodes = (
"645 0 LINE",
"645 82 LINE",
"144 82 LINE",
"645 468 LINE",
"645 580 LINE",
"54 580 LINE",
"54 498 LINE",
"555 498 LINE",
"54 112 LINE",
"54 0 LINE"
);
}
);
width = 698;
},
{
layerId = "D465923C-ABAE-4975-85A4-08C1BC9DA335";
paths = (
{
closed = 1;
nodes = (
"642 0 LINE",
"642 153 LINE",
"293 153 LINE",
"642 423 LINE",
"642 580 LINE",
"54 580 LINE",
"54 427 LINE",
"403 427 LINE",
"54 157 LINE",
"54 0 LINE"
);
}
);
width = 698;
}
);
},
{
color = 7;
export = 0;
glyphname = ordfeminine;
layers = (
{
layerId = "17A5F7C0-AED1-4270-89BA-BFDC1003B8A5";
paths = (
{
closed = 1;
nodes = (
"500 327 LINE",
"500 633 LINE SMOOTH",
"500 666 OFFCURVE",
"452 713 OFFCURVE",
"418 713 QCURVE SMOOTH",
"106 713 LINE",
"106 659 LINE",
"418 659 LINE SMOOTH",
"429 659 OFFCURVE",
"444 643 OFFCURVE",
"444 633 QCURVE SMOOTH",
"444 547 LINE",
"106 547 LINE",
"106 407 LINE SMOOTH",
"106 374 OFFCURVE",
"153 327 OFFCURVE",
"186 327 QCURVE SMOOTH"
);
},
{
closed = 1;
nodes = (
"176 381 OFFCURVE",
"160 397 OFFCURVE",
"160 407 QCURVE SMOOTH",
"160 493 LINE",
"444 493 LINE",
"444 381 LINE",
"186 381 LINE SMOOTH"
);
}
);
width = 500;
},
{
layerId = "D465923C-ABAE-4975-85A4-08C1BC9DA335";
paths = (
{
closed = 1;
nodes = (
"500 360 LINE",
"500 630 LINE SMOOTH",
"500 667 OFFCURVE",
"447 720 OFFCURVE",
"410 720 QCURVE SMOOTH",
"134 720 LINE",
"134 625 LINE",
"384 625 LINE SMOOTH",
"405 625 OFFCURVE",
"405 625 OFFCURVE",
"405 605 QCURVE SMOOTH",
"405 588 LINE",
"134 588 LINE",
"134 450 LINE SMOOTH",
"134 413 OFFCURVE",
"187 360 OFFCURVE",
"224 360 QCURVE SMOOTH"
);
},
{
closed = 1;
nodes = (
"229 455 OFFCURVE",
"229 455 OFFCURVE",
"229 475 QCURVE SMOOTH",
"229 505 LINE",
"405 505 LINE",
"405 455 LINE",
"250 455 LINE SMOOTH"
);
}
);
width = 500;
}
);
unicode = 00AA;
},
{
color = 7;
export = 0;
glyphname = ordmasculine;
layers = (
{
layerId = "17A5F7C0-AED1-4270-89BA-BFDC1003B8A5";
paths = (
{
closed = 1;
nodes = (
"418 334 LINE SMOOTH",
"452 334 OFFCURVE",
"500 381 OFFCURVE",
"500 414 QCURVE SMOOTH",
"500 640 LINE SMOOTH",
"500 673 OFFCURVE",
"452 720 OFFCURVE",
"418 720 QCURVE SMOOTH",
"186 720 LINE SMOOTH",
"153 720 OFFCURVE",
"106 673 OFFCURVE",
"106 640 QCURVE SMOOTH",
"106 414 LINE SMOOTH",
"106 381 OFFCURVE",
"153 334 OFFCURVE",
"186 334 QCURVE SMOOTH"
);
},
{
closed = 1;
nodes = (
"176 388 OFFCURVE",
"160 404 OFFCURVE",
"160 414 QCURVE SMOOTH",
"160 640 LINE SMOOTH",
"160 650 OFFCURVE",
"176 666 OFFCURVE",
"186 666 QCURVE SMOOTH",
"418 666 LINE SMOOTH",
"429 666 OFFCURVE",
"444 650 OFFCURVE",
"444 640 QCURVE SMOOTH",
"444 414 LINE SMOOTH",
"444 404 OFFCURVE",
"429 388 OFFCURVE",
"418 388 QCURVE SMOOTH",
"186 388 LINE SMOOTH"
);
}
);
width = 500;
},
{
layerId = "D465923C-ABAE-4975-85A4-08C1BC9DA335";
paths = (
{
closed = 1;
nodes = (
"410 360 LINE SMOOTH",
"447 360 OFFCURVE",
"500 413 OFFCURVE",
"500 450 QCURVE SMOOTH",
"500 630 LINE SMOOTH",
"500 667 OFFCURVE",
"447 720 OFFCURVE",
"410 720 QCURVE SMOOTH",
"224 720 LINE SMOOTH",
"188 720 OFFCURVE",
"134 667 OFFCURVE",
"134 630 QCURVE SMOOTH",
"134 450 LINE SMOOTH",
"134 413 OFFCURVE",
"188 360 OFFCURVE",
"224 360 QCURVE SMOOTH"
);
},
{
closed = 1;
nodes = (
"229 455 OFFCURVE",
"229 455 OFFCURVE",
"229 475 QCURVE SMOOTH",
"229 605 LINE SMOOTH",
"229 625 OFFCURVE",
"229 625 OFFCURVE",
"250 625 QCURVE SMOOTH",
"384 625 LINE SMOOTH",
"405 625 OFFCURVE",
"405 625 OFFCURVE",
"405 605 QCURVE SMOOTH",
"405 475 LINE SMOOTH",
"405 455 OFFCURVE",
"405 455 OFFCURVE",
"384 455 QCURVE SMOOTH",
"250 455 LINE SMOOTH"
);
}
);
width = 500;
}
);
unicode = 00BA;
},
{
color = 7;
export = 0;
glyphname = mu;
layers = (
{
layerId = "17A5F7C0-AED1-4270-89BA-BFDC1003B8A5";
paths = (
{
closed = 1;
nodes = (
"130 -250 LINE",
"130 0 LINE",
"517 0 LINE SMOOTH",
"572 0 OFFCURVE",
"639 67 OFFCURVE",
"639 121 QCURVE SMOOTH",
"639 580 LINE",
"557 580 LINE",
"557 121 LINE SMOOTH",
"557 101 OFFCURVE",
"537 82 OFFCURVE",
"517 82 QCURVE SMOOTH",
"169 82 LINE SMOOTH",
"149 82 OFFCURVE",
"130 100 OFFCURVE",
"130 121 QCURVE SMOOTH",
"130 580 LINE",
"48 580 LINE",
"48 -250 LINE"
);
}
);
width = 695;
},
{
layerId = "D465923C-ABAE-4975-85A4-08C1BC9DA335";
paths = (
{
closed = 1;
nodes = (
"201 -250 LINE",
"201 0 LINE",
"491 0 LINE SMOOTH",
"550 0 OFFCURVE",
"636 76 OFFCURVE",
"636 145 QCURVE SMOOTH",
"636 580 LINE",
"483 580 LINE",
"483 186 LINE SMOOTH",
"483 153 OFFCURVE",
"483 153 OFFCURVE",
"450 153 QCURVE SMOOTH",
"234 153 LINE SMOOTH",
"201 153 OFFCURVE",
"201 153 OFFCURVE",
"201 186 QCURVE SMOOTH",
"201 580 LINE",
"48 580 LINE",
"48 -250 LINE"
);
}
);
width = 695;
}
);
unicode = 03BC;
},
{
color = 5;
glyphname = zero;
layers = (
{
layerId = "17A5F7C0-AED1-4270-89BA-BFDC1003B8A5";
paths = (
{
closed = 1;
nodes = (
"663 0 LINE SMOOTH",
"713 0 OFFCURVE",
"784 71 OFFCURVE",
"784 121 QCURVE SMOOTH",
"784 598 LINE SMOOTH",
"784 648.746 OFFCURVE",
"713 720 OFFCURVE",
"663 720 QCURVE SMOOTH",
"178 720 LINE SMOOTH",
"127.254 720 OFFCURVE",
"57 648.746 OFFCURVE",
"57 598 QCURVE SMOOTH",
"57 121 LINE SMOOTH",
"57 71 OFFCURVE",
"127.254 0 OFFCURVE",
"178 0 QCURVE SMOOTH"
);
},
{
closed = 1;
nodes = (
"702 538 LINE",
"702 121 LINE SMOOTH",
"702 105.328 OFFCURVE",
"678.672 82 OFFCURVE",
"663 82 QCURVE SMOOTH",
"149 82 LINE"
);
},
{
closed = 1;
nodes = (
"139 598 LINE SMOOTH",
"139 613.672 OFFCURVE",
"162.328 637 OFFCURVE",
"178 637 QCURVE SMOOTH",
"691 637 LINE",
"139 181 LINE"
);
}
);
width = 834;
},
{
layerId = "D465923C-ABAE-4975-85A4-08C1BC9DA335";
paths = (
{
closed = 1;
nodes = (
"618 0 LINE SMOOTH",
"678 0 OFFCURVE",
"764 96 OFFCURVE",
"764 155 QCURVE SMOOTH",
"764 571 LINE SMOOTH",
"764 631 OFFCURVE",
"678 720 OFFCURVE",
"618 720 QCURVE SMOOTH",
"203 720 LINE SMOOTH",
"143 720 OFFCURVE",
"57 631 OFFCURVE",
"57 571 QCURVE SMOOTH",
"57 155 LINE SMOOTH",
"57 96 OFFCURVE",
"143 0 OFFCURVE",
"203 0 QCURVE SMOOTH"
);
},
{
closed = 1;
nodes = (
"611 431 LINE",
"611 196 LINE SMOOTH",
"611 163 OFFCURVE",
"611 163 OFFCURVE",
"578 163 QCURVE SMOOTH",
"292 163 LINE"
);
},
{
closed = 1;
nodes = (
"210 530 LINE SMOOTH",
"210 563 OFFCURVE",
"210 563 OFFCURVE",
"243 563 QCURVE SMOOTH",
"529 563 LINE",
"210 295 LINE"
);
}
);
width = 834;
}
);
unicode = 0030;
},
{
color = 5;
glyphname = one;
layers = (
{
layerId = "17A5F7C0-AED1-4270-89BA-BFDC1003B8A5";
paths = (
{
closed = 1;
nodes = (
"302 0 LINE",
"302 720 LINE",
"190 720 LINE",
"1 495 LINE",
"108 495 LINE",
"219 628 LINE",
"219 0 LINE"
);
}
);
width = 391;
},
{
layerId = "D465923C-ABAE-4975-85A4-08C1BC9DA335";
paths = (
{
closed = 1;
nodes = (
"390 0 LINE",
"390 720 LINE",
"231 720 LINE",
"1 446 LINE",
"204 446 LINE",
"237 487 LINE",
"237 0 LINE"
);
}
);
width = 391;
}
);
unicode = 0031;
},
{
color = 5;
glyphname = two;
layers = (
{
layerId = "17A5F7C0-AED1-4270-89BA-BFDC1003B8A5";
paths = (
{
closed = 1;
nodes = (
"784 0 LINE",
"784 82 LINE",
"178 82 LINE SMOOTH",
"162.328 82 OFFCURVE",
"139 105.328 OFFCURVE",
"139 121 QCURVE SMOOTH",
"139 270 LINE SMOOTH",
"139 285.672 OFFCURVE",
"162.328 309 OFFCURVE",
"178 309 QCURVE SMOOTH",
"663 309 LINE SMOOTH",
"713 309 OFFCURVE",
"784 380 OFFCURVE",
"784 430 QCURVE SMOOTH",
"784 599 LINE SMOOTH",
"784 649.746 OFFCURVE",
"713 721 OFFCURVE",
"663 721 QCURVE SMOOTH",
"178 721 LINE SMOOTH",
"127.254 721 OFFCURVE",
"57 649.746 OFFCURVE",
"57 599 QCURVE SMOOTH",
"57 571 LINE",
"139 571 LINE",
"139 599 LINE SMOOTH",
"139 614.672 OFFCURVE",
"162.328 638 OFFCURVE",
"178 638 QCURVE SMOOTH",
"663 638 LINE SMOOTH",
"678.672 638 OFFCURVE",
"702 614.672 OFFCURVE",
"702 599 QCURVE SMOOTH",
"702 430 LINE SMOOTH",
"702 414.328 OFFCURVE",
"678.672 391 OFFCURVE",
"663 391 QCURVE SMOOTH",
"178 391 LINE SMOOTH",
"127.254 391 OFFCURVE",
"57 320.746 OFFCURVE",
"57 270 QCURVE SMOOTH",
"57 0 LINE"
);
}
);
width = 830;
},
{
layerId = "D465923C-ABAE-4975-85A4-08C1BC9DA335";
paths = (
{
closed = 1;
nodes = (
"764 0 LINE",
"764 153 LINE",
"243 153 LINE SMOOTH",
"210 153 OFFCURVE",
"210 153 OFFCURVE",
"210 186 QCURVE SMOOTH",
"210 237 LINE SMOOTH",
"210 270 OFFCURVE",
"210 270 OFFCURVE",
"243 270 QCURVE SMOOTH",
"618 270 LINE SMOOTH",
"678 270 OFFCURVE",
"764 356 OFFCURVE",
"764 416 QCURVE SMOOTH",
"764 575 LINE SMOOTH",
"764 635 OFFCURVE",
"678 720 OFFCURVE",
"618 720 QCURVE SMOOTH",
"203 720 LINE SMOOTH",
"143 720 OFFCURVE",
"57 635 OFFCURVE",
"57 575 QCURVE SMOOTH",
"57 509 LINE",
"210 509 LINE",
"210 534 LINE SMOOTH",
"210 567 OFFCURVE",
"210 567 OFFCURVE",
"243 567 QCURVE SMOOTH",
"578 567 LINE SMOOTH",
"611 567 OFFCURVE",
"611 567 OFFCURVE",
"611 534 QCURVE SMOOTH",
"611 457 LINE SMOOTH",
"611 424 OFFCURVE",
"611 424 OFFCURVE",
"578 424 QCURVE SMOOTH",
"203 424 LINE SMOOTH",
"143 424 OFFCURVE",
"57 339 OFFCURVE",
"57 279 QCURVE SMOOTH",
"57 0 LINE"
);
}
);
width = 830;
}
);
unicode = 0032;
},
{
color = 5;
glyphname = three;
layers = (
{
layerId = "17A5F7C0-AED1-4270-89BA-BFDC1003B8A5";
paths = (
{
closed = 1;
nodes = (
"660 0 LINE SMOOTH",
"710 0 OFFCURVE",
"781 71 OFFCURVE",
"781 121 QCURVE SMOOTH",
"781 288 LINE SMOOTH",
"781 314.119 OFFCURVE",
"762 372 OFFCURVE",
"737 396 QCURVE",
"742.224 407.194 OFFCURVE",
"749 433.821 OFFCURVE",
"749 448 QCURVE SMOOTH",
"749 599 LINE SMOOTH",
"749 649.746 OFFCURVE",
"678.746 721 OFFCURVE",
"628 721 QCURVE SMOOTH",
"175 721 LINE SMOOTH",
"124.254 721 OFFCURVE",
"53 649.746 OFFCURVE",
"53 599 QCURVE SMOOTH",
"53 573 LINE",
"136 573 LINE",
"136 599 LINE SMOOTH",
"136 614.672 OFFCURVE",
"159.328 638 OFFCURVE",
"175 638 QCURVE SMOOTH",
"628 638 LINE SMOOTH",
"643.672 638 OFFCURVE",
"667 614.672 OFFCURVE",
"667 599 QCURVE SMOOTH",
"667 448 LINE SMOOTH",
"667 432.328 OFFCURVE",
"643.672 409 OFFCURVE",
"628 409 QCURVE SMOOTH",
"191 409 LINE",
"191 327 LINE",
"660 327 LINE SMOOTH",
"675.672 327 OFFCURVE",
"699 303.672 OFFCURVE",
"699 288 QCURVE SMOOTH",
"699 121 LINE SMOOTH",
"699 105.328 OFFCURVE",
"675.672 82 OFFCURVE",
"660 82 QCURVE SMOOTH",
"175 82 LINE SMOOTH",
"159.328 82 OFFCURVE",
"136 105.328 OFFCURVE",
"136 121 QCURVE SMOOTH",
"136 137 LINE",
"53 137 LINE",
"53 121 LINE SMOOTH",
"53 71 OFFCURVE",
"124.254 0 OFFCURVE",
"175 0 QCURVE SMOOTH"
);
}
);
width = 826;
},
{
layerId = "D465923C-ABAE-4975-85A4-08C1BC9DA335";
paths = (
{
closed = 1;
nodes = (
"615 0 LINE SMOOTH",
"675 0 OFFCURVE",
"760 86 OFFCURVE",
"760 145 QCURVE SMOOTH",
"760 294 LINE SMOOTH",
"760 320 OFFCURVE",
"742 367 OFFCURVE",
"727 385 QCURVE",
"730 395 OFFCURVE",
"733 420 OFFCURVE",
"733 431 QCURVE SMOOTH",
"733 575 LINE SMOOTH",
"733 635 OFFCURVE",
"648 720 OFFCURVE",
"588 720 QCURVE SMOOTH",
"199 720 LINE SMOOTH",
"139 720 OFFCURVE",
"53 635 OFFCURVE",
"53 575 QCURVE SMOOTH",
"53 511 LINE",
"206 511 LINE",
"206 534 LINE SMOOTH",
"206 567 OFFCURVE",
"206 567 OFFCURVE",
"239 567 QCURVE SMOOTH",
"547 567 LINE SMOOTH",
"580 567 OFFCURVE",
"580 567 OFFCURVE",
"580 534 QCURVE SMOOTH",
"580 472 LINE SMOOTH",
"580 439 OFFCURVE",
"580 439 OFFCURVE",
"547 439 QCURVE SMOOTH",
"171 439 LINE",
"171 286 LINE",
"574 286 LINE SMOOTH",
"607 286 OFFCURVE",
"607 286 OFFCURVE",
"607 253 QCURVE SMOOTH",
"607 186 LINE SMOOTH",
"607 153 OFFCURVE",
"607 153 OFFCURVE",
"574 153 QCURVE SMOOTH",
"239 153 LINE SMOOTH",
"206 153 OFFCURVE",
"206 153 OFFCURVE",
"206 186 QCURVE SMOOTH",
"206 201 LINE",
"53 201 LINE",
"53 145 LINE SMOOTH",
"53 86 OFFCURVE",
"139 0 OFFCURVE",
"199 0 QCURVE SMOOTH"
);
}
);
width = 826;
}
);
unicode = 0033;
},
{
color = 5;
glyphname = four;
layers = (
{
layerId = "17A5F7C0-AED1-4270-89BA-BFDC1003B8A5";
paths = (
{
closed = 1;
nodes = (
"590 0 LINE",
"590 186 LINE",
"702 186 LINE",
"702 268 LINE",
"590 268 LINE",
"590 721 LINE",
"498 721 LINE",
"6 278 LINE",
"6 186 LINE",
"508 186 LINE",
"508 0 LINE"
);
},
{
closed = 1;
nodes = (
"508 610 LINE",
"508 268 LINE",
"111 268 LINE"
);
}
);
width = 730;
},
{
layerId = "D465923C-ABAE-4975-85A4-08C1BC9DA335";
paths = (
{
closed = 1;
nodes = (
"590 0 LINE",
"590 179 LINE",
"686 179 LINE",
"686 333 LINE",
"590 333 LINE",
"590 720 LINE",
"453 720 LINE",
"6 316 LINE",
"6 179 LINE",
"437 179 LINE",
"437 0 LINE"
);
},
{
closed = 1;
nodes = (
"437 481 LINE",
"437 333 LINE",
"255 333 LINE"
);
}
);
width = 730;
}
);
unicode = 0034;
},
{
color = 5;
glyphname = five;
layers = (
{
layerId = "17A5F7C0-AED1-4270-89BA-BFDC1003B8A5";
paths = (
{
closed = 1;
nodes = (
"663 0 LINE SMOOTH",
"713 0 OFFCURVE",
"784 71 OFFCURVE",
"784 121 QCURVE SMOOTH",
"784 291 LINE SMOOTH",
"784 341.746 OFFCURVE",
"713 412 OFFCURVE",
"663 412 QCURVE SMOOTH",
"178 412 LINE SMOOTH",
"162.328 412 OFFCURVE",
"139 435.582 OFFCURVE",
"139 452 QCURVE SMOOTH",
"139 599 LINE SMOOTH",
"139 614.672 OFFCURVE",
"162.328 638 OFFCURVE",
"178 638 QCURVE SMOOTH",
"784 638 LINE",
"784 721 LINE",
"57 721 LINE",
"57 330 LINE",
"663 330 LINE SMOOTH",
"678.672 330 OFFCURVE",
"702 306.672 OFFCURVE",
"702 291 QCURVE SMOOTH",
"702 121 LINE SMOOTH",
"702 105.328 OFFCURVE",
"678.672 82 OFFCURVE",
"663 82 QCURVE SMOOTH",
"178 82 LINE SMOOTH",
"162.328 82 OFFCURVE",
"139 105.328 OFFCURVE",
"139 121 QCURVE SMOOTH",
"139 150 LINE",
"57 150 LINE",
"57 121 LINE SMOOTH",
"57 71 OFFCURVE",
"127.254 0 OFFCURVE",
"178 0 QCURVE SMOOTH"
);
}
);
width = 830;
},
{
layerId = "D465923C-ABAE-4975-85A4-08C1BC9DA335";
paths = (
{
closed = 1;
nodes = (
"618 0 LINE SMOOTH",
"678 0 OFFCURVE",
"764 86 OFFCURVE",
"764 145 QCURVE SMOOTH",
"764 297 LINE SMOOTH",
"764 357 OFFCURVE",
"678 442 OFFCURVE",
"618 442 QCURVE SMOOTH",
"243 442 LINE SMOOTH",
"210 442 OFFCURVE",
"210 442 OFFCURVE",
"210 475 QCURVE SMOOTH",
"210 534 LINE SMOOTH",
"210 567 OFFCURVE",
"210 567 OFFCURVE",
"243 567 QCURVE SMOOTH",
"764 567 LINE",
"764 720 LINE",
"57 720 LINE",
"57 288 LINE",
"578 288 LINE SMOOTH",
"611 288 OFFCURVE",
"611 288 OFFCURVE",
"611 255 QCURVE SMOOTH",
"611 186 LINE SMOOTH",
"611 153 OFFCURVE",
"611 153 OFFCURVE",
"578 153 QCURVE SMOOTH",
"243 153 LINE SMOOTH",
"210 153 OFFCURVE",
"210 153 OFFCURVE",
"210 186 QCURVE SMOOTH",
"210 201 LINE",
"57 201 LINE",
"57 145 LINE SMOOTH",
"57 86 OFFCURVE",
"143 0 OFFCURVE",
"203 0 QCURVE SMOOTH"
);
}
);
width = 830;
}
);
unicode = 0035;
},
{
color = 5;
glyphname = six;
layers = (
{
layerId = "17A5F7C0-AED1-4270-89BA-BFDC1003B8A5";
paths = (
{
closed = 1;
nodes = (
"663 0 LINE SMOOTH",
"713 0 OFFCURVE",
"784 71 OFFCURVE",
"784 121 QCURVE SMOOTH",
"784 294 LINE SMOOTH",
"784 344.746 OFFCURVE",
"713 415 OFFCURVE",
"663 415 QCURVE SMOOTH",
"178 415 LINE SMOOTH",
"162.328 415 OFFCURVE",
"139 438.582 OFFCURVE",
"139 455 QCURVE SMOOTH",
"139 599 LINE SMOOTH",
"139 614.672 OFFCURVE",
"162.328 638 OFFCURVE",
"178 638 QCURVE SMOOTH",
"658 638 LINE",
"658 721 LINE",
"178 721 LINE SMOOTH",
"127.254 721 OFFCURVE",
"57 649.746 OFFCURVE",
"57 599 QCURVE SMOOTH",
"57 121 LINE SMOOTH",
"57 71 OFFCURVE",
"127.254 0 OFFCURVE",
"178 0 QCURVE SMOOTH"
);
},
{
closed = 1;
nodes = (
"162.328 82 OFFCURVE",
"139 105.328 OFFCURVE",
"139 121 QCURVE SMOOTH",
"139 333 LINE",
"663 333 LINE SMOOTH",
"678.672 333 OFFCURVE",
"702 309.672 OFFCURVE",
"702 294 QCURVE SMOOTH",
"702 121 LINE SMOOTH",
"702 105.328 OFFCURVE",
"678.672 82 OFFCURVE",
"663 82 QCURVE SMOOTH",
"178 82 LINE SMOOTH"
);
}
);
width = 820;
},
{
layerId = "D465923C-ABAE-4975-85A4-08C1BC9DA335";
paths = (
{
closed = 1;
nodes = (
"618 0 LINE SMOOTH",
"678 0 OFFCURVE",
"764 86 OFFCURVE",
"764 145 QCURVE SMOOTH",
"764 297 LINE SMOOTH",
"764 357 OFFCURVE",
"678 442 OFFCURVE",
"618 442 QCURVE SMOOTH",
"243 442 LINE SMOOTH",
"210 442 OFFCURVE",
"210 442 OFFCURVE",
"210 475 QCURVE SMOOTH",
"210 534 LINE SMOOTH",
"210 567 OFFCURVE",
"210 567 OFFCURVE",
"243 567 QCURVE SMOOTH",
"655 567 LINE",
"655 720 LINE",
"203 720 LINE SMOOTH",
"143 720 OFFCURVE",
"57 635 OFFCURVE",
"57 575 QCURVE SMOOTH",
"57 145 LINE SMOOTH",
"57 86 OFFCURVE",
"143 0 OFFCURVE",
"203 0 QCURVE SMOOTH"
);
},
{
closed = 1;
nodes = (
"210 153 OFFCURVE",
"210 153 OFFCURVE",
"210 186 QCURVE SMOOTH",
"210 288 LINE",
"578 288 LINE SMOOTH",
"611 288 OFFCURVE",
"611 288 OFFCURVE",
"611 255 QCURVE SMOOTH",
"611 186 LINE SMOOTH",
"611 153 OFFCURVE",
"611 153 OFFCURVE",
"578 153 QCURVE SMOOTH",
"243 153 LINE SMOOTH"
);
}
);
width = 820;
}
);
unicode = 0036;
},
{
color = 5;
glyphname = seven;
layers = (
{
layerId = "17A5F7C0-AED1-4270-89BA-BFDC1003B8A5";
paths = (
{
closed = 1;
nodes = (
"604 0 LINE",
"604 599 LINE SMOOTH",
"604 650 OFFCURVE",
"533 721 OFFCURVE",
"483 721 QCURVE SMOOTH",
"3 721 LINE",
"3 638 LINE",
"483 638 LINE SMOOTH",
"499 638 OFFCURVE",
"522 615 OFFCURVE",
"522 599 QCURVE SMOOTH",
"522 0 LINE"
);
}
);
width = 660;
},
{
layerId = "D465923C-ABAE-4975-85A4-08C1BC9DA335";
paths = (
{
closed = 1;
nodes = (
"601 0 LINE",
"601 576 LINE SMOOTH",
"601 636 OFFCURVE",
"516 721 OFFCURVE",
"456 721 QCURVE SMOOTH",
"3 721 LINE",
"3 568 LINE",
"415 568 LINE SMOOTH",
"448 568 OFFCURVE",
"448 568 OFFCURVE",
"448 535 QCURVE SMOOTH",
"448 0 LINE"
);
}
);
width = 660;
}
);
unicode = 0037;
},
{
color = 5;
glyphname = eight;
layers = (
{
layerId = "17A5F7C0-AED1-4270-89BA-BFDC1003B8A5";
paths = (
{
closed = 1;
nodes = (
"663 0 LINE SMOOTH",
"713 0 OFFCURVE",
"784 71 OFFCURVE",
"784 121 QCURVE SMOOTH",
"784 291 LINE SMOOTH",
"784 311.149 OFFCURVE",
"768.179 352.343 OFFCURVE",
"754 371 QCURVE",
"768.179 390.403 OFFCURVE",
"784 431.851 OFFCURVE",
"784 452 QCURVE SMOOTH",
"784 619 LINE",
"772.806 657.806 OFFCURVE",
"704.791 721 OFFCURVE",
"663 721 QCURVE SMOOTH",
"178 721 LINE SMOOTH",
"127.254 721 OFFCURVE",
"57 649.746 OFFCURVE",
"57 599 QCURVE SMOOTH",
"57 452 LINE SMOOTH",
"57 431.851 OFFCURVE",
"72.821 390.403 OFFCURVE",
"87 371 QCURVE",
"72.821 352.343 OFFCURVE",
"57 311.149 OFFCURVE",
"57 291 QCURVE SMOOTH",
"57 121 LINE SMOOTH",
"57 71 OFFCURVE",
"127.254 0 OFFCURVE",
"178 0 QCURVE SMOOTH"
);
},
{
closed = 1;
nodes = (
"162.328 82 OFFCURVE",
"139 105.328 OFFCURVE",
"139 121 QCURVE SMOOTH",
"139 291 LINE SMOOTH",
"139 306.672 OFFCURVE",
"162.328 330 OFFCURVE",
"178 330 QCURVE SMOOTH",
"663 330 LINE SMOOTH",
"678.672 330 OFFCURVE",
"702 306.672 OFFCURVE",
"702 291 QCURVE SMOOTH",
"702 121 LINE SMOOTH",
"702 105.328 OFFCURVE",
"678.672 82 OFFCURVE",
"663 82 QCURVE SMOOTH",
"178 82 LINE SMOOTH"
);
},
{
closed = 1;
nodes = (
"162.328 401 OFFCURVE",
"139 424.328 OFFCURVE",
"139 440 QCURVE SMOOTH",
"139 598 LINE SMOOTH",
"139 613.672 OFFCURVE",
"162.328 637 OFFCURVE",
"178 637 QCURVE SMOOTH",
"663 637 LINE SMOOTH",
"678.672 637 OFFCURVE",
"702 613.672 OFFCURVE",
"702 598 QCURVE SMOOTH",
"702 440 LINE SMOOTH",
"702 424.328 OFFCURVE",
"678.672 401 OFFCURVE",
"663 401 QCURVE SMOOTH",
"178 401 LINE SMOOTH"
);
}
);
width = 834;
},
{
layerId = "D465923C-ABAE-4975-85A4-08C1BC9DA335";
paths = (
{
closed = 1;
nodes = (
"618 0 LINE SMOOTH",
"678 0 OFFCURVE",
"764 86 OFFCURVE",
"764 145 QCURVE SMOOTH",
"764 297 LINE SMOOTH",
"764 315 OFFCURVE",
"756 349 OFFCURVE",
"747 365 QCURVE",
"755 381 OFFCURVE",
"764 418 OFFCURVE",
"764 434 QCURVE SMOOTH",
"764 601 LINE",
"755 652 OFFCURVE",
"672 720 OFFCURVE",
"618 720 QCURVE SMOOTH",
"203 720 LINE SMOOTH",
"143 720 OFFCURVE",
"57 635 OFFCURVE",
"57 575 QCURVE SMOOTH",
"57 434 LINE SMOOTH",
"57 416 OFFCURVE",
"67 381 OFFCURVE",
"74 365 QCURVE",
"67 349 OFFCURVE",
"57 314 OFFCURVE",
"57 297 QCURVE SMOOTH",
"57 145 LINE SMOOTH",
"57 86 OFFCURVE",
"143 0 OFFCURVE",
"203 0 QCURVE SMOOTH"
);
},
{
closed = 1;
nodes = (
"210 153 OFFCURVE",
"210 153 OFFCURVE",
"210 186 QCURVE SMOOTH",
"210 255 LINE SMOOTH",
"210 288 OFFCURVE",
"210 288 OFFCURVE",
"243 288 QCURVE SMOOTH",
"578 288 LINE SMOOTH",
"611 288 OFFCURVE",
"611 288 OFFCURVE",
"611 255 QCURVE SMOOTH",
"611 186 LINE SMOOTH",
"611 153 OFFCURVE",
"611 153 OFFCURVE",
"578 153 QCURVE SMOOTH",
"243 153 LINE SMOOTH"
);
},
{
closed = 1;
nodes = (
"210 432 OFFCURVE",
"210 432 OFFCURVE",
"210 465 QCURVE SMOOTH",
"210 533 LINE SMOOTH",
"210 566 OFFCURVE",
"210 566 OFFCURVE",
"243 566 QCURVE SMOOTH",
"578 566 LINE SMOOTH",
"611 566 OFFCURVE",
"611 566 OFFCURVE",
"611 533 QCURVE SMOOTH",
"611 465 LINE SMOOTH",
"611 432 OFFCURVE",
"611 432 OFFCURVE",
"578 432 QCURVE SMOOTH",
"243 432 LINE SMOOTH"
);
}
);
width = 834;
}
);
unicode = 0038;
},
{
color = 5;
glyphname = nine;
layers = (
{
layerId = "17A5F7C0-AED1-4270-89BA-BFDC1003B8A5";
paths = (
{
closed = 1;
nodes = (
"658 0 LINE SMOOTH",
"708 0 OFFCURVE",
"779 71 OFFCURVE",
"779 121 QCURVE SMOOTH",
"779 599 LINE SMOOTH",
"779 649.746 OFFCURVE",
"708 721 OFFCURVE",
"658 721 QCURVE SMOOTH",
"173 721 LINE SMOOTH",
"122.254 721 OFFCURVE",
"51 649.746 OFFCURVE",
"51 599 QCURVE SMOOTH",
"51 426 LINE SMOOTH",
"51 376 OFFCURVE",
"122.254 305 OFFCURVE",
"173 305 QCURVE SMOOTH",
"658 305 LINE SMOOTH",
"673.672 305 OFFCURVE",
"697 281.672 OFFCURVE",
"697 266 QCURVE SMOOTH",
"697 121 LINE SMOOTH",
"697 105.328 OFFCURVE",
"673.672 82 OFFCURVE",
"658 82 QCURVE SMOOTH",
"58 82 LINE",
"69.94 46.179 OFFCURVE",
"133.448 0 OFFCURVE",
"173 0 QCURVE SMOOTH"
);
},
{
closed = 1;
nodes = (
"157.328 387 OFFCURVE",
"134 410.328 OFFCURVE",
"134 426 QCURVE SMOOTH",
"134 599 LINE SMOOTH",
"134 614.672 OFFCURVE",
"157.328 638 OFFCURVE",
"173 638 QCURVE SMOOTH",
"658 638 LINE SMOOTH",
"673.672 638 OFFCURVE",
"697 614.672 OFFCURVE",
"697 599 QCURVE SMOOTH",
"697 387 LINE",
"173 387 LINE SMOOTH"
);
}
);
width = 828;
},
{
layerId = "D465923C-ABAE-4975-85A4-08C1BC9DA335";
paths = (
{
closed = 1;
nodes = (
"616 0 LINE SMOOTH",
"676 0 OFFCURVE",
"761 86 OFFCURVE",
"761 145 QCURVE SMOOTH",
"761 575 LINE SMOOTH",
"761 635 OFFCURVE",
"676 720 OFFCURVE",
"616 720 QCURVE SMOOTH",
"200 720 LINE SMOOTH",
"140 720 OFFCURVE",
"54 635 OFFCURVE",
"54 575 QCURVE SMOOTH",
"54 427 LINE SMOOTH",
"54 367 OFFCURVE",
"140 281 OFFCURVE",
"200 281 QCURVE SMOOTH",
"575 281 LINE SMOOTH",
"608 281 OFFCURVE",
"608 281 OFFCURVE",
"608 248 QCURVE SMOOTH",
"608 186 LINE SMOOTH",
"608 153 OFFCURVE",
"608 153 OFFCURVE",
"575 153 QCURVE SMOOTH",
"51 153 LINE",
"62 89 OFFCURVE",
"146 0 OFFCURVE",
"200 0 QCURVE SMOOTH"
);
},
{
closed = 1;
nodes = (
"208 435 OFFCURVE",
"208 435 OFFCURVE",
"208 468 QCURVE SMOOTH",
"208 534 LINE SMOOTH",
"208 567 OFFCURVE",
"208 567 OFFCURVE",
"241 567 QCURVE SMOOTH",
"575 567 LINE SMOOTH",
"608 567 OFFCURVE",
"608 567 OFFCURVE",
"608 534 QCURVE SMOOTH",
"608 435 LINE",
"241 435 LINE SMOOTH"
);
}
);
width = 828;
}
);
unicode = 0039;
},
{
color = 5;
glyphname = two.alt;
layers = (
{
layerId = "17A5F7C0-AED1-4270-89BA-BFDC1003B8A5";
paths = (
{
closed = 1;
nodes = (
"775 0 LINE",
"775 82 LINE",
"132 82 LINE",
"132 160 LINE",
"775 488 LINE",
"775 619 LINE",
"763.806 657.806 OFFCURVE",
"697.045 721 OFFCURVE",
"656 721 QCURVE SMOOTH",
"171 721 LINE SMOOTH",
"120.254 721 OFFCURVE",
"49 649.746 OFFCURVE",
"49 599 QCURVE SMOOTH",
"49 557 LINE",
"132 557 LINE",
"132 599 LINE SMOOTH",
"132 614.672 OFFCURVE",
"155.328 638 OFFCURVE",
"171 638 QCURVE SMOOTH",
"693 638 LINE",
"693 538 LINE",
"49 211 LINE",
"50 95 LINE",
"59.701 56.194 OFFCURVE",
"126.463 0 OFFCURVE",
"169 0 QCURVE SMOOTH"
);
}
);
width = 815;
},
{
layerId = "D465923C-ABAE-4975-85A4-08C1BC9DA335";
paths = (
{
closed = 1;
nodes = (
"755 0 LINE",
"755 153 LINE",
"203 153 LINE",
"203 154 LINE",
"755 453 LINE",
"755 600 LINE",
"746 651 OFFCURVE",
"664.731 719 OFFCURVE",
"611 719 QCURVE SMOOTH",
"195 719 LINE SMOOTH",
"135.299 719 OFFCURVE",
"49 633.701 OFFCURVE",
"49 574 QCURVE SMOOTH",
"49 497 LINE",
"203 497 LINE",
"203 533 LINE SMOOTH",
"203 566 OFFCURVE",
"202 566 OFFCURVE",
"236 566 QCURVE SMOOTH",
"601 566 LINE",
"601 546 LINE",
"49 247 LINE",
"50 113 LINE",
"61.94 65.239 OFFCURVE",
"141.507 0 OFFCURVE",
"193 0 QCURVE SMOOTH"
);
}
);
width = 815;
}
);
},
{
color = 5;
glyphname = four.alt;
layers = (
{
layerId = "17A5F7C0-AED1-4270-89BA-BFDC1003B8A5";
paths = (
{
closed = 1;
nodes = (
"593 0 LINE",
"593 186 LINE",
"705 186 LINE",
"705 268 LINE",
"593 268 LINE",
"593 425 LINE",
"511 425 LINE",
"511 268 LINE",
"95 268 LINE",
"477 690 LINE",
"477 721 LINE",
"386 721 LINE",
"9 279 LINE",
"9 186 LINE",
"511 186 LINE",
"511 0 LINE"
);
}
);
width = 723;
},
{
layerId = "D465923C-ABAE-4975-85A4-08C1BC9DA335";
paths = (
{
closed = 1;
nodes = (
"593 0 LINE",
"593 177 LINE",
"689 177 LINE",
"689 331 LINE",
"593 331 LINE",
"593 466 LINE",
"440 466 LINE",
"440 331 LINE",
"217 331 LINE",
"493 635 LINE",
"493 718 LINE",
"355 718 LINE",
"9 312 LINE",
"9 177 LINE",
"440 177 LINE",
"440 0 LINE"
);
}
);
width = 723;
}
);
},
{
color = 5;
glyphname = seven.alt;
layers = (
{
layerId = "17A5F7C0-AED1-4270-89BA-BFDC1003B8A5";
paths = (
{
closed = 1;
nodes = (
"158 0 LINE",
"769 718 LINE",
"769 720 LINE",
"46 720 LINE",
"46 638 LINE",
"593 638 LINE",
"50 1 LINE",
"50 0 LINE"
);
}
);
width = 771;
},
{
layerId = "D465923C-ABAE-4975-85A4-08C1BC9DA335";
paths = (
{
closed = 1;
nodes = (
"202 0 LINE",
"753 670 LINE",
"753 720 LINE",
"46 720 LINE",
"46 567 LINE",
"468 567 LINE",
"46 51 LINE",
"46 0 LINE"
);
}
);
width = 771;
}
);
},
{
color = 5;
glyphname = nine.alt;
layers = (
{
layerId = "17A5F7C0-AED1-4270-89BA-BFDC1003B8A5";
paths = (
{
closed = 1;
nodes = (
"740 0 LINE",
"740 597 LINE SMOOTH",
"740 647.746 OFFCURVE",
"669 719 OFFCURVE",
"619 719 QCURVE SMOOTH",
"134 719 LINE SMOOTH",
"83.254 719 OFFCURVE",
"12 647.746 OFFCURVE",
"12 597 QCURVE SMOOTH",
"12 424 LINE SMOOTH",
"12 374 OFFCURVE",
"83.254 303 OFFCURVE",
"134 303 QCURVE SMOOTH",
"619 303 LINE SMOOTH",
"634.672 303 OFFCURVE",
"658 279.672 OFFCURVE",
"658 264 QCURVE SMOOTH",
"658 0 LINE"
);
},
{
closed = 1;
nodes = (
"118.328 385 OFFCURVE",
"95 408.328 OFFCURVE",
"95 424 QCURVE SMOOTH",
"95 597 LINE SMOOTH",
"95 612.672 OFFCURVE",
"118.328 636 OFFCURVE",
"134 636 QCURVE SMOOTH",
"619 636 LINE SMOOTH",
"634.672 636 OFFCURVE",
"658 612.672 OFFCURVE",
"658 597 QCURVE SMOOTH",
"658 385 LINE",
"134 385 LINE SMOOTH"
);
}
);
width = 784;
},
{
layerId = "D465923C-ABAE-4975-85A4-08C1BC9DA335";
paths = (
{
closed = 1;
nodes = (
"719 0 LINE",
"719 573 LINE SMOOTH",
"719 632.701 OFFCURVE",
"633.701 719 OFFCURVE",
"574 719 QCURVE SMOOTH",
"158 719 LINE SMOOTH",
"98.299 719 OFFCURVE",
"12 632.701 OFFCURVE",
"12 573 QCURVE SMOOTH",
"12 425 LINE SMOOTH",
"12 365.298 OFFCURVE",
"98.299 280 OFFCURVE",
"158 280 QCURVE SMOOTH",
"533 280 LINE SMOOTH",
"566 280 OFFCURVE",
"566 280 OFFCURVE",
"566 247 QCURVE SMOOTH",
"566 0 LINE"
);
},
{
closed = 1;
nodes = (
"166 433 OFFCURVE",
"166 433 OFFCURVE",
"166 466 QCURVE SMOOTH",
"166 532 LINE SMOOTH",
"166 565 OFFCURVE",
"166 565 OFFCURVE",
"199 565 QCURVE SMOOTH",
"533 565 LINE SMOOTH",
"566 565 OFFCURVE",
"566 565 OFFCURVE",
"566 532 QCURVE SMOOTH",
"566 433 LINE",
"199 433 LINE SMOOTH"
);
}
);
width = 784;
}
);
},
{
color = 7;
export = 0;
glyphname = onesuperior;
layers = (
{
layerId = "17A5F7C0-AED1-4270-89BA-BFDC1003B8A5";
paths = (
{
closed = 1;
nodes = (
"182 325 LINE",
"182 737 LINE",
"118 737 LINE",
"10 608 LINE",
"71 608 LINE",
"134 684 LINE",
"134 325 LINE"
);
}
);
width = 232;
},
{
layerId = "D465923C-ABAE-4975-85A4-08C1BC9DA335";
paths = (
{
closed = 1;
nodes = (
"233 325 LINE",
"233 737 LINE",
"142 737 LINE",
"10 580 LINE",
"126 580 LINE",
"145 604 LINE",
"145 325 LINE"
);
}
);
width = 263;
}
);
unicode = 00B9;
},
{
color = 7;
export = 0;
glyphname = twosuperior;
layers = (
{
layerId = "17A5F7C0-AED1-4270-89BA-BFDC1003B8A5";
paths = (
{
closed = 1;
nodes = (
"435 325 LINE",
"435 371 LINE",
"89 371 LINE SMOOTH",
"80 371 OFFCURVE",
"67 385 OFFCURVE",
"67 394 QCURVE SMOOTH",
"67 479 LINE SMOOTH",
"67 488 OFFCURVE",
"80 501 OFFCURVE",
"89 501 QCURVE SMOOTH",
"366 501 LINE SMOOTH",
"395 501 OFFCURVE",
"435 542 OFFCURVE",
"435 570 QCURVE SMOOTH",
"435 667 LINE SMOOTH",
"435 696 OFFCURVE",
"395 737 OFFCURVE",
"366 737 QCURVE SMOOTH",
"89 737 LINE SMOOTH",
"60 737 OFFCURVE",
"20 696 OFFCURVE",
"20 667 QCURVE SMOOTH",
"20 651 LINE",
"67 651 LINE",
"67 667 LINE SMOOTH",
"67 676 OFFCURVE",
"80 689 OFFCURVE",
"89 689 QCURVE SMOOTH",
"366 689 LINE SMOOTH",
"375 689 OFFCURVE",
"388 676 OFFCURVE",
"388 667 QCURVE SMOOTH",
"388 570 LINE SMOOTH",
"388 561 OFFCURVE",
"375 548 OFFCURVE",
"366 548 QCURVE SMOOTH",
"89 548 LINE SMOOTH",
"60 548 OFFCURVE",
"20 508 OFFCURVE",
"20 479 QCURVE SMOOTH",
"20 325 LINE"
);
}
);
width = 455;
},
{
layerId = "D465923C-ABAE-4975-85A4-08C1BC9DA335";
paths = (
{
closed = 1;
nodes = (
"424 325 LINE",
"424 413 LINE",
"126 413 LINE SMOOTH",
"107 413 OFFCURVE",
"107 413 OFFCURVE",
"107 432 QCURVE SMOOTH",
"107 461 LINE SMOOTH",
"107 480 OFFCURVE",
"107 480 OFFCURVE",
"126 480 QCURVE SMOOTH",
"340 480 LINE SMOOTH",
"374 480 OFFCURVE",
"424 529 OFFCURVE",
"424 563 QCURVE SMOOTH",
"424 654 LINE SMOOTH",
"424 688 OFFCURVE",
"374 737 OFFCURVE",
"340 737 QCURVE SMOOTH",
"103 737 LINE SMOOTH",
"69 737 OFFCURVE",
"20 688 OFFCURVE",
"20 654 QCURVE SMOOTH",
"20 616 LINE",
"107 616 LINE",
"107 630 LINE SMOOTH",
"107 649 OFFCURVE",
"107 649 OFFCURVE",
"126 649 QCURVE SMOOTH",
"317 649 LINE SMOOTH",
"336 649 OFFCURVE",
"336 649 OFFCURVE",
"336 630 QCURVE SMOOTH",
"336 586 LINE SMOOTH",
"336 568 OFFCURVE",
"336 568 OFFCURVE",
"317 568 QCURVE SMOOTH",
"103 568 LINE SMOOTH",
"69 568 OFFCURVE",
"20 519 OFFCURVE",
"20 485 QCURVE SMOOTH",
"20 325 LINE"
);
}
);
width = 444;
}
);
unicode = 00B2;
},
{
color = 7;
export = 0;
glyphname = threesuperior;
layers = (
{
layerId = "17A5F7C0-AED1-4270-89BA-BFDC1003B8A5";
paths = (
{
closed = 1;
nodes = (
"367 325 LINE SMOOTH",
"395 325 OFFCURVE",
"436 365 OFFCURVE",
"436 394 QCURVE SMOOTH",
"436 489 LINE SMOOTH",
"436 504 OFFCURVE",
"425 537 OFFCURVE",
"411 551 QCURVE",
"414 557 OFFCURVE",
"418 572 OFFCURVE",
"418 581 QCURVE SMOOTH",
"418 667 LINE SMOOTH",
"418 696 OFFCURVE",
"378 737 OFFCURVE",
"349 737 QCURVE SMOOTH",
"90 737 LINE SMOOTH",
"61 737 OFFCURVE",
"20 696 OFFCURVE",
"20 667 QCURVE SMOOTH",
"20 652 LINE",
"67 652 LINE",
"67 667 LINE SMOOTH",
"67 676 OFFCURVE",
"81 689 OFFCURVE",
"90 689 QCURVE SMOOTH",
"349 689 LINE SMOOTH",
"358 689 OFFCURVE",
"371 676 OFFCURVE",
"371 667 QCURVE SMOOTH",
"371 581 LINE SMOOTH",
"371 572 OFFCURVE",
"358 558 OFFCURVE",
"349 558 QCURVE SMOOTH",
"99 558 LINE",
"99 511 LINE",
"367 511 LINE SMOOTH",
"376 511 OFFCURVE",
"389 498 OFFCURVE",
"389 489 QCURVE SMOOTH",
"389 394 LINE SMOOTH",
"389 385 OFFCURVE",
"376 371 OFFCURVE",
"367 371 QCURVE SMOOTH",
"90 371 LINE SMOOTH",
"81 371 OFFCURVE",
"67 385 OFFCURVE",
"67 394 QCURVE SMOOTH",
"67 403 LINE",
"20 403 LINE",
"20 394 LINE SMOOTH",
"20 365 OFFCURVE",
"61 325 OFFCURVE",
"90 325 QCURVE SMOOTH"
);
}
);
width = 456;
},
{
layerId = "D465923C-ABAE-4975-85A4-08C1BC9DA335";
paths = (
{
closed = 1;
nodes = (
"341 325 LINE SMOOTH",
"375 325 OFFCURVE",
"424 374 OFFCURVE",
"424 408 QCURVE SMOOTH",
"424 493 LINE SMOOTH",
"424 508 OFFCURVE",
"413 535 OFFCURVE",
"405 545 QCURVE",
"406 551 OFFCURVE",
"408 565 OFFCURVE",
"408 572 QCURVE SMOOTH",
"408 654 LINE SMOOTH",
"408 688 OFFCURVE",
"359 737 OFFCURVE",
"325 737 QCURVE SMOOTH",
"103 737 LINE SMOOTH",
"69 737 OFFCURVE",
"20 688 OFFCURVE",
"20 654 QCURVE SMOOTH",
"20 617 LINE",
"107 617 LINE",
"107 630 LINE SMOOTH",
"107 649 OFFCURVE",
"107 649 OFFCURVE",
"126 649 QCURVE SMOOTH",
"302 649 LINE SMOOTH",
"321 649 OFFCURVE",
"321 649 OFFCURVE",
"321 630 QCURVE SMOOTH",
"321 595 LINE SMOOTH",
"321 576 OFFCURVE",
"321 576 OFFCURVE",
"302 576 QCURVE SMOOTH",
"87 576 LINE",
"87 489 LINE",
"317 489 LINE SMOOTH",
"336 489 OFFCURVE",
"336 489 OFFCURVE",
"336 470 QCURVE SMOOTH",
"336 432 LINE SMOOTH",
"336 413 OFFCURVE",
"336 413 OFFCURVE",
"317 413 QCURVE SMOOTH",
"126 413 LINE SMOOTH",
"107 413 OFFCURVE",
"107 413 OFFCURVE",
"107 432 QCURVE SMOOTH",
"107 440 LINE",
"20 440 LINE",
"20 408 LINE SMOOTH",
"20 374 OFFCURVE",
"69 325 OFFCURVE",
"103 325 QCURVE SMOOTH"
);
}
);
width = 444;
}
);
unicode = 00B3;
},
{
color = 7;
export = 0;
glyphname = onehalf;
layers = (
{
layerId = "17A5F7C0-AED1-4270-89BA-BFDC1003B8A5";
paths = (
{
closed = 1;
nodes = (
"108 0 LINE",
"504 720 LINE",
"463 720 LINE",
"66 0 LINE"
);
},
{
closed = 1;
nodes = (
"202 325 LINE",
"202 737 LINE",
"138 737 LINE",
"30 608 LINE",
"91 608 LINE",
"154 684 LINE",
"154 325 LINE"
);
},
{
closed = 1;
nodes = (
"765 0 LINE",
"765 46 LINE",
"419 46 LINE SMOOTH",
"410 46 OFFCURVE",
"397 60 OFFCURVE",
"397 69 QCURVE SMOOTH",
"397 154 LINE SMOOTH",
"397 163 OFFCURVE",
"410 176 OFFCURVE",
"419 176 QCURVE SMOOTH",
"696 176 LINE SMOOTH",
"725 176 OFFCURVE",
"765 217 OFFCURVE",
"765 245 QCURVE SMOOTH",
"765 342 LINE SMOOTH",
"765 371 OFFCURVE",
"725 412 OFFCURVE",
"696 412 QCURVE SMOOTH",
"419 412 LINE SMOOTH",
"390 412 OFFCURVE",
"350 371 OFFCURVE",
"350 342 QCURVE SMOOTH",
"350 326 LINE",
"397 326 LINE",
"397 342 LINE SMOOTH",
"397 351 OFFCURVE",
"410 364 OFFCURVE",
"419 364 QCURVE SMOOTH",
"696 364 LINE SMOOTH",
"705 364 OFFCURVE",
"718 351 OFFCURVE",
"718 342 QCURVE SMOOTH",
"718 245 LINE SMOOTH",
"718 236 OFFCURVE",
"705 223 OFFCURVE",
"696 223 QCURVE SMOOTH",
"419 223 LINE SMOOTH",
"390 223 OFFCURVE",
"350 183 OFFCURVE",
"350 154 QCURVE SMOOTH",
"350 0 LINE"
);
}
);
width = 795;
},
{
layerId = "D465923C-ABAE-4975-85A4-08C1BC9DA335";
paths = (
{
closed = 1;
nodes = (
"188 0 LINE",
"584 720 LINE",
"473 720 LINE",
"76 0 LINE"
);
},
{
closed = 1;
nodes = (
"223 325 LINE",
"223 737 LINE",
"132 737 LINE",
"0 580 LINE",
"116 580 LINE",
"135 604 LINE",
"135 325 LINE"
);
},
{
closed = 1;
nodes = (
"814 0 LINE",
"814 88 LINE",
"516 88 LINE SMOOTH",
"497 88 OFFCURVE",
"497 88 OFFCURVE",
"497 107 QCURVE SMOOTH",
"497 136 LINE SMOOTH",
"497 155 OFFCURVE",
"497 155 OFFCURVE",
"516 155 QCURVE SMOOTH",
"730 155 LINE SMOOTH",
"764 155 OFFCURVE",
"814 204 OFFCURVE",
"814 238 QCURVE SMOOTH",
"814 329 LINE SMOOTH",
"814 363 OFFCURVE",
"764 412 OFFCURVE",
"730 412 QCURVE SMOOTH",
"493 412 LINE SMOOTH",
"459 412 OFFCURVE",
"410 363 OFFCURVE",
"410 329 QCURVE SMOOTH",
"410 291 LINE",
"497 291 LINE",
"497 305 LINE SMOOTH",
"497 324 OFFCURVE",
"497 324 OFFCURVE",
"516 324 QCURVE SMOOTH",
"707 324 LINE SMOOTH",
"726 324 OFFCURVE",
"726 324 OFFCURVE",
"726 305 QCURVE SMOOTH",
"726 261 LINE SMOOTH",
"726 243 OFFCURVE",
"726 243 OFFCURVE",
"707 243 QCURVE SMOOTH",
"493 243 LINE SMOOTH",
"459 243 OFFCURVE",
"410 194 OFFCURVE",
"410 160 QCURVE SMOOTH",
"410 0 LINE"
);
}
);
width = 854;
}
);
unicode = 00BD;
},
{
color = 7;
export = 0;
glyphname = onequarter;
layers = (
{
layerId = "17A5F7C0-AED1-4270-89BA-BFDC1003B8A5";
paths = (
{
closed = 1;
nodes = (
"108 0 LINE",
"504 720 LINE",
"463 720 LINE",
"66 0 LINE"
);
},
{
closed = 1;
nodes = (
"202 325 LINE",
"202 737 LINE",
"138 737 LINE",
"30 608 LINE",
"91 608 LINE",
"154 684 LINE",
"154 325 LINE"
);
},
{
closed = 1;
nodes = (
"589 0 LINE",
"589 106 LINE",
"653 106 LINE",
"653 153 LINE",
"589 153 LINE",
"589 412 LINE",
"536 412 LINE",
"255 158 LINE",
"255 106 LINE",
"542 106 LINE",
"542 0 LINE"
);
},
{
closed = 1;
nodes = (
"542 355 LINE",
"542 153 LINE",
"315 153 LINE"
);
}
);
width = 683;
},
{
layerId = "D465923C-ABAE-4975-85A4-08C1BC9DA335";
paths = (
{
closed = 1;
nodes = (
"188 0 LINE",
"584 720 LINE",
"473 720 LINE",
"76 0 LINE"
);
},
{
closed = 1;
nodes = (
"223 325 LINE",
"223 737 LINE",
"132 737 LINE",
"0 580 LINE",
"116 580 LINE",
"135 604 LINE",
"135 325 LINE"
);
},
{
closed = 1;
nodes = (
"675 0 LINE",
"675 103 LINE",
"730 103 LINE",
"730 191 LINE",
"675 191 LINE",
"675 412 LINE",
"597 412 LINE",
"342 181 LINE",
"342 103 LINE",
"588 103 LINE",
"588 0 LINE"
);
},
{
closed = 1;
nodes = (
"588 275 LINE",
"588 191 LINE",
"484 191 LINE"
);
}
);
width = 500;
}
);
unicode = 00BC;
},
{
color = 7;
export = 0;
glyphname = threequarters;
layers = (
{
layerId = "17A5F7C0-AED1-4270-89BA-BFDC1003B8A5";
paths = (
{
closed = 1;
nodes = (
"318 0 LINE",
"714 720 LINE",
"673 720 LINE",
"276 0 LINE"
);
},
{
closed = 1;
nodes = (
"377 325 LINE SMOOTH",
"405 325 OFFCURVE",
"446 365 OFFCURVE",
"446 394 QCURVE SMOOTH",
"446 489 LINE SMOOTH",
"446 504 OFFCURVE",
"435 537 OFFCURVE",
"421 551 QCURVE",
"424 557 OFFCURVE",
"428 572 OFFCURVE",
"428 581 QCURVE SMOOTH",
"428 667 LINE SMOOTH",
"428 696 OFFCURVE",
"388 737 OFFCURVE",
"359 737 QCURVE SMOOTH",
"100 737 LINE SMOOTH",
"71 737 OFFCURVE",
"30 696 OFFCURVE",
"30 667 QCURVE SMOOTH",
"30 652 LINE",
"77 652 LINE",
"77 667 LINE SMOOTH",
"77 676 OFFCURVE",
"91 689 OFFCURVE",
"100 689 QCURVE SMOOTH",
"359 689 LINE SMOOTH",
"368 689 OFFCURVE",
"381 676 OFFCURVE",
"381 667 QCURVE SMOOTH",
"381 581 LINE SMOOTH",
"381 572 OFFCURVE",
"368 558 OFFCURVE",
"359 558 QCURVE SMOOTH",
"109 558 LINE",
"109 511 LINE",
"377 511 LINE SMOOTH",
"386 511 OFFCURVE",
"399 498 OFFCURVE",
"399 489 QCURVE SMOOTH",
"399 394 LINE SMOOTH",
"399 385 OFFCURVE",
"386 371 OFFCURVE",
"377 371 QCURVE SMOOTH",
"100 371 LINE SMOOTH",
"91 371 OFFCURVE",
"77 385 OFFCURVE",
"77 394 QCURVE SMOOTH",
"77 403 LINE",
"30 403 LINE",
"30 394 LINE SMOOTH",
"30 365 OFFCURVE",
"71 325 OFFCURVE",
"100 325 QCURVE SMOOTH"
);
},
{
closed = 1;
nodes = (
"799 0 LINE",
"799 106 LINE",
"863 106 LINE",
"863 153 LINE",
"799 153 LINE",
"799 412 LINE",
"746 412 LINE",
"465 158 LINE",
"465 106 LINE",
"752 106 LINE",
"752 0 LINE"
);
},
{
closed = 1;
nodes = (
"752 355 LINE",
"752 153 LINE",
"525 153 LINE"
);
}
);
width = 893;
},
{
layerId = "D465923C-ABAE-4975-85A4-08C1BC9DA335";
paths = (
{
closed = 1;
nodes = (
"363 0 LINE",
"759 720 LINE",
"648 720 LINE",
"251 0 LINE"
);
},
{
closed = 1;
nodes = (
"341 325 LINE SMOOTH",
"375 325 OFFCURVE",
"424 374 OFFCURVE",
"424 408 QCURVE SMOOTH",
"424 493 LINE SMOOTH",
"424 508 OFFCURVE",
"413 535 OFFCURVE",
"405 545 QCURVE",
"406 551 OFFCURVE",
"408 565 OFFCURVE",
"408 572 QCURVE SMOOTH",
"408 654 LINE SMOOTH",
"408 688 OFFCURVE",
"359 737 OFFCURVE",
"325 737 QCURVE SMOOTH",
"103 737 LINE SMOOTH",
"69 737 OFFCURVE",
"20 688 OFFCURVE",
"20 654 QCURVE SMOOTH",
"20 617 LINE",
"107 617 LINE",
"107 630 LINE SMOOTH",
"107 649 OFFCURVE",
"107 649 OFFCURVE",
"126 649 QCURVE SMOOTH",
"302 649 LINE SMOOTH",
"321 649 OFFCURVE",
"321 649 OFFCURVE",
"321 630 QCURVE SMOOTH",
"321 595 LINE SMOOTH",
"321 576 OFFCURVE",
"321 576 OFFCURVE",
"302 576 QCURVE SMOOTH",
"87 576 LINE",
"87 489 LINE",
"317 489 LINE SMOOTH",
"336 489 OFFCURVE",
"336 489 OFFCURVE",
"336 470 QCURVE SMOOTH",
"336 432 LINE SMOOTH",
"336 413 OFFCURVE",
"336 413 OFFCURVE",
"317 413 QCURVE SMOOTH",
"126 413 LINE SMOOTH",
"107 413 OFFCURVE",
"107 413 OFFCURVE",
"107 432 QCURVE SMOOTH",
"107 440 LINE",
"20 440 LINE",
"20 408 LINE SMOOTH",
"20 374 OFFCURVE",
"69 325 OFFCURVE",
"103 325 QCURVE SMOOTH"
);
},
{
closed = 1;
nodes = (
"850 0 LINE",
"850 103 LINE",
"905 103 LINE",
"905 191 LINE",
"850 191 LINE",
"850 412 LINE",
"772 412 LINE",
"517 181 LINE",
"517 103 LINE",
"763 103 LINE",
"763 0 LINE"
);
},
{
closed = 1;
nodes = (
"763 275 LINE",
"763 191 LINE",
"659 191 LINE"
);
}
);
width = 925;
}
);
unicode = 00BE;
},
{
color = 5;
glyphname = period;
layers = (
{
layerId = "17A5F7C0-AED1-4270-89BA-BFDC1003B8A5";
paths = (
{
closed = 1;
nodes = (
"136 0 LINE",
"136 82 LINE",
"54 82 LINE",
"54 0 LINE"
);
}
);
width = 214;
},
{
layerId = "D465923C-ABAE-4975-85A4-08C1BC9DA335";
paths = (
{
closed = 1;
nodes = (
"207 0 LINE",
"207 153 LINE",
"54 153 LINE",
"54 0 LINE"
);
}
);
width = 233;
}
);
unicode = 002E;
},
{
color = 5;
glyphname = comma;
layers = (
{
layerId = "17A5F7C0-AED1-4270-89BA-BFDC1003B8A5";
paths = (
{
closed = 1;
nodes = (
"90 -119 OFFCURVE",
"136 -56 OFFCURVE",
"136 -16 QCURVE SMOOTH",
"136 82 LINE",
"54 82 LINE",
"54 -131 LINE"
);
}
);
width = 193;
},
{
layerId = "D465923C-ABAE-4975-85A4-08C1BC9DA335";
paths = (
{
closed = 1;
nodes = (
"119 -122 OFFCURVE",
"207 -38 OFFCURVE",
"207 16 QCURVE SMOOTH",
"207 142 LINE",
"54 142 LINE",
"54 -133 LINE"
);
}
);
width = 243;
}
);
unicode = 002C;
},
{
color = 5;
glyphname = colon;
layers = (
{
layerId = "17A5F7C0-AED1-4270-89BA-BFDC1003B8A5";
paths = (
{
closed = 1;
nodes = (
"136 506 LINE",
"136 588 LINE",
"54 588 LINE",
"54 506 LINE"
);
},
{
closed = 1;
nodes = (
"136 0 LINE",
"136 82 LINE",
"54 82 LINE",
"54 0 LINE"
);
}
);
width = 214;
},
{
layerId = "D465923C-ABAE-4975-85A4-08C1BC9DA335";
paths = (
{
closed = 1;
nodes = (
"207 426 LINE",
"207 580 LINE",
"54 580 LINE",
"54 426 LINE"
);
},
{
closed = 1;
nodes = (
"207 0 LINE",
"207 153 LINE",
"54 153 LINE",
"54 0 LINE"
);
}
);
width = 247;
}
);
unicode = 003A;
},
{
color = 5;
glyphname = semicolon;
layers = (
{
layerId = "17A5F7C0-AED1-4270-89BA-BFDC1003B8A5";
paths = (
{
closed = 1;
nodes = (
"87 -119 OFFCURVE",
"133 -56 OFFCURVE",
"133 -16 QCURVE SMOOTH",
"133 82 LINE",
"51 82 LINE",
"51 -131 LINE"
);
},
{
closed = 1;
nodes = (
"133 506 LINE",
"133 588 LINE",
"51 588 LINE",
"51 506 LINE"
);
}
);
width = 193;
},
{
layerId = "D465923C-ABAE-4975-85A4-08C1BC9DA335";
paths = (
{
closed = 1;
nodes = (
"117 -122 OFFCURVE",
"205 -38 OFFCURVE",
"205 16 QCURVE SMOOTH",
"205 142 LINE",
"52 142 LINE",
"52 -133 LINE"
);
},
{
closed = 1;
nodes = (
"205 426 LINE",
"205 580 LINE",
"51 580 LINE",
"51 426 LINE"
);
}
);
width = 266;
}
);
unicode = 003B;
},
{
color = 5;
glyphname = ellipsis;
layers = (
{
layerId = "17A5F7C0-AED1-4270-89BA-BFDC1003B8A5";
paths = (
{
closed = 1;
nodes = (
"137 0 LINE",
"137 82 LINE",
"54 82 LINE",
"54 0 LINE"
);
},
{
closed = 1;
nodes = (
"326 0 LINE",
"326 82 LINE",
"244 82 LINE",
"244 0 LINE"
);
},
{
closed = 1;
nodes = (
"514 0 LINE",
"514 82 LINE",
"432 82 LINE",
"432 0 LINE"
);
}
);
width = 574;
},
{
layerId = "D465923C-ABAE-4975-85A4-08C1BC9DA335";
paths = (
{
closed = 1;
nodes = (
"208 0 LINE",
"208 153 LINE",
"54 153 LINE",
"54 0 LINE"
);
},
{
closed = 1;
nodes = (
"400 0 LINE",
"400 153 LINE",
"246 153 LINE",
"246 0 LINE"
);
},
{
closed = 1;
nodes = (
"591 0 LINE",
"591 153 LINE",
"438 153 LINE",
"438 0 LINE"
);
}
);
width = 574;
}
);
unicode = 2026;
},
{
color = 5;
glyphname = exclam;
layers = (
{
layerId = "17A5F7C0-AED1-4270-89BA-BFDC1003B8A5";
paths = (
{
closed = 1;
nodes = (
"140 203 LINE",
"140 720 LINE",
"58 720 LINE",
"58 203 LINE"
);
},
{
closed = 1;
nodes = (
"140 0 LINE",
"140 82 LINE",
"58 82 LINE",
"58 0 LINE"
);
}
);
width = 220;
},
{
layerId = "D465923C-ABAE-4975-85A4-08C1BC9DA335";
paths = (
{
closed = 1;
nodes = (
"211 201 LINE",
"211 720 LINE",
"58 720 LINE",
"58 201 LINE"
);
},
{
closed = 1;
nodes = (
"211 0 LINE",
"211 153 LINE",
"58 153 LINE",
"58 0 LINE"
);
}
);
width = 220;
}
);
unicode = 0021;
},
{
color = 5;
glyphname = exclamdown;
layers = (
{
layerId = "17A5F7C0-AED1-4270-89BA-BFDC1003B8A5";
paths = (
{
closed = 1;
nodes = (
"135 0 LINE",
"135 517 LINE",
"53 517 LINE",
"53 0 LINE"
);
},
{
closed = 1;
nodes = (
"135 645 LINE",
"135 728 LINE",
"53 728 LINE",
"53 645 LINE"
);
}
);
width = 210;
},
{
layerId = "D465923C-ABAE-4975-85A4-08C1BC9DA335";
paths = (
{
closed = 1;
nodes = (
"206 0 LINE",
"206 526 LINE",
"53 526 LINE",
"53 0 LINE"
);
},
{
closed = 1;
nodes = (
"206 553 LINE",
"206 706 LINE",
"53 706 LINE",
"53 553 LINE"
);
}
);
width = 210;
}
);
unicode = 00A1;
},
{
color = 5;
glyphname = question;
layers = (
{
layerId = "17A5F7C0-AED1-4270-89BA-BFDC1003B8A5";
paths = (
{
closed = 1;
nodes = (
"235 201 LINE",
"235 243 LINE SMOOTH",
"235 259 OFFCURVE",
"258 282 OFFCURVE",
"274 282 QCURVE SMOOTH",
"548 282 LINE SMOOTH",
"598 282 OFFCURVE",
"669 353 OFFCURVE",
"669 403 QCURVE SMOOTH",
"669 597 LINE SMOOTH",
"669 648 OFFCURVE",
"598 719 OFFCURVE",
"548 719 QCURVE SMOOTH",
"31 720 LINE",
"31 636 LINE",
"548 636 LINE SMOOTH",
"564 636 OFFCURVE",
"587 613 OFFCURVE",
"587 597 QCURVE SMOOTH",
"587 403 LINE SMOOTH",
"587 387 OFFCURVE",
"564 364 OFFCURVE",
"548 364 QCURVE SMOOTH",
"274 364 LINE SMOOTH",
"224 364 OFFCURVE",
"153 294 OFFCURVE",
"153 243 QCURVE SMOOTH",
"153 201 LINE"
);
},
{
closed = 1;
nodes = (
"235 0 LINE",
"235 82 LINE",
"153 82 LINE",
"153 0 LINE"
);
}
);
width = 678;
},
{
layerId = "D465923C-ABAE-4975-85A4-08C1BC9DA335";
paths = (
{
closed = 1;
nodes = (
"282 194 LINE",
"282 230 LINE SMOOTH",
"282 263 OFFCURVE",
"282 263 OFFCURVE",
"315 263 QCURVE SMOOTH",
"507 263 LINE SMOOTH",
"567 263 OFFCURVE",
"653 349 OFFCURVE",
"653 409 QCURVE SMOOTH",
"653 575 LINE SMOOTH",
"653 635 OFFCURVE",
"567 720 OFFCURVE",
"507 720 QCURVE SMOOTH",
"31 720 LINE",
"31 567 LINE",
"467 567 LINE SMOOTH",
"500 567 OFFCURVE",
"500 567 OFFCURVE",
"500 534 QCURVE SMOOTH",
"500 450 LINE SMOOTH",
"500 417 OFFCURVE",
"500 417 OFFCURVE",
"467 417 QCURVE SMOOTH",
"273 417 LINE SMOOTH",
"213 417 OFFCURVE",
"128 332 OFFCURVE",
"128 272 QCURVE SMOOTH",
"128 194 LINE"
);
},
{
closed = 1;
nodes = (
"282 0 LINE",
"282 153 LINE",
"128 153 LINE",
"128 0 LINE"
);
}
);
width = 678;
}
);
unicode = 003F;
},
{
color = 5;
glyphname = questiondown;
layers = (
{
layerId = "17A5F7C0-AED1-4270-89BA-BFDC1003B8A5";
paths = (
{
closed = 1;
nodes = (
"656 0 LINE",
"655 82 LINE",
"140 82 LINE SMOOTH",
"124 82 OFFCURVE",
"101 105 OFFCURVE",
"101 121 QCURVE SMOOTH",
"101 315 LINE SMOOTH",
"101 331 OFFCURVE",
"124 354 OFFCURVE",
"140 354 QCURVE SMOOTH",
"413 354 LINE SMOOTH",
"464 354 OFFCURVE",
"534 425 OFFCURVE",
"534 476 QCURVE SMOOTH",
"534 524 LINE",
"452 524 LINE",
"452 476 LINE SMOOTH",
"452 460 OFFCURVE",
"429 437 OFFCURVE",
"413 437 QCURVE SMOOTH",
"140 437 LINE SMOOTH",
"89 437 OFFCURVE",
"19 366 OFFCURVE",
"19 315 QCURVE SMOOTH",
"19 121 LINE SMOOTH",
"19 71 OFFCURVE",
"89 0 OFFCURVE",
"140 0 QCURVE SMOOTH"
);
},
{
closed = 1;
nodes = (
"534 645 LINE",
"534 728 LINE",
"452 728 LINE",
"452 645 LINE"
);
}
);
width = 675;
},
{
layerId = "D465923C-ABAE-4975-85A4-08C1BC9DA335";
paths = (
{
closed = 1;
nodes = (
"642 0 LINE",
"642 153 LINE",
"205 153 LINE SMOOTH",
"172 153 OFFCURVE",
"172 153 OFFCURVE",
"172 186 QCURVE SMOOTH",
"172 270 LINE SMOOTH",
"172 303 OFFCURVE",
"172 303 OFFCURVE",
"205 303 QCURVE SMOOTH",
"398 303 LINE SMOOTH",
"458 303 OFFCURVE",
"544 389 OFFCURVE",
"544 449 QCURVE SMOOTH",
"544 532 LINE",
"391 532 LINE",
"391 490 LINE SMOOTH",
"391 457 OFFCURVE",
"391 457 OFFCURVE",
"358 457 QCURVE SMOOTH",
"165 457 LINE SMOOTH",
"105 457 OFFCURVE",
"19 372 OFFCURVE",
"19 312 QCURVE SMOOTH",
"19 145 LINE SMOOTH",
"19 86 OFFCURVE",
"105 0 OFFCURVE",
"165 0 QCURVE SMOOTH"
);
},
{
closed = 1;
nodes = (
"544 553 LINE",
"544 706 LINE",
"391 706 LINE",
"391 553 LINE"
);
}
);
width = 675;
}
);
unicode = 00BF;
},
{
color = 5;
glyphname = bullet;
layers = (
{
layerId = "17A5F7C0-AED1-4270-89BA-BFDC1003B8A5";
paths = (
{
closed = 1;
nodes = (
"197 325 LINE SMOOTH",
"211.179 325 OFFCURVE",
"226 339.567 OFFCURVE",
"226 353 QCURVE SMOOTH",
"226 374 LINE SMOOTH",
"226 387.433 OFFCURVE",
"211.179 403 OFFCURVE",
"197 403 QCURVE SMOOTH",
"172 403 LINE SMOOTH",
"159.313 403 OFFCURVE",
"144 387.433 OFFCURVE",
"144 374 QCURVE SMOOTH",
"144 353 LINE SMOOTH",
"144 339.567 OFFCURVE",
"159.313 325 OFFCURVE",
"172 325 QCURVE SMOOTH"
);
}
);
width = 371;
},
{
layerId = "D465923C-ABAE-4975-85A4-08C1BC9DA335";
paths = (
{
closed = 1;
nodes = (
"195 279 LINE SMOOTH",
"227.836 279 OFFCURVE",
"262 311.91 OFFCURVE",
"262 344 QCURVE SMOOTH",
"262 362 LINE SMOOTH",
"262 394.09 OFFCURVE",
"227.836 428 OFFCURVE",
"195 428 QCURVE SMOOTH",
"174 428 LINE SMOOTH",
"141.91 428 OFFCURVE",
"108 394.09 OFFCURVE",
"108 362 QCURVE SMOOTH",
"108 344 LINE SMOOTH",
"108 311.91 OFFCURVE",
"141.91 279 OFFCURVE",
"174 279 QCURVE SMOOTH"
);
}
);
width = 371;
}
);
unicode = 2022;
},
{
color = 5;
glyphname = asterisk;
layers = (
{
layerId = "17A5F7C0-AED1-4270-89BA-BFDC1003B8A5";
paths = (
{
closed = 1;
nodes = (
"237 438 LINE",
"328 315 LINE",
"394 363 LINE",
"304 488 LINE",
"450 535 LINE",
"423 614 LINE",
"278 566 LINE",
"278 719 LINE",
"196 719 LINE",
"196 565 LINE",
"49 614 LINE",
"25 535 LINE",
"170 488 LINE",
"80 362 LINE",
"147 315 LINE"
);
}
);
width = 491;
},
{
layerId = "D465923C-ABAE-4975-85A4-08C1BC9DA335";
paths = (
{
closed = 1;
nodes = (
"257 354 LINE",
"328 261 LINE",
"451 351 LINE",
"382 444 LINE",
"492 479 LINE",
"445 627 LINE",
"335 590 LINE",
"335 706 LINE",
"181 706 LINE",
"181 590 LINE",
"72 627 LINE",
"25 479 LINE",
"135 444 LINE",
"66 351 LINE",
"191 261 LINE"
);
}
);
width = 516;
}
);
unicode = 002A;
},
{
color = 5;
glyphname = numbersign;
layers = (
{
layerId = "17A5F7C0-AED1-4270-89BA-BFDC1003B8A5";
paths = (
{
closed = 1;
nodes = (
"161 0 LINE",
"214 171 LINE",
"474 171 LINE",
"420 0 LINE",
"502 0 LINE",
"555 171 LINE",
"740 171 LINE",
"740 253 LINE",
"581 253 LINE",
"652 473 LINE",
"773 473 LINE",
"773 555 LINE",
"677 555 LINE",
"734 719 LINE",
"653 719 LINE",
"597 555 LINE",
"336 555 LINE",
"393 719 LINE",
"312 719 LINE",
"256 555 LINE",
"64 555 LINE",
"64 473 LINE",
"230 473 LINE",
"159 253 LINE",
"32 253 LINE",
"32 171 LINE",
"133 171 LINE",
"79 0 LINE"
);
},
{
closed = 1;
nodes = (
"311 473 LINE",
"571 473 LINE",
"500 253 LINE",
"241 253 LINE"
);
}
);
width = 797;
},
{
layerId = "D465923C-ABAE-4975-85A4-08C1BC9DA335";
paths = (
{
closed = 1;
nodes = (
"215 0 LINE",
"259 158 LINE",
"399 158 LINE",
"351 0 LINE",
"506 0 LINE",
"551 158 LINE",
"722 158 LINE",
"722 311 LINE",
"601 311 LINE",
"635 417 LINE",
"750 417 LINE",
"750 570 LINE",
"683 570 LINE",
"734 720 LINE",
"577 720 LINE",
"529 570 LINE",
"391 570 LINE",
"442 720 LINE",
"284 720 LINE",
"236 570 LINE",
"60 570 LINE",
"60 417 LINE",
"187 417 LINE",
"153 311 LINE",
"32 311 LINE",
"32 158 LINE",
"107 158 LINE",
"60 0 LINE"
);
},
{
closed = 1;
nodes = (
"343 417 LINE",
"479 417 LINE",
"445 311 LINE",
"309 311 LINE"
);
}
);
width = 797;
}
);
unicode = 0023;
},
{
color = 5;
glyphname = slash;
layers = (
{
layerId = "17A5F7C0-AED1-4270-89BA-BFDC1003B8A5";
paths = (
{
closed = 1;
nodes = (
"14 10 LINE",
"512 616 LINE",
"512 720 LINE",
"505 712 LINE",
"6 106 LINE",
"6 0 LINE"
);
}
);
width = 521;
},
{
layerId = "D465923C-ABAE-4975-85A4-08C1BC9DA335";
paths = (
{
closed = 1;
nodes = (
"61 0 LINE",
"522 566 LINE",
"522 720 LINE",
"467 720 LINE",
"6 155 LINE",
"6 0 LINE"
);
}
);
width = 521;
}
);
unicode = 002F;
},
